<svg xmlns="http://www.w3.org/2000/svg" xmlns:xlink="http://www.w3.org/1999/xlink" width="768" zoomAndPan="magnify" viewBox="0 0 576 449.999984" height="600" preserveAspectRatio="xMidYMid meet" version="1.0"><defs><clipPath id="28f45822de"><path d="M 309 244.390625 L 338 244.390625 L 338 256 L 309 256 Z M 309 244.390625 " clip-rule="nonzero"/></clipPath><clipPath id="d806acefda"><path d="M 423 371 L 430.792969 371 L 430.792969 378 L 423 378 Z M 423 371 " clip-rule="nonzero"/></clipPath><clipPath id="461b30998d"><path d="M 141.292969 374 L 156 374 L 156 383 L 141.292969 383 Z M 141.292969 374 " clip-rule="nonzero"/></clipPath><clipPath id="c8812d02f9"><path d="M 157.144531 404 L 265.332031 404 L 265.332031 449.863281 L 157.144531 449.863281 Z M 157.144531 404 " clip-rule="nonzero"/></clipPath><clipPath id="f5806fa555"><path d="M 403 313 L 430.792969 313 L 430.792969 346 L 403 346 Z M 403 313 " clip-rule="nonzero"/></clipPath></defs><rect x="-57.6" width="691.2" fill="#ffffff" y="-44.999998" height="539.99998" fill-opacity="1"/><rect x="-57.6" width="691.2" fill="#f9f9f9" y="-44.999998" height="539.99998" fill-opacity="1"/><path fill="#000d39" d="M 327.488281 363.1875 L 302.167969 363.1875 L 303.414062 374.019531 L 309.769531 374.019531 L 309.769531 369.214844 L 313.792969 374.019531 L 335.945312 374.019531 C 334.773438 366.347656 329.515625 363.871094 327.488281 363.1875 " fill-opacity="1" fill-rule="nonzero"/><path fill="#efefef" d="M 326.6875 362.964844 L 313.792969 300.636719 L 281.273438 300.636719 L 265.039062 374.019531 L 290.078125 372.257812 L 297.242188 320.332031 L 302.167969 363.1875 L 327.488281 363.1875 C 326.992188 363.023438 326.6875 362.964844 326.6875 362.964844 " fill-opacity="1" fill-rule="nonzero"/><path fill="#ff494b" d="M 295.636719 270.09375 L 284.480469 270.09375 C 277.496094 270.09375 271.234375 274.382812 268.714844 280.894531 L 263.882812 293.375 C 261.046875 300.707031 266.457031 308.601562 274.320312 308.601562 L 292.441406 307.894531 L 296.789062 301.191406 L 313.792969 300.636719 L 315.617188 290.015625 C 315.617188 290.015625 344.539062 284.054688 337.199219 254.804688 L 317.175781 254.804688 C 317.175781 254.804688 325.074219 270.09375 295.636719 270.09375 " fill-opacity="1" fill-rule="nonzero"/><g clip-path="url(#28f45822de)"><path fill="#ffc086" d="M 319.539062 255.367188 C 317.679688 255.367188 315.820312 255.363281 313.960938 255.359375 C 313.519531 255.355469 313.039062 255.332031 312.710938 254.871094 C 312.058594 253.957031 312.496094 252.230469 313.082031 251.21875 C 312.199219 251.042969 311.335938 250.625 310.539062 249.988281 C 310.296875 249.796875 310.050781 249.570312 309.902344 249.207031 C 309.597656 248.457031 309.851562 247.386719 310.300781 246.851562 C 310.753906 246.316406 311.335938 246.175781 311.894531 246.066406 C 318.960938 244.628906 326.128906 244.46875 333.222656 245.582031 C 334.039062 245.710938 334.886719 245.878906 335.570312 246.605469 C 337.105469 248.246094 337.09375 251.746094 337.386719 254.65625 C 337.425781 255.039062 337.542969 255.519531 337.789062 255.503906 C 338.03125 255.492188 337.832031 254.6875 337.722656 255.035156 L 319.539062 255.367188 " fill-opacity="1" fill-rule="nonzero"/></g><path fill="#000d39" d="M 296.949219 252.410156 C 295.226562 249.171875 290.816406 247.757812 287.5625 249.398438 C 286.265625 250.050781 285.132812 251.117188 283.710938 251.390625 C 281.066406 251.902344 278.601562 249.503906 275.914062 249.675781 C 273.238281 249.847656 271.039062 252.523438 268.378906 252.207031 C 266.234375 251.953125 264.527344 249.785156 262.375 249.984375 C 260.515625 250.15625 259.292969 252.003906 257.640625 252.882812 C 255.332031 254.113281 252.550781 253.328125 249.949219 253.210938 C 247.351562 253.09375 244.113281 254.378906 244.042969 257.019531 C 243.984375 259.414062 246.65625 260.933594 249.007812 261.117188 C 251.355469 261.304688 253.808594 260.746094 256.03125 261.53125 C 258.367188 262.351562 260.324219 264.59375 262.785156 264.34375 C 264.734375 264.144531 266.238281 262.390625 268.164062 262.023438 C 271.070312 261.472656 273.839844 264.207031 276.75 263.683594 C 278.484375 263.371094 279.851562 261.953125 281.554688 261.515625 C 283.6875 260.960938 285.980469 262.011719 288.113281 261.472656 C 289.007812 261.246094 289.816406 260.753906 290.675781 260.414062 C 292.4375 259.714844 294.417969 259.652344 296.082031 258.746094 C 297.742188 257.832031 298.921875 255.472656 297.707031 254.007812 L 296.949219 252.410156 " fill-opacity="1" fill-rule="nonzero"/><path fill="#000d39" d="M 311.09375 318.550781 L 281.074219 318.550781 L 288.367188 279.042969 L 318.382812 279.042969 L 311.09375 318.550781 " fill-opacity="1" fill-rule="nonzero"/><path fill="#efefef" d="M 307.878906 312.964844 L 286.351562 312.964844 L 291.578125 284.628906 L 313.105469 284.628906 L 307.878906 312.964844 " fill-opacity="1" fill-rule="nonzero"/><path fill="#000d39" d="M 306.316406 286.109375 L 296.65625 286.109375 L 297.382812 280.09375 L 307.042969 280.09375 L 306.316406 286.109375 " fill-opacity="1" fill-rule="nonzero"/><path fill="#ff494b" d="M 274.320312 308.601562 L 292.441406 308.601562 L 292.441406 291.167969 L 272.339844 291.167969 L 274.320312 308.601562 " fill-opacity="1" fill-rule="nonzero"/><path fill="#ffc086" d="M 292.457031 291.113281 C 294.746094 291.082031 297.03125 291.050781 299.316406 291.015625 C 300.5 291 301.964844 291.15625 302.410156 292.238281 C 302.730469 293.023438 302.28125 293.953125 301.589844 294.464844 C 300.898438 294.972656 300.023438 295.15625 299.179688 295.332031 C 301.390625 295.011719 303.867188 295.414062 306.09375 295.535156 C 307.335938 295.605469 308.144531 297.039062 307.796875 298.101562 C 307.527344 298.9375 306.453125 299.167969 305.566406 299.261719 C 304.148438 299.40625 302.730469 299.550781 301.308594 299.695312 C 302.5 299.496094 303.71875 299.464844 304.917969 299.59375 C 305.6875 299.675781 307.070312 299.375 307.648438 299.882812 C 308.226562 300.394531 308.933594 301.988281 307.582031 302.652344 C 307.007812 302.9375 306.296875 303.003906 305.652344 303.066406 C 304.25 303.195312 302.847656 303.324219 301.445312 303.453125 C 303.203125 303.3125 305.777344 303.355469 307.398438 304.035156 C 308.3125 304.421875 308.523438 305.511719 308.183594 306.429688 C 307.957031 307.046875 307.234375 307.320312 306.585938 307.464844 C 302.347656 308.433594 292.441406 308.601562 292.441406 308.601562 L 292.457031 291.113281 " fill-opacity="1" fill-rule="nonzero"/><path fill="#000d39" d="M 401.644531 330.726562 L 357.253906 330.507812 L 337.375 362.351562 L 390.152344 362.351562 L 401.644531 330.726562 " fill-opacity="1" fill-rule="nonzero"/><path fill="#79339c" d="M 357.253906 330.507812 L 363.910156 320.332031 C 356.457031 320.332031 350.414062 314.292969 350.414062 306.835938 L 350.414062 296.765625 L 368.5 296.765625 C 368.5 296.765625 367.753906 303.910156 372.183594 302.253906 C 375.878906 300.867188 373.484375 292.980469 392.300781 292.980469 L 403.289062 292.980469 C 413.160156 292.980469 419.820312 303.070312 415.941406 312.144531 L 408.429688 329.703125 C 406.550781 334.09375 402.238281 336.941406 397.464844 336.941406 L 379.429688 336.941406 L 379.429688 330.507812 L 357.253906 330.507812 " fill-opacity="1" fill-rule="nonzero"/><path fill="#006b85" d="M 337.375 362.351562 L 327.140625 378.746094 L 384.195312 378.746094 L 390.152344 362.351562 L 337.375 362.351562 " fill-opacity="1" fill-rule="nonzero"/><path fill="#ffc086" d="M 372.164062 319.796875 C 370.40625 319.859375 368.492188 320.039062 367.226562 321.425781 C 365.863281 322.921875 365.699219 325.328125 365.628906 327.507812 C 365.558594 329.808594 365.59375 332.121094 365.777344 334.421875 C 365.886719 335.746094 365.851562 337.609375 366.449219 338.804688 C 367.039062 339.984375 369.160156 340.320312 369.863281 338.855469 C 370.175781 338.207031 370.601562 337.257812 370.566406 336.511719 C 370.40625 338.136719 371.195312 340.058594 372.621094 340.019531 C 374.039062 339.984375 375.09375 338.160156 374.832031 336.546875 C 374.859375 338.695312 376.046875 340.492188 377.847656 339.960938 C 378.203125 339.859375 378.550781 339.671875 378.78125 339.34375 C 379.097656 338.890625 379.441406 338.261719 379.457031 337.675781 C 379.601562 331.988281 379.488281 319.808594 379.605469 319.730469 L 372.164062 319.796875 " fill-opacity="1" fill-rule="nonzero"/><path fill="#000d39" d="M 327.226562 422.652344 C 327.316406 427.34375 330.765625 430.789062 334.980469 432.355469 C 336.804688 433.035156 339.097656 433.648438 340.902344 432.574219 C 342.015625 431.910156 343.039062 430.378906 342.359375 429.078125 C 341.632812 427.691406 339.660156 427.925781 338.523438 428.625 C 336.882812 429.632812 336.34375 431.566406 336.167969 433.367188 C 335.714844 437.910156 337.03125 442.964844 341.332031 445.214844 C 341.796875 445.460938 342.210938 444.75 341.746094 444.507812 C 339.097656 443.121094 337.613281 440.554688 337.113281 437.660156 C 336.84375 436.09375 336.824219 434.40625 337.0625 432.835938 C 337.222656 431.796875 337.488281 430.742188 338.222656 429.933594 C 338.460938 429.734375 338.699219 429.53125 338.9375 429.332031 C 339.972656 428.585938 340.890625 428.925781 341.695312 430.355469 C 341.503906 432.507812 338.261719 432.410156 336.894531 432.097656 C 335.429688 431.761719 333.96875 431.136719 332.695312 430.339844 C 329.980469 428.640625 328.109375 425.914062 328.046875 422.652344 C 328.035156 422.125 327.214844 422.125 327.226562 422.652344 " fill-opacity="1" fill-rule="nonzero"/><path fill="#000d39" d="M 240.089844 281.664062 C 240.261719 279.347656 242.289062 274.296875 245.402344 276.128906 C 246.148438 276.570312 247.019531 277.5 246.894531 278.429688 C 246.8125 279.0625 246.296875 279.742188 245.578125 279.582031 C 243.730469 279.164062 244.933594 275.265625 245.445312 274.246094 C 246.402344 272.335938 248.066406 270.945312 250.09375 270.304688 C 250.59375 270.148438 250.382812 269.355469 249.875 269.515625 C 246.609375 270.546875 244.113281 273.472656 243.855469 276.9375 C 243.734375 278.558594 244.683594 281.648438 246.855469 280.050781 C 248.875 278.570312 247.046875 275.871094 245.296875 275.140625 C 241.695312 273.636719 239.472656 278.96875 239.269531 281.664062 C 239.226562 282.191406 240.046875 282.191406 240.089844 281.664062 " fill-opacity="1" fill-rule="nonzero"/><path fill="#00a142" d="M 412.460938 284.839844 C 415.1875 283.53125 418.621094 280.691406 418.96875 277.433594 C 419.171875 275.523438 417.300781 273.925781 415.5625 275.171875 C 413.355469 276.746094 415.429688 279.457031 417.007812 280.515625 C 419.546875 282.21875 422.964844 283.019531 425.539062 281.023438 C 426.097656 280.59375 425.316406 279.828125 424.765625 280.25 C 423.09375 281.546875 420.921875 281.214844 419.109375 280.417969 C 418.03125 279.941406 413.832031 277.058594 416.410156 275.953125 C 417.417969 275.519531 417.847656 276.40625 417.816406 277.25 C 417.777344 278.328125 417.109375 279.339844 416.484375 280.195312 C 415.300781 281.816406 413.710938 283.03125 411.910156 283.894531 C 411.273438 284.199219 411.828125 285.144531 412.460938 284.839844 " fill-opacity="1" fill-rule="nonzero"/><path fill="#00a142" d="M 338.941406 334.425781 C 336.492188 333.199219 335.128906 330.140625 335.851562 327.496094 C 336.042969 326.800781 336.726562 326.011719 337.339844 326.394531 C 337.578125 326.542969 337.691406 326.824219 337.78125 327.089844 C 338.597656 329.4375 338.941406 331.949219 338.785156 334.433594 L 338.941406 334.425781 " fill-opacity="1" fill-rule="nonzero"/><g clip-path="url(#d806acefda)"><path fill="#00a142" d="M 423.546875 377.414062 C 424.203125 374.882812 426.21875 372.746094 428.710938 371.949219 C 429.125 371.816406 429.628906 371.738281 429.953125 372.027344 C 430.5 372.523438 429.964844 373.40625 429.417969 373.898438 C 427.765625 375.386719 425.910156 376.644531 423.917969 377.632812 L 423.546875 377.414062 " fill-opacity="1" fill-rule="nonzero"/></g><g clip-path="url(#461b30998d)"><path fill="#000d39" d="M 142.035156 382.535156 C 144.773438 381.835938 147.320312 379.554688 147.699219 376.628906 C 147.871094 375.300781 146.828125 373.714844 145.328125 374.492188 C 143.382812 375.492188 145.402344 377.914062 146.378906 378.75 C 148.785156 380.804688 152.113281 381.382812 155.097656 380.425781 C 155.601562 380.261719 155.386719 379.46875 154.882812 379.632812 C 153.152344 380.1875 151.371094 380.226562 149.632812 379.65625 C 148.28125 379.210938 145.488281 377.765625 145.378906 376.082031 C 145.335938 375.429688 145.882812 374.851562 146.527344 375.273438 C 147.355469 375.816406 146.738281 377.253906 146.449219 377.917969 C 145.582031 379.878906 143.878906 381.21875 141.816406 381.746094 C 141.304688 381.875 141.523438 382.667969 142.035156 382.535156 " fill-opacity="1" fill-rule="nonzero"/></g><path fill="#00a142" d="M 160.46875 297.796875 C 158.882812 297.605469 157.296875 297.417969 155.714844 297.226562 C 154.839844 297.121094 153.941406 297.007812 153.175781 296.574219 C 152.417969 296.140625 151.8125 295.296875 151.933594 294.429688 C 152.683594 293.695312 153.929688 294.0625 154.878906 294.5 C 156.636719 295.308594 158.351562 296.21875 160.007812 297.21875 L 160.46875 297.796875 " fill-opacity="1" fill-rule="nonzero"/><path fill="#fdae72" d="M 331.789062 344.832031 C 328.246094 341.550781 324.410156 339.949219 320.140625 339.488281 C 323.46875 345.367188 325.863281 351.890625 328.960938 357.925781 C 334.34375 353.644531 336.425781 349.125 331.789062 344.832031 " fill-opacity="1" fill-rule="nonzero"/><path fill="#fdae72" d="M 406.878906 339.195312 C 403.394531 336.464844 399.394531 336.070312 395.214844 337.148438 C 395.660156 338.058594 396.085938 338.964844 396.582031 339.792969 C 398.042969 341.980469 399.863281 343.074219 401.324219 345.261719 C 404.042969 349.246094 406.402344 353.324219 408.933594 357.21875 C 412.199219 350.300781 412.695312 343.761719 406.878906 339.195312 " fill-opacity="1" fill-rule="nonzero"/><path fill="#fdae72" d="M 396.582031 339.792969 C 396.085938 338.964844 395.660156 338.058594 395.214844 337.148438 C 381.902344 340.585938 366.75 358.980469 360.546875 364.523438 C 352.398438 371.804688 341.277344 370.957031 341.277344 370.957031 C 340.320312 370.863281 339.359375 370.785156 338.40625 370.71875 C 338.714844 370.984375 339.027344 371.246094 339.347656 371.5 C 339.027344 371.246094 338.714844 370.984375 338.40625 370.71875 C 318.484375 369.277344 300.289062 372.683594 289.597656 375.382812 C 283.734375 377.214844 279.707031 378.28125 279.707031 378.28125 C 279.707031 378.28125 283.382812 376.949219 289.597656 375.382812 C 301.144531 371.773438 319.820312 365.195312 328.960938 357.925781 C 325.863281 351.890625 323.46875 345.367188 320.140625 339.488281 C 304.511719 337.800781 283.042969 351.425781 248.648438 354.339844 C 204.855469 358.058594 189.742188 387.175781 189.742188 387.175781 L 161.761719 447.964844 L 253.167969 448.277344 C 253.167969 448.277344 254.515625 445.253906 261.679688 433.574219 C 268.84375 421.898438 306.917969 418.183594 334.871094 414.613281 C 362.824219 411.035156 378.648438 396.253906 388.25 384.664062 C 393.902344 377.835938 404.257812 367.132812 408.933594 357.21875 C 406.402344 353.324219 404.042969 349.246094 401.324219 345.261719 C 399.863281 343.074219 398.042969 341.980469 396.582031 339.792969 " fill-opacity="1" fill-rule="nonzero"/><g clip-path="url(#c8812d02f9)"><path fill="#000d39" d="M 157.519531 449.863281 L 265.078125 449.863281 L 265.078125 447.472656 C 234.414062 435.710938 205.945312 419.839844 177.441406 404.320312 L 157.519531 449.863281 " fill-opacity="1" fill-rule="nonzero"/></g><path fill="#efefef" d="M 182.128906 393.601562 L 177.441406 404.320312 C 205.945312 419.839844 234.414062 435.710938 265.078125 447.472656 L 267.996094 438.457031 C 250.066406 433.046875 182.128906 393.601562 182.128906 393.601562 " fill-opacity="1" fill-rule="nonzero"/><path fill="#efefef" d="M 190.191406 421.714844 C 190.191406 424.316406 188.078125 426.429688 185.472656 426.429688 C 182.867188 426.429688 180.753906 424.316406 180.753906 421.714844 C 180.753906 419.109375 182.867188 417 185.472656 417 C 188.078125 417 190.191406 419.109375 190.191406 421.714844 " fill-opacity="1" fill-rule="nonzero"/><path fill="#efefef" d="M 182.664062 437.996094 C 182.664062 440.601562 180.554688 442.710938 177.949219 442.710938 C 175.34375 442.710938 173.230469 440.601562 173.230469 437.996094 C 173.230469 435.390625 175.34375 433.28125 177.949219 433.28125 C 180.554688 433.28125 182.664062 435.390625 182.664062 437.996094 " fill-opacity="1" fill-rule="nonzero"/><path fill="#00a142" d="M 175.730469 406.742188 C 171.515625 407.433594 167.136719 407.128906 163.058594 405.859375 C 161.625 405.414062 159.917969 404.175781 160.53125 402.808594 C 160.863281 402.0625 161.761719 401.757812 162.570312 401.6875 C 164.734375 401.507812 166.816406 402.4375 168.785156 403.34375 C 171.34375 404.519531 173.902344 405.699219 176.457031 406.875 C 174.578125 404.578125 173.308594 401.789062 172.816406 398.867188 C 172.617188 397.691406 172.5625 396.410156 173.15625 395.382812 C 173.757812 394.347656 175.222656 393.753906 176.195312 394.441406 C 177.035156 398.453125 177.171875 402.609375 176.605469 406.667969 L 175.730469 406.742188 " fill-opacity="1" fill-rule="nonzero"/><g clip-path="url(#f5806fa555)"><path fill="#00a142" d="M 403.402344 337.078125 C 405.746094 329.625 410.011719 322.785156 415.675781 317.40625 C 417.523438 315.648438 419.746094 313.960938 422.296875 313.984375 C 422.652344 313.988281 423.03125 314.035156 423.292969 314.273438 C 423.652344 314.597656 423.671875 315.148438 423.617188 315.628906 C 423.371094 317.894531 422.210938 319.953125 420.984375 321.871094 C 417.632812 327.117188 413.585938 331.914062 408.984375 336.105469 C 414.804688 332.785156 421.429688 330.894531 428.128906 330.648438 C 429.265625 330.605469 430.796875 330.96875 430.792969 332.109375 C 430.792969 332.6875 430.347656 333.15625 429.914062 333.539062 C 424.734375 338.101562 417.507812 339.34375 410.6875 340.398438 C 416.09375 339.789062 421.820312 339.234375 426.761719 341.515625 C 427.824219 342.007812 428.980469 342.910156 428.800781 344.070312 C 428.589844 345.441406 426.804688 345.808594 425.414062 345.824219 C 420.882812 345.878906 416.351562 345.699219 411.839844 345.289062 L 403.402344 337.078125 " fill-opacity="1" fill-rule="nonzero"/></g><path fill="#00a142" d="M 349.933594 309.023438 C 345.273438 310.851562 340.035156 309.644531 335.183594 308.417969 C 334.324219 308.203125 333.355469 307.902344 333.089844 306.992188 C 332.871094 306.242188 333.269531 305.464844 333.921875 305.035156 C 334.933594 304.371094 336.171875 304.53125 337.316406 304.753906 C 340.097656 305.292969 342.824219 306.152344 345.421875 307.296875 C 343.070312 306.945312 341.171875 305.074219 340.15625 302.929688 C 339.550781 301.65625 339.207031 300.292969 338.972656 298.902344 C 338.6875 297.167969 340.636719 295.910156 342.039062 296.964844 C 343.078125 297.75 343.976562 298.875 344.695312 299.957031 C 346.710938 303.003906 348.472656 306.222656 349.949219 309.5625 L 349.933594 309.023438 " fill-opacity="1" fill-rule="nonzero"/><path fill="#00a142" d="M 176.253906 351.851562 C 174.222656 356.410156 169.6875 359.277344 165.410156 361.863281 C 164.652344 362.320312 163.757812 362.796875 162.945312 362.355469 C 162.269531 361.992188 162.015625 361.179688 162.179688 360.417969 C 162.4375 359.242188 163.421875 358.476562 164.382812 357.824219 C 166.730469 356.226562 169.246094 354.894531 171.875 353.851562 C 169.972656 355.269531 167.332031 355.316406 165.132812 354.554688 C 163.828125 354.105469 162.640625 353.40625 161.515625 352.609375 C 160.117188 351.617188 160.628906 349.371094 162.347656 349.109375 C 163.621094 348.917969 165.039062 349.054688 166.289062 349.296875 C 169.820312 349.972656 173.285156 350.949219 176.640625 352.210938 L 176.253906 351.851562 " fill-opacity="1" fill-rule="nonzero"/><path fill="#00a142" d="M 380.507812 392.433594 C 382.175781 394.363281 383.867188 396.269531 385.582031 398.160156 C 387.5 400.277344 389.957031 402.558594 392.777344 402.089844 C 393.007812 400.859375 392.007812 399.761719 391.050781 398.945312 C 388.164062 396.492188 384.902344 394.476562 381.410156 392.996094 C 386.707031 393.824219 392.59375 394.527344 397.019531 391.507812 C 397.296875 391.316406 397.585938 391.082031 397.640625 390.75 C 397.710938 390.339844 397.382812 389.96875 397.054688 389.710938 C 395.613281 388.585938 393.6875 388.316406 391.859375 388.273438 C 387.671875 388.183594 383.460938 389.121094 379.710938 390.984375 C 380.421875 392.234375 381.265625 393.410156 382.222656 394.480469 L 380.507812 392.433594 " fill-opacity="1" fill-rule="nonzero"/><path fill="#000d39" d="M 183.40625 385.585938 L 183.433594 385.707031 C 176.003906 387.210938 175.53125 393.566406 175.53125 393.566406 L 209.519531 393.566406 L 207.722656 385.585938 L 183.40625 385.585938 " fill-opacity="1" fill-rule="nonzero"/><path fill="#006b85" d="M 202.445312 362.15625 C 201.789062 359.230469 203.695312 356.34375 206.644531 355.804688 L 214.632812 354.335938 C 218.636719 353.601562 221.542969 350.113281 221.542969 346.046875 C 221.542969 341.386719 217.765625 337.613281 213.109375 337.613281 L 190.832031 337.613281 C 181.449219 337.613281 174.496094 346.320312 176.570312 355.46875 L 183.40625 385.585938 L 207.722656 385.585938 L 202.445312 362.15625 " fill-opacity="1" fill-rule="nonzero"/><path fill="#000d39" d="M 201.933594 391.011719 L 201.964844 391.171875 C 193.949219 393.109375 193.4375 401.289062 193.4375 401.289062 L 221.542969 401.289062 L 223.9375 397.117188 L 224.996094 401.289062 L 230.105469 401.289062 L 228.164062 391.011719 L 201.933594 391.011719 " fill-opacity="1" fill-rule="nonzero"/><path fill="#006b85" d="M 228.164062 391.011719 L 220.316406 365.304688 C 219.371094 362.214844 221.449219 359.023438 224.660156 358.632812 L 241.617188 356.773438 C 245.933594 355.980469 249.070312 352.21875 249.070312 347.828125 C 249.070312 342.808594 244.996094 338.734375 239.972656 338.734375 L 209.945312 339.265625 C 199.824219 339.265625 192.320312 348.660156 194.5625 358.527344 L 201.933594 391.011719 L 228.164062 391.011719 " fill-opacity="1" fill-rule="nonzero"/><path fill="#ffc086" d="M 190.710938 290.222656 L 190.511719 289.828125 C 190.320312 289.140625 190.101562 288.460938 189.871094 287.789062 C 189.828125 287.636719 189.804688 287.546875 189.804688 287.546875 C 189.800781 287.550781 189.792969 287.550781 189.785156 287.554688 C 189.273438 286.09375 188.675781 284.660156 187.984375 283.277344 C 187.441406 282.191406 186.738281 281.042969 185.585938 280.683594 C 184.4375 280.324219 182.917969 281.382812 183.316406 282.535156 C 183.316406 282.535156 181.960938 277.210938 180.101562 275.0625 C 179.804688 274.714844 178.863281 274.265625 178.414062 274.234375 C 177.871094 274.199219 177.402344 274.675781 177.253906 275.203125 C 177.101562 275.730469 177.199219 276.296875 177.3125 276.832031 C 177.675781 278.585938 178.664062 281.363281 179.304688 283.03125 C 178.59375 282.34375 176.914062 281.363281 176.117188 281.949219 C 175.324219 282.535156 174.90625 283.933594 175.324219 284.835938 C 174.371094 283.910156 173.398438 283.175781 172.191406 283.710938 C 170.710938 284.367188 170.691406 285.898438 171.140625 287.472656 C 171.632812 289.21875 172.128906 290.964844 172.625 292.710938 C 172.679688 292.90625 172.738281 293.101562 172.792969 293.296875 C 172.75 293.3125 172.699219 293.328125 172.652344 293.34375 C 173.171875 294.464844 173.621094 295.609375 174.046875 296.765625 C 179.558594 294.785156 185.3125 293.109375 190.910156 291.09375 C 190.882812 290.796875 190.820312 290.507812 190.710938 290.222656 " fill-opacity="1" fill-rule="nonzero"/><path fill="#ffb500" d="M 254.664062 321.054688 L 251.886719 308.195312 C 250.15625 300.175781 243.378906 294.519531 235.613281 294.605469 L 217.644531 294.84375 C 214.320312 294.878906 210.488281 295.164062 207.558594 297.617188 C 206.308594 298.289062 205.050781 299.714844 203.902344 300.933594 C 202.613281 302.304688 200.585938 302.734375 198.871094 301.949219 C 197.253906 301.207031 195.835938 299.746094 194.5625 298.402344 C 193.0625 296.820312 191.777344 293.714844 190.925781 291.230469 C 190.921875 291.183594 190.914062 291.140625 190.910156 291.09375 C 185.3125 293.109375 179.558594 294.785156 174.046875 296.765625 C 175.117188 299.695312 175.992188 302.699219 177.1875 305.578125 C 178.855469 309.597656 181.296875 313.515625 185.066406 315.6875 C 188.433594 317.628906 192.417969 317.953125 196.34375 317.894531 L 194.472656 339.460938 L 240.804688 339.460938 C 249.9375 339.460938 256.699219 330.480469 254.664062 321.054688 " fill-opacity="1" fill-rule="nonzero"/><path fill="#ffc086" d="M 232.164062 339.644531 C 231.230469 336.769531 229.992188 333.992188 228.476562 331.378906 C 226.753906 328.394531 224.417969 325.445312 221.097656 324.527344 C 218.632812 323.84375 215.945312 324.414062 213.667969 325.582031 C 211.386719 326.746094 209.441406 328.46875 207.558594 330.203125 C 206.605469 331.082031 205.609375 332.046875 205.5625 333.441406 C 205.539062 334.089844 205.820312 334.730469 206.363281 335.085938 C 207.273438 335.6875 208.257812 335.179688 209.097656 334.695312 C 211.289062 333.421875 213.480469 332.148438 215.671875 330.878906 C 213.011719 332.257812 210.496094 333.921875 208.183594 335.832031 C 207.914062 336.054688 207.617188 336.359375 207.707031 336.699219 C 207.773438 336.957031 208.035156 337.113281 208.261719 337.226562 C 209.554688 337.878906 211.058594 337.984375 212.433594 337.535156 C 215.230469 336.617188 217.867188 335.210938 220.191406 333.40625 C 218.335938 334.652344 216.550781 336 214.847656 337.445312 C 214.113281 338.070312 214.453125 339.285156 215.40625 339.414062 C 217.152344 339.652344 219.046875 339.296875 220.835938 339.101562 C 224.761719 338.679688 228.71875 339.132812 232.636719 339.578125 L 232.164062 339.644531 " fill-opacity="1" fill-rule="nonzero"/><path fill="#000d39" d="M 212.203125 336.59375 L 200.878906 312.699219 L 157.578125 312.699219 L 170.496094 339.960938 L 170.578125 339.960938 L 170.578125 340.019531 L 229.300781 340.019531 L 229.300781 336.59375 L 212.203125 336.59375 " fill-opacity="1" fill-rule="nonzero"/><path fill="#00a142" d="M 243.816406 356.28125 C 242.671875 351.808594 242.289062 347.136719 242.6875 342.535156 C 242.996094 339.007812 243.757812 335.53125 244.640625 332.101562 C 245.234375 329.796875 245.914062 327.4375 247.390625 325.570312 C 248.011719 324.78125 248.808594 324.097656 249.699219 323.617188 C 251.554688 322.609375 253.820312 323.902344 253.890625 326.011719 C 254.054688 330.957031 252.992188 335.929688 251.304688 340.597656 C 249.269531 346.210938 246.34375 351.453125 243.429688 356.667969 C 247.800781 348.839844 254.027344 342.054688 261.453125 337.03125 C 262.777344 336.132812 264.253906 335.257812 265.898438 335.554688 C 266.859375 335.726562 267.707031 336.378906 267.941406 337.328125 C 268.226562 338.503906 267.433594 339.410156 266.679688 340.191406 C 262.058594 344.980469 256.972656 349.320312 251.511719 353.121094 C 254.773438 351.386719 258.296875 350.15625 261.925781 349.476562 C 262.695312 349.335938 263.609375 349.257812 264.097656 349.925781 C 264.5 350.472656 264.371094 351.226562 263.921875 351.738281 C 263.234375 352.523438 262.171875 352.660156 261.179688 352.773438 C 255.222656 353.472656 249.304688 354.527344 243.476562 355.9375 C 243.226562 355.996094 242.90625 356.023438 242.785156 355.804688 C 242.664062 355.582031 243.183594 355.417969 243.113281 355.660156 L 243.816406 356.28125 " fill-opacity="1" fill-rule="nonzero"/><path fill="#000d39" d="M 217.910156 282.144531 C 216.515625 281.765625 214.816406 281.015625 214.875 279.625 C 214.917969 278.585938 216.011719 277.785156 216.035156 276.746094 C 216.0625 275.644531 214.9375 274.898438 214.003906 274.253906 C 213.074219 273.609375 212.128906 272.511719 212.644531 271.527344 C 213.097656 270.648438 214.488281 270.453125 214.820312 269.523438 C 215.078125 268.800781 214.550781 268.039062 214.5625 267.269531 C 214.574219 266.289062 215.652344 265.457031 216.652344 265.652344 C 217.808594 265.875 218.894531 267.171875 219.890625 266.574219 C 220.363281 266.285156 220.503906 265.683594 220.863281 265.273438 C 221.285156 264.785156 222.046875 264.597656 222.660156 264.828125 C 223.277344 265.054688 223.703125 265.683594 223.675781 266.316406 C 223.648438 266.9375 223.332031 267.773438 223.921875 268.03125 C 224.101562 268.113281 224.316406 268.089844 224.511719 268.066406 C 225.253906 267.980469 226.019531 267.898438 226.746094 268.085938 C 227.46875 268.273438 228.148438 268.789062 228.28125 269.496094 C 228.535156 270.820312 226.859375 272.164062 227.542969 273.34375 C 228.097656 274.300781 229.882812 274.335938 230.054688 275.417969 C 230.226562 276.546875 228.367188 277.074219 228.191406 278.203125 C 228.074219 278.96875 228.796875 279.6875 228.679688 280.453125 C 228.554688 281.246094 227.617188 281.660156 226.792969 281.773438 C 225.960938 281.886719 225.054688 281.875 224.394531 282.363281 C 223.683594 282.894531 223.5 283.832031 223.007812 284.554688 C 222.515625 285.277344 221.25 285.695312 220.804688 284.945312 C 220.539062 284.503906 220.761719 283.929688 220.601562 283.445312 C 220.277344 282.472656 218.839844 282.511719 217.804688 282.75 L 217.910156 282.144531 " fill-opacity="1" fill-rule="nonzero"/><path fill="#000d39" d="M 395.242188 279.429688 C 397.074219 275.355469 399.371094 271.492188 402.074219 267.933594 C 403.46875 266.101562 405.011719 264.316406 407.011719 263.183594 C 408.09375 262.570312 409.335938 262.15625 410.574219 262.285156 C 411.8125 262.421875 413.027344 263.183594 413.449219 264.351562 C 413.832031 265.402344 413.527344 266.605469 412.910156 267.539062 C 412.296875 268.476562 411.402344 269.183594 410.507812 269.859375 C 405.507812 273.628906 400.007812 276.734375 394.203125 279.078125 L 395.242188 279.429688 " fill-opacity="1" fill-rule="nonzero"/><path fill="#000d39" d="M 397.003906 277.757812 C 398.894531 280.492188 397.929688 284.429688 394.855469 286.554688 C 391.777344 288.679688 387.753906 288.183594 385.863281 285.445312 C 383.976562 282.710938 384.9375 278.769531 388.011719 276.648438 C 391.085938 274.523438 395.113281 275.019531 397.003906 277.757812 " fill-opacity="1" fill-rule="nonzero"/><path fill="#ffc086" d="M 232.109375 296.09375 L 225.957031 284.132812 C 226.128906 284.183594 226.304688 284.21875 226.492188 284.21875 C 227.546875 284.21875 228.398438 283.363281 228.398438 282.3125 C 228.398438 281.261719 227.546875 280.40625 226.492188 280.40625 C 225.660156 280.40625 224.960938 280.945312 224.703125 281.6875 L 223.253906 278.875 C 222.804688 278 221.789062 277.570312 220.851562 277.871094 C 218.257812 278.695312 213.613281 281.183594 213.871094 288.394531 C 213.894531 289.082031 214.539062 289.582031 215.207031 289.421875 L 218.617188 288.609375 L 219.699219 299.558594 C 219.851562 301.101562 220.949219 302.394531 222.449219 302.765625 C 225.257812 303.464844 229.722656 303.738281 232.085938 299.503906 C 232.675781 298.449219 232.660156 297.164062 232.109375 296.09375 " fill-opacity="1" fill-rule="nonzero"/><path fill="#ffc086" d="M 401.527344 292.023438 L 392.464844 282.089844 C 392.640625 282.09375 392.824219 282.082031 393.003906 282.03125 C 394.019531 281.757812 394.621094 280.710938 394.34375 279.695312 C 394.070312 278.679688 393.023438 278.078125 392.007812 278.355469 C 391.203125 278.570312 390.667969 279.273438 390.613281 280.058594 L 388.480469 277.722656 C 387.816406 276.992188 386.726562 276.847656 385.898438 277.378906 C 383.613281 278.851562 379.777344 282.464844 381.910156 289.359375 C 382.113281 290.019531 382.867188 290.332031 383.472656 290 L 386.550781 288.328125 L 390.453125 298.617188 C 391.003906 300.0625 392.402344 301.023438 393.949219 300.992188 C 396.84375 300.933594 401.222656 300.027344 402.398438 295.324219 C 402.691406 294.152344 402.339844 292.917969 401.527344 292.023438 " fill-opacity="1" fill-rule="nonzero"/><path fill="#ffc086" d="M 288.425781 269.125 L 293.324219 256.601562 C 293.160156 256.667969 292.988281 256.71875 292.800781 256.742188 C 291.753906 256.847656 290.820312 256.085938 290.710938 255.039062 C 290.605469 253.992188 291.367188 253.054688 292.414062 252.949219 C 293.242188 252.863281 293.992188 253.328125 294.328125 254.039062 L 295.480469 251.097656 C 295.839844 250.179688 296.804688 249.648438 297.765625 249.851562 C 300.429688 250.40625 305.304688 252.40625 305.785156 259.609375 C 305.828125 260.296875 305.242188 260.855469 304.558594 260.765625 L 301.082031 260.308594 L 301.121094 271.3125 C 301.128906 272.859375 300.171875 274.253906 298.710938 274.777344 C 295.988281 275.761719 291.578125 276.484375 288.792969 272.515625 C 288.101562 271.527344 287.984375 270.246094 288.425781 269.125 " fill-opacity="1" fill-rule="nonzero"/><path fill="#efefef" d="M 373.238281 293.28125 C 370.914062 293.28125 369.027344 291.398438 369.027344 289.078125 L 369.027344 282.917969 L 377.441406 282.917969 L 377.441406 289.078125 C 377.441406 291.398438 375.558594 293.28125 373.238281 293.28125 " fill-opacity="1" fill-rule="nonzero"/><path fill="#000d39" d="M 372.613281 279.144531 C 371.691406 278.128906 371.070312 276.894531 371.097656 275.488281 C 371.113281 274.660156 371.640625 273.824219 371.597656 273.019531 C 371.515625 271.628906 369.691406 270.75 369.105469 269.613281 C 368.089844 267.640625 370.433594 267.175781 371.082031 265.714844 C 371.449219 264.898438 371.539062 263.285156 372.308594 262.746094 C 373.71875 261.761719 374.582031 264.082031 374.425781 265.101562 C 374.3125 265.863281 373.949219 266.59375 373.644531 267.292969 C 373.269531 268.15625 372.742188 269.089844 372.726562 270.050781 C 372.71875 270.539062 372.839844 270.925781 373.066406 271.355469 C 373.742188 272.628906 374.253906 273.40625 373.40625 274.832031 C 372.492188 276.375 372.023438 277.5 372.144531 279.339844 C 372.167969 279.6875 372.714844 279.6875 372.691406 279.339844 C 372.570312 277.535156 373.171875 276.367188 374.023438 274.886719 C 374.398438 274.234375 374.703125 273.511719 374.511719 272.75 C 374.1875 271.460938 373.007812 270.839844 373.417969 269.3125 C 373.65625 268.421875 374.128906 267.597656 374.472656 266.746094 C 374.945312 265.566406 375.382812 264.15625 374.582031 263.015625 C 374.058594 262.273438 373.019531 261.617188 372.152344 262.160156 C 371.261719 262.71875 371.058594 264.207031 370.734375 265.09375 C 370.183594 266.589844 368.207031 266.699219 368.226562 268.511719 C 368.234375 269.210938 368.566406 269.816406 368.960938 270.367188 C 369.320312 270.863281 369.800781 271.246094 370.179688 271.722656 C 371.085938 272.855469 370.9375 273.265625 370.6875 274.378906 C 370.253906 276.300781 370.929688 278.105469 372.226562 279.53125 C 372.460938 279.789062 372.847656 279.402344 372.613281 279.144531 " fill-opacity="1" fill-rule="nonzero"/><path fill="#ffc086" d="M 350.160156 297.03125 C 350.066406 293.714844 350.105469 290.394531 350.28125 287.082031 C 350.3125 286.464844 350.355469 285.195312 350.628906 284.628906 C 351.453125 282.941406 353.90625 282.785156 356.007812 282.597656 C 359.777344 282.253906 363.574219 282.433594 367.363281 282.492188 C 368.273438 282.503906 369.210938 282.535156 370.039062 282.851562 C 370.875 283.171875 371.589844 283.847656 371.601562 284.636719 C 371.628906 286.066406 369.644531 286.765625 368.035156 287.078125 C 367.054688 287.269531 366.074219 287.460938 365.089844 287.652344 C 367.160156 287.410156 369.425781 287.203125 371.210938 288.148438 C 372.003906 288.570312 372.683594 289.359375 372.425781 290.132812 C 372.160156 290.929688 371.089844 291.257812 370.167969 291.472656 C 368.960938 291.75 367.753906 292.03125 366.550781 292.308594 C 368.683594 292.179688 370.390625 291.832031 371.847656 293.191406 C 372.09375 293.421875 372.308594 293.695312 372.375 294.003906 C 372.46875 294.445312 372.253906 294.898438 371.929688 295.253906 C 370.8125 296.476562 369.488281 296.898438 367.6875 296.894531 C 361.867188 296.882812 356.046875 296.871094 350.226562 296.859375 L 350.160156 297.03125 " fill-opacity="1" fill-rule="nonzero"/><path fill="#efefef" d="M 184.628906 325.328125 C 184.628906 326.382812 183.773438 327.234375 182.722656 327.234375 C 181.667969 327.234375 180.8125 326.382812 180.8125 325.328125 C 180.8125 324.273438 181.667969 323.417969 182.722656 323.417969 C 183.773438 323.417969 184.628906 324.273438 184.628906 325.328125 " fill-opacity="1" fill-rule="nonzero"/><path fill="#000d39" d="M 294.722656 350.714844 C 295.964844 353.570312 297.277344 356.390625 298.667969 359.175781 C 298.902344 359.648438 299.609375 359.234375 299.375 358.761719 C 297.984375 355.976562 296.671875 353.15625 295.433594 350.300781 C 295.222656 349.816406 294.515625 350.234375 294.722656 350.714844 " fill-opacity="1" fill-rule="nonzero"/><path fill="#000d39" d="M 298.949219 348.800781 C 300.8125 352.027344 302.671875 355.253906 304.53125 358.480469 C 304.796875 358.9375 305.503906 358.527344 305.242188 358.066406 C 303.378906 354.839844 301.519531 351.613281 299.660156 348.386719 C 299.394531 347.929688 298.6875 348.34375 298.949219 348.800781 " fill-opacity="1" fill-rule="nonzero"/><path fill="#000d39" d="M 362.824219 388.734375 C 365.328125 392.703125 368.019531 396.535156 370.894531 400.242188 C 371.214844 400.660156 371.792969 400.074219 371.472656 399.660156 C 368.640625 396.007812 365.996094 392.226562 363.53125 388.324219 C 363.246094 387.878906 362.539062 388.289062 362.824219 388.734375 " fill-opacity="1" fill-rule="nonzero"/><path fill="#000d39" d="M 368.316406 385.578125 C 370.765625 389.195312 373.214844 392.816406 375.664062 396.4375 C 375.960938 396.871094 376.667969 396.464844 376.375 396.023438 C 373.921875 392.402344 371.472656 388.785156 369.023438 385.164062 C 368.730469 384.730469 368.019531 385.140625 368.316406 385.578125 " fill-opacity="1" fill-rule="nonzero"/><path fill="#000d39" d="M 395.253906 337.488281 C 399.472656 344.671875 404.070312 351.621094 408.738281 358.519531 C 409.035156 358.957031 409.742188 358.542969 409.445312 358.105469 C 404.777344 351.207031 400.183594 344.261719 395.964844 337.074219 C 395.699219 336.621094 394.988281 337.035156 395.253906 337.488281 " fill-opacity="1" fill-rule="nonzero"/><path fill="#000d39" d="M 319.460938 340.59375 C 322.480469 346.34375 325.503906 352.09375 328.527344 357.84375 C 328.773438 358.3125 329.480469 357.898438 329.234375 357.429688 C 326.210938 351.679688 323.191406 345.929688 320.167969 340.183594 C 319.921875 339.714844 319.214844 340.128906 319.460938 340.59375 " fill-opacity="1" fill-rule="nonzero"/><path fill="#000d39" d="M 295.96875 372.132812 C 287.277344 373.167969 278.886719 375.679688 271.058594 379.605469 C 270.429688 379.921875 270.984375 380.863281 271.613281 380.550781 C 279.253906 376.714844 287.476562 374.234375 295.96875 373.226562 C 296.660156 373.144531 296.667969 372.050781 295.96875 372.132812 " fill-opacity="1" fill-rule="nonzero"/><path fill="#000d39" d="M 379.804688 320.117188 C 383.300781 320.5625 387.386719 320.976562 390.515625 318.976562 C 393.902344 316.816406 395 311.917969 396.421875 308.425781 C 396.621094 307.9375 395.828125 307.726562 395.628906 308.210938 C 394.234375 311.636719 393.164062 316.625 389.671875 318.527344 C 386.710938 320.132812 383.011719 319.707031 379.804688 319.296875 C 379.285156 319.230469 379.289062 320.054688 379.804688 320.117188 " fill-opacity="1" fill-rule="nonzero"/><path fill="#000d39" d="M 363.402344 320.542969 C 366.582031 314.640625 369.546875 308.519531 373.589844 303.148438 C 373.90625 302.726562 373.195312 302.316406 372.882812 302.734375 C 368.835938 308.105469 365.875 314.226562 362.695312 320.128906 C 362.441406 320.59375 363.152344 321.007812 363.402344 320.542969 " fill-opacity="1" fill-rule="nonzero"/><path fill="#000d39" d="M 222.242188 325.328125 C 225.195312 325.261719 228.148438 325.175781 231.097656 325.023438 C 232.6875 324.941406 234.304688 324.773438 235.050781 323.164062 C 235.800781 321.542969 235.238281 319.582031 234.808594 317.964844 C 234.054688 315.085938 233.273438 312.210938 232.503906 309.335938 C 232.371094 308.824219 231.578125 309.042969 231.714844 309.554688 C 232.246094 311.542969 232.777344 313.535156 233.308594 315.523438 C 233.796875 317.34375 234.582031 319.3125 234.578125 321.214844 C 234.578125 322.914062 233.761719 323.792969 232.058594 324.148438 C 231.09375 324.351562 229.960938 324.257812 228.976562 324.296875 C 226.730469 324.390625 224.488281 324.457031 222.242188 324.507812 C 221.714844 324.519531 221.714844 325.339844 222.242188 325.328125 " fill-opacity="1" fill-rule="nonzero"/><path fill="#000d39" d="M 208.9375 328.101562 C 208.410156 321.40625 207.882812 314.707031 207.355469 308.011719 C 207.3125 307.488281 206.492188 307.484375 206.535156 308.011719 C 207.0625 314.707031 207.589844 321.40625 208.117188 328.101562 C 208.160156 328.625 208.980469 328.628906 208.9375 328.101562 " fill-opacity="1" fill-rule="nonzero"/><path fill="#000d39" d="M 209.742188 333.550781 C 212.386719 332.074219 215.109375 330.78125 217.925781 329.671875 C 218.410156 329.484375 218.199219 328.691406 217.707031 328.882812 C 214.824219 330.015625 212.03125 331.332031 209.328125 332.84375 C 208.867188 333.101562 209.28125 333.808594 209.742188 333.550781 " fill-opacity="1" fill-rule="nonzero"/><path fill="#000d39" d="M 174.320312 284.898438 C 174.964844 286.484375 175.625 288.066406 176.253906 289.660156 C 176.554688 290.421875 176.972656 291.289062 176.980469 292.121094 C 176.992188 294.746094 174.015625 294.125 173.601562 292.074219 C 173.496094 291.558594 172.707031 291.773438 172.8125 292.292969 C 173.042969 293.445312 173.742188 294.414062 174.921875 294.738281 C 175.75 294.96875 177.136719 294.8125 177.636719 294 C 178.203125 293.082031 177.742188 291.394531 177.441406 290.460938 C 176.800781 288.5 175.886719 286.589844 175.109375 284.679688 C 174.914062 284.195312 174.121094 284.410156 174.320312 284.898438 " fill-opacity="1" fill-rule="nonzero"/><path fill="#000d39" d="M 178.675781 283.734375 C 179.203125 285.324219 179.734375 286.914062 180.265625 288.503906 C 180.453125 289.082031 180.996094 290.019531 180.953125 290.621094 C 180.753906 293.371094 178.46875 291.773438 177.496094 291.035156 C 177.074219 290.71875 176.664062 291.425781 177.082031 291.742188 C 178.292969 292.664062 180.855469 293.90625 181.714844 291.785156 C 182.121094 290.769531 181.472656 289.546875 181.160156 288.605469 C 180.59375 286.910156 180.03125 285.214844 179.46875 283.515625 C 179.300781 283.019531 178.507812 283.230469 178.675781 283.734375 " fill-opacity="1" fill-rule="nonzero"/><path fill="#000d39" d="M 183.070312 281.847656 C 181.671875 283.148438 179.621094 285.8125 180.191406 287.902344 C 180.746094 289.953125 183.460938 289.019531 184.507812 288.023438 C 184.316406 287.828125 184.121094 287.636719 183.929688 287.441406 C 183.109375 288.289062 182.4375 289.214844 181.964844 290.300781 C 181.734375 290.828125 181.554688 291.371094 181.429688 291.933594 C 181.34375 292.308594 181.34375 293.617188 181.113281 293.816406 C 181.308594 293.816406 181.5 293.816406 181.691406 293.816406 C 181.714844 293.882812 181.738281 293.949219 181.757812 294.015625 C 181.589844 294.109375 181.425781 294.207031 181.253906 294.300781 C 181.277344 294.308594 181.300781 294.316406 181.324219 294.324219 C 181.828125 294.492188 182.042969 293.699219 181.542969 293.535156 C 181.519531 293.527344 181.496094 293.519531 181.472656 293.507812 C 181.253906 293.4375 181.035156 293.59375 180.96875 293.796875 C 180.953125 293.839844 180.941406 293.878906 180.925781 293.921875 C 180.882812 294.054688 180.929688 294.226562 181.035156 294.320312 C 181.058594 294.347656 181.085938 294.371094 181.113281 294.398438 C 181.28125 294.558594 181.519531 294.546875 181.691406 294.398438 C 182.261719 293.90625 182.074219 292.792969 182.21875 292.152344 C 182.574219 290.5625 183.382812 289.191406 184.507812 288.023438 C 184.871094 287.640625 184.308594 287.074219 183.929688 287.441406 C 183.039062 288.289062 180.929688 288.683594 181.097656 286.558594 C 181.136719 286.066406 181.542969 285.25 181.726562 284.890625 C 182.210938 283.949219 182.878906 283.148438 183.648438 282.429688 C 184.035156 282.066406 183.457031 281.488281 183.070312 281.847656 " fill-opacity="1" fill-rule="nonzero"/><path fill="#000d39" d="M 183.675781 287.902344 C 183.121094 286.785156 182.65625 285.632812 182.273438 284.441406 C 182.109375 283.945312 181.316406 284.15625 181.480469 284.660156 C 181.886719 285.917969 182.382812 287.132812 182.96875 288.316406 C 183.203125 288.789062 183.914062 288.371094 183.675781 287.902344 " fill-opacity="1" fill-rule="nonzero"/><path fill="#000d39" d="M 173.722656 292.414062 C 174.753906 291.976562 175.789062 291.535156 176.824219 291.09375 C 177.660156 290.738281 179.804688 289.457031 180.683594 289.742188 C 181.1875 289.90625 181.402344 289.117188 180.902344 288.953125 C 179.910156 288.628906 178.847656 289.347656 177.957031 289.726562 C 176.40625 290.386719 174.859375 291.046875 173.308594 291.707031 C 172.824219 291.914062 173.242188 292.621094 173.722656 292.414062 " fill-opacity="1" fill-rule="nonzero"/><path fill="#000d39" d="M 177.890625 277.167969 C 178.863281 276.859375 179.835938 276.546875 180.808594 276.238281 C 181.3125 276.082031 181.097656 275.289062 180.59375 275.449219 C 179.617188 275.757812 178.644531 276.066406 177.671875 276.375 C 177.171875 276.535156 177.386719 277.328125 177.890625 277.167969 " fill-opacity="1" fill-rule="nonzero"/><path fill="#000d39" d="M 212.851562 338.242188 C 215.371094 336.765625 218.03125 335.660156 220.855469 334.910156 C 221.367188 334.773438 221.148438 333.984375 220.636719 334.121094 C 217.746094 334.886719 215.019531 336.023438 212.4375 337.535156 C 211.984375 337.800781 212.394531 338.511719 212.851562 338.242188 " fill-opacity="1" fill-rule="nonzero"/><path fill="#000d39" d="M 218.292969 281.652344 C 219.195312 281.375 220.109375 281.835938 220.472656 282.695312 C 220.675781 283.179688 221.382812 282.761719 221.179688 282.28125 C 220.679688 281.097656 219.292969 280.488281 218.074219 280.859375 C 217.570312 281.011719 217.785156 281.804688 218.292969 281.652344 " fill-opacity="1" fill-rule="nonzero"/><path fill="#000d39" d="M 215.355469 281.789062 C 214.546875 282.269531 213.820312 282.859375 213.183594 283.558594 C 213.007812 283.753906 213.035156 284.058594 213.269531 284.199219 C 213.714844 284.472656 214.195312 284.65625 214.710938 284.742188 C 215.226562 284.832031 215.445312 284.042969 214.925781 283.953125 C 214.476562 283.875 214.074219 283.730469 213.683594 283.492188 C 213.710938 283.707031 213.738281 283.921875 213.765625 284.136719 C 214.351562 283.488281 215.019531 282.945312 215.773438 282.496094 C 216.226562 282.226562 215.8125 281.519531 215.355469 281.789062 " fill-opacity="1" fill-rule="nonzero"/><path fill="#000d39" d="M 216.117188 287.308594 C 216.753906 287.785156 217.6875 287.40625 217.9375 286.691406 C 218.113281 286.195312 217.320312 285.980469 217.148438 286.472656 C 217.054688 286.734375 216.714844 286.738281 216.53125 286.601562 C 216.351562 286.46875 216.070312 286.570312 215.96875 286.746094 C 215.847656 286.957031 215.9375 287.175781 216.117188 287.308594 " fill-opacity="1" fill-rule="nonzero"/><path fill="#000d39" d="M 225.875 283.332031 C 226.257812 282.90625 226.640625 282.480469 227.023438 282.058594 C 227.375 281.664062 226.796875 281.082031 226.445312 281.476562 C 226.058594 281.902344 225.679688 282.328125 225.296875 282.753906 C 224.941406 283.144531 225.523438 283.722656 225.875 283.332031 " fill-opacity="1" fill-rule="nonzero"/><path fill="#000d39" d="M 201.582031 391.09375 C 198.855469 380.480469 196.5 369.773438 194.539062 358.988281 C 194.070312 356.410156 193.300781 353.636719 193.53125 350.996094 C 193.757812 348.417969 195.136719 346.082031 197 344.335938 C 200.828125 340.761719 206.257812 340.066406 211.277344 340.128906 C 211.804688 340.132812 211.804688 339.3125 211.277344 339.308594 C 206.390625 339.25 201.183594 339.894531 197.242188 343.050781 C 193.660156 345.917969 192.238281 349.894531 192.90625 354.386719 C 194.753906 366.804688 197.671875 379.160156 200.792969 391.3125 C 200.921875 391.824219 201.714844 391.609375 201.582031 391.09375 " fill-opacity="1" fill-rule="nonzero"/><path fill="#000d39" d="M 298.773438 254.507812 C 299.042969 253.722656 299.914062 253.304688 300.699219 253.535156 C 301.207031 253.679688 301.425781 252.890625 300.917969 252.742188 C 299.691406 252.382812 298.394531 253.089844 297.984375 254.289062 C 297.8125 254.789062 298.605469 255.003906 298.773438 254.507812 " fill-opacity="1" fill-rule="nonzero"/><path fill="#000d39" d="M 291.78125 254.96875 C 292.359375 255.097656 292.882812 255.324219 293.375 255.65625 C 293.8125 255.953125 294.226562 255.246094 293.789062 254.949219 C 293.246094 254.582031 292.640625 254.320312 291.996094 254.179688 C 291.480469 254.066406 291.261719 254.855469 291.78125 254.96875 " fill-opacity="1" fill-rule="nonzero"/><path fill="#000d39" d="M 303.039062 253.820312 C 303.867188 254.242188 304.664062 254.726562 305.429688 255.257812 C 305.378906 255.074219 305.332031 254.886719 305.28125 254.699219 C 305.074219 255.109375 304.777344 255.382812 304.355469 255.5625 C 303.867188 255.769531 304.285156 256.476562 304.769531 256.269531 C 305.308594 256.039062 305.726562 255.636719 305.992188 255.109375 C 306.097656 254.902344 306.035156 254.683594 305.84375 254.550781 C 305.078125 254.015625 304.28125 253.535156 303.453125 253.109375 C 302.984375 252.871094 302.566406 253.578125 303.039062 253.820312 " fill-opacity="1" fill-rule="nonzero"/><path fill="#000d39" d="M 300.644531 258.335938 C 301.023438 259.066406 302.027344 259.328125 302.710938 258.863281 C 303.144531 258.566406 302.734375 257.855469 302.296875 258.15625 C 301.96875 258.378906 301.535156 258.277344 301.351562 257.925781 C 301.105469 257.457031 300.398438 257.871094 300.644531 258.335938 " fill-opacity="1" fill-rule="nonzero"/><path fill="#000d39" d="M 305.289062 298.847656 C 303.238281 298.847656 301.191406 298.847656 299.144531 298.847656 C 298.617188 298.847656 298.617188 299.667969 299.144531 299.667969 C 301.191406 299.667969 303.238281 299.667969 305.289062 299.667969 C 305.816406 299.667969 305.816406 298.847656 305.289062 298.847656 " fill-opacity="1" fill-rule="nonzero"/><path fill="#000d39" d="M 305.476562 302.941406 C 303.429688 302.941406 301.378906 302.941406 299.332031 302.941406 C 298.804688 302.941406 298.804688 303.761719 299.332031 303.761719 C 301.378906 303.761719 303.429688 303.761719 305.476562 303.761719 C 306 303.761719 306.003906 302.941406 305.476562 302.941406 " fill-opacity="1" fill-rule="nonzero"/><path fill="#000d39" d="M 305.808594 295.722656 C 305.808594 299.695312 305.808594 303.664062 305.808594 307.636719 C 305.808594 308.160156 306.628906 308.160156 306.628906 307.636719 C 306.628906 303.664062 306.628906 299.695312 306.628906 295.722656 C 306.628906 295.195312 305.808594 295.191406 305.808594 295.722656 " fill-opacity="1" fill-rule="nonzero"/><path fill="#000d39" d="M 300.410156 291.628906 C 300.410156 292.558594 300.410156 293.488281 300.410156 294.421875 C 300.410156 294.945312 301.230469 294.949219 301.230469 294.421875 C 301.230469 293.488281 301.230469 292.558594 301.230469 291.628906 C 301.230469 291.101562 300.410156 291.097656 300.410156 291.628906 " fill-opacity="1" fill-rule="nonzero"/><path fill="#000d39" d="M 311.019531 310.214844 C 311.019531 313.023438 313.882812 314 316.183594 314.414062 C 316.699219 314.511719 316.917969 313.71875 316.398438 313.625 C 314.5 313.28125 311.839844 312.609375 311.839844 310.214844 C 311.839844 309.6875 311.019531 309.6875 311.019531 310.214844 " fill-opacity="1" fill-rule="nonzero"/><path fill="#000d39" d="M 278.296875 290.921875 C 282.265625 290.921875 286.238281 290.921875 290.210938 290.921875 C 290.734375 290.921875 290.738281 290.101562 290.210938 290.101562 C 286.238281 290.101562 282.265625 290.101562 278.296875 290.101562 C 277.769531 290.101562 277.765625 290.921875 278.296875 290.921875 " fill-opacity="1" fill-rule="nonzero"/><path fill="#000d39" d="M 316.515625 245.582031 C 314.699219 246.269531 312.804688 248.644531 314.949219 250.210938 C 316.097656 251.050781 317.9375 251.300781 319.296875 251.566406 C 321.351562 251.96875 323.4375 252.097656 325.53125 252.027344 C 325.394531 251.890625 325.257812 251.753906 325.121094 251.617188 C 325.144531 253.679688 326.6875 255.234375 328.75 255.277344 C 329.277344 255.289062 329.277344 254.46875 328.75 254.457031 C 327.15625 254.425781 325.960938 253.199219 325.941406 251.617188 C 325.9375 251.398438 325.753906 251.199219 325.53125 251.207031 C 323.507812 251.277344 321.503906 251.160156 319.515625 250.777344 C 318.667969 250.613281 317.648438 250.476562 316.859375 250.109375 C 315.707031 249.90625 315.109375 249.066406 315.0625 247.582031 C 315.484375 246.976562 316.039062 246.574219 316.734375 246.371094 C 317.222656 246.1875 317.011719 245.394531 316.515625 245.582031 " fill-opacity="1" fill-rule="nonzero"/><path fill="#000d39" d="M 312.214844 250.308594 C 312.214844 248.882812 312.214844 247.457031 312.214844 246.03125 C 312.214844 245.503906 311.394531 245.503906 311.394531 246.03125 C 311.394531 247.457031 311.394531 248.882812 311.394531 250.308594 C 311.394531 250.839844 312.214844 250.839844 312.214844 250.308594 " fill-opacity="1" fill-rule="nonzero"/><path fill="#000d39" d="M 317.648438 250.304688 C 317.460938 248.824219 317.386719 247.339844 317.425781 245.84375 C 317.4375 245.316406 316.617188 245.316406 316.605469 245.84375 C 316.566406 247.339844 316.640625 248.824219 316.828125 250.304688 C 316.890625 250.824219 317.710938 250.828125 317.648438 250.304688 " fill-opacity="1" fill-rule="nonzero"/><path fill="#000d39" d="M 312.929688 251.902344 C 314.84375 251.65625 316.765625 251.480469 318.695312 251.382812 C 319.222656 251.355469 319.222656 250.535156 318.695312 250.5625 C 316.765625 250.660156 314.84375 250.835938 312.929688 251.082031 C 312.414062 251.144531 312.40625 251.964844 312.929688 251.902344 " fill-opacity="1" fill-rule="nonzero"/><path fill="#000d39" d="M 358.714844 287.757812 C 362.128906 287.757812 365.542969 287.757812 368.953125 287.757812 C 369.484375 287.757812 369.484375 286.9375 368.953125 286.9375 C 365.542969 286.9375 362.128906 286.9375 358.714844 286.9375 C 358.1875 286.9375 358.1875 287.757812 358.714844 287.757812 " fill-opacity="1" fill-rule="nonzero"/><path fill="#000d39" d="M 358.714844 293.074219 C 362.128906 293.074219 365.542969 293.074219 368.953125 293.074219 C 369.484375 293.074219 369.484375 292.253906 368.953125 292.253906 C 365.542969 292.253906 362.128906 292.253906 358.714844 292.253906 C 358.1875 292.253906 358.1875 293.074219 358.714844 293.074219 " fill-opacity="1" fill-rule="nonzero"/><path fill="#000d39" d="M 369.101562 282.882812 C 369.101562 287.59375 369.101562 292.308594 369.101562 297.023438 C 369.101562 297.554688 369.921875 297.554688 369.921875 297.023438 C 369.921875 292.308594 369.921875 287.59375 369.921875 282.882812 C 369.921875 282.351562 369.101562 282.351562 369.101562 282.882812 " fill-opacity="1" fill-rule="nonzero"/><path fill="#000d39" d="M 385.316406 281.0625 C 386.167969 280.617188 387.28125 280.828125 387.878906 281.601562 C 388.195312 282.015625 388.910156 281.605469 388.589844 281.1875 C 387.707031 280.046875 386.1875 279.683594 384.902344 280.355469 C 384.433594 280.597656 384.847656 281.308594 385.316406 281.0625 " fill-opacity="1" fill-rule="nonzero"/><path fill="#000d39" d="M 382.117188 281.589844 C 381.414062 282.167969 380.710938 282.75 380.003906 283.328125 C 379.84375 283.460938 379.847656 283.777344 380.003906 283.90625 C 380.398438 284.238281 380.832031 284.414062 381.347656 284.425781 C 381.878906 284.4375 381.875 283.617188 381.347656 283.605469 C 381.0625 283.597656 380.808594 283.515625 380.582031 283.328125 C 380.582031 283.519531 380.582031 283.714844 380.582031 283.90625 C 381.289062 283.328125 381.992188 282.75 382.699219 282.167969 C 383.109375 281.832031 382.523438 281.257812 382.117188 281.589844 " fill-opacity="1" fill-rule="nonzero"/><path fill="#000d39" d="M 384.886719 287.238281 C 385.851562 287.195312 386.640625 286.617188 387.011719 285.730469 C 387.214844 285.246094 386.421875 285.03125 386.222656 285.511719 C 386 286.042969 385.453125 286.394531 384.886719 286.417969 C 384.359375 286.441406 384.359375 287.261719 384.886719 287.238281 " fill-opacity="1" fill-rule="nonzero"/><path fill="#000d39" d="M 392.203125 280.898438 C 392.464844 280.597656 392.722656 280.296875 392.984375 279.996094 C 393.128906 279.828125 393.148438 279.582031 392.984375 279.417969 C 392.835938 279.269531 392.550781 279.25 392.402344 279.417969 C 392.144531 279.714844 391.882812 280.015625 391.625 280.316406 C 391.476562 280.484375 391.457031 280.734375 391.625 280.898438 C 391.773438 281.042969 392.058594 281.066406 392.203125 280.898438 " fill-opacity="1" fill-rule="nonzero"/><path fill="#000d39" d="M 371.039062 338.902344 C 371.039062 335.738281 371.039062 332.574219 371.039062 329.410156 C 371.039062 328.882812 370.21875 328.878906 370.21875 329.410156 C 370.21875 332.574219 370.21875 335.738281 370.21875 338.902344 C 370.21875 339.429688 371.039062 339.429688 371.039062 338.902344 " fill-opacity="1" fill-rule="nonzero"/><path fill="#000d39" d="M 375.320312 339.273438 C 375.320312 335.925781 375.320312 332.574219 375.320312 329.222656 C 375.320312 328.695312 374.503906 328.695312 374.503906 329.222656 C 374.503906 332.574219 374.503906 335.925781 374.503906 339.273438 C 374.503906 339.800781 375.320312 339.800781 375.320312 339.273438 " fill-opacity="1" fill-rule="nonzero"/><path fill="#000d39" d="M 365.789062 338.195312 C 370.382812 338.195312 374.972656 338.195312 379.5625 338.195312 C 380.09375 338.195312 380.09375 337.375 379.5625 337.375 C 374.972656 337.375 370.382812 337.375 365.789062 337.375 C 365.261719 337.375 365.261719 338.195312 365.789062 338.195312 " fill-opacity="1" fill-rule="nonzero"/></svg>