<svg xmlns="http://www.w3.org/2000/svg" xmlns:xlink="http://www.w3.org/1999/xlink" width="992" zoomAndPan="magnify" viewBox="0 0 744 449.999984" height="600" preserveAspectRatio="xMidYMid meet" version="1.0"><defs><clipPath id="75d0234ad8"><path d="M 593 141.410156 L 625 141.410156 L 625 154 L 593 154 Z M 593 141.410156 " clip-rule="nonzero"/></clipPath><clipPath id="5c392e1c59"><path d="M 718 281 L 726.925781 281 L 726.925781 288 L 718 288 Z M 718 281 " clip-rule="nonzero"/></clipPath><clipPath id="5ee571d12f"><path d="M 426.339844 317 L 545 317 L 545 367.136719 L 426.339844 367.136719 Z M 426.339844 317 " clip-rule="nonzero"/></clipPath><clipPath id="f877c64002"><path d="M 696 217 L 726.925781 217 L 726.925781 253 L 696 253 Z M 696 217 " clip-rule="nonzero"/></clipPath></defs><rect x="-74.4" width="892.8" fill="#ffffff" y="-44.999998" height="539.99998" fill-opacity="1"/><rect x="-74.4" width="892.8" fill="#f9f9f9" y="-44.999998" height="539.99998" fill-opacity="1"/><path fill="#000d39" d="M 613.453125 271.917969 L 585.640625 271.917969 L 587.007812 283.8125 L 593.988281 283.8125 L 593.988281 278.535156 L 598.40625 283.8125 L 622.742188 283.8125 C 621.457031 275.386719 615.675781 272.664062 613.453125 271.917969 " fill-opacity="1" fill-rule="nonzero"/><path fill="#efefef" d="M 612.570312 271.667969 L 598.40625 203.195312 L 562.6875 203.195312 L 544.855469 283.8125 L 572.355469 281.878906 L 580.226562 224.835938 L 585.640625 271.917969 L 613.453125 271.917969 C 612.90625 271.734375 612.570312 271.667969 612.570312 271.667969 " fill-opacity="1" fill-rule="nonzero"/><path fill="#ff494b" d="M 578.460938 169.640625 L 566.210938 169.640625 C 558.539062 169.640625 551.660156 174.355469 548.894531 181.503906 L 543.585938 195.21875 C 540.46875 203.273438 546.410156 211.945312 555.050781 211.945312 L 574.957031 211.167969 L 579.730469 203.804688 L 598.40625 203.195312 L 600.410156 191.527344 C 600.410156 191.527344 632.179688 184.980469 624.117188 152.847656 L 602.121094 152.847656 C 602.121094 152.847656 610.800781 169.640625 578.460938 169.640625 " fill-opacity="1" fill-rule="nonzero"/><g clip-path="url(#75d0234ad8)"><path fill="#ffc086" d="M 604.722656 153.464844 C 602.679688 153.460938 600.636719 153.457031 598.59375 153.453125 C 598.109375 153.449219 597.578125 153.421875 597.21875 152.914062 C 596.503906 151.914062 596.980469 150.015625 597.625 148.90625 C 596.65625 148.714844 595.707031 148.253906 594.832031 147.554688 C 594.566406 147.34375 594.296875 147.09375 594.132812 146.695312 C 593.800781 145.867188 594.078125 144.695312 594.574219 144.105469 C 595.070312 143.519531 595.710938 143.367188 596.320312 143.242188 C 604.085938 141.664062 611.960938 141.488281 619.75 142.714844 C 620.644531 142.855469 621.578125 143.035156 622.328125 143.835938 C 624.015625 145.636719 624.003906 149.484375 624.324219 152.679688 C 624.367188 153.101562 624.496094 153.628906 624.765625 153.613281 C 625.03125 153.597656 624.8125 152.71875 624.691406 153.097656 L 604.722656 153.464844 " fill-opacity="1" fill-rule="nonzero"/></g><path fill="#000d39" d="M 579.90625 150.214844 C 578.011719 146.660156 573.167969 145.101562 569.59375 146.902344 C 568.167969 147.621094 566.925781 148.792969 565.367188 149.097656 C 562.457031 149.65625 559.753906 147.019531 556.800781 147.210938 C 553.863281 147.398438 551.445312 150.335938 548.523438 149.992188 C 546.167969 149.714844 544.289062 147.328125 541.925781 147.550781 C 539.886719 147.738281 538.542969 149.765625 536.726562 150.734375 C 534.191406 152.085938 531.136719 151.222656 528.277344 151.09375 C 525.425781 150.964844 521.867188 152.378906 521.792969 155.277344 C 521.726562 157.90625 524.660156 159.578125 527.242188 159.78125 C 529.824219 159.984375 532.515625 159.371094 534.960938 160.234375 C 537.527344 161.136719 539.675781 163.597656 542.375 163.324219 C 544.519531 163.105469 546.167969 161.175781 548.285156 160.773438 C 551.480469 160.171875 554.523438 163.175781 557.71875 162.597656 C 559.621094 162.253906 561.125 160.699219 562.996094 160.214844 C 565.339844 159.609375 567.855469 160.761719 570.203125 160.171875 C 571.183594 159.921875 572.070312 159.382812 573.015625 159.007812 C 574.949219 158.242188 577.125 158.171875 578.953125 157.171875 C 580.777344 156.171875 582.070312 153.578125 580.738281 151.96875 L 579.90625 150.214844 " fill-opacity="1" fill-rule="nonzero"/><path fill="#000d39" d="M 595.441406 222.878906 L 562.464844 222.878906 L 570.476562 179.472656 L 603.449219 179.472656 L 595.441406 222.878906 " fill-opacity="1" fill-rule="nonzero"/><path fill="#efefef" d="M 591.910156 216.738281 L 568.261719 216.738281 L 574.007812 185.609375 L 597.652344 185.609375 L 591.910156 216.738281 " fill-opacity="1" fill-rule="nonzero"/><path fill="#000d39" d="M 590.195312 187.234375 L 579.582031 187.234375 L 580.382812 180.628906 L 590.992188 180.628906 L 590.195312 187.234375 " fill-opacity="1" fill-rule="nonzero"/><path fill="#ff494b" d="M 555.050781 211.945312 L 574.957031 211.945312 L 574.957031 192.792969 L 552.871094 192.792969 L 555.050781 211.945312 " fill-opacity="1" fill-rule="nonzero"/><path fill="#ffc086" d="M 574.972656 192.734375 C 577.484375 192.699219 579.996094 192.664062 582.503906 192.628906 C 583.808594 192.609375 585.414062 192.78125 585.902344 193.96875 C 586.257812 194.832031 585.761719 195.855469 585.003906 196.414062 C 584.246094 196.972656 583.285156 197.175781 582.355469 197.367188 C 584.78125 197.015625 587.503906 197.457031 589.953125 197.59375 C 591.3125 197.667969 592.203125 199.242188 591.824219 200.410156 C 591.523438 201.332031 590.347656 201.582031 589.371094 201.683594 C 587.8125 201.84375 586.253906 202.003906 584.695312 202.164062 C 586 201.945312 587.339844 201.90625 588.65625 202.046875 C 589.503906 202.140625 591.019531 201.808594 591.65625 202.367188 C 592.292969 202.929688 593.070312 204.679688 591.585938 205.410156 C 590.957031 205.722656 590.171875 205.796875 589.464844 205.867188 C 587.925781 206.007812 586.386719 206.148438 584.84375 206.289062 C 586.773438 206.132812 589.605469 206.179688 591.382812 206.929688 C 592.386719 207.351562 592.617188 208.550781 592.246094 209.5625 C 592 210.238281 591.203125 210.539062 590.492188 210.699219 C 585.835938 211.761719 574.957031 211.945312 574.957031 211.945312 L 574.972656 192.734375 " fill-opacity="1" fill-rule="nonzero"/><path fill="#000d39" d="M 694.90625 236.253906 L 646.148438 236.015625 L 624.3125 270.996094 L 682.285156 270.996094 L 694.90625 236.253906 " fill-opacity="1" fill-rule="nonzero"/><path fill="#79339c" d="M 646.148438 236.015625 L 653.460938 224.835938 L 653.457031 224.835938 C 645.269531 224.835938 638.632812 218.195312 638.632812 210.007812 L 638.632812 198.941406 L 658.5 198.941406 C 658.5 198.941406 657.679688 206.792969 662.546875 204.972656 C 666.609375 203.449219 663.972656 194.785156 684.644531 194.785156 L 696.714844 194.785156 C 707.558594 194.785156 714.871094 205.867188 710.609375 215.839844 L 702.359375 235.128906 C 700.296875 239.949219 695.558594 243.078125 690.316406 243.078125 L 670.503906 243.078125 L 670.503906 236.015625 L 646.148438 236.015625 " fill-opacity="1" fill-rule="nonzero"/><path fill="#006b85" d="M 624.3125 270.996094 L 613.070312 289.007812 L 675.738281 289.007812 L 682.285156 270.996094 L 624.3125 270.996094 " fill-opacity="1" fill-rule="nonzero"/><path fill="#ffc086" d="M 662.523438 224.242188 C 660.59375 224.316406 658.488281 224.511719 657.101562 226.035156 C 655.605469 227.675781 655.421875 230.320312 655.347656 232.714844 C 655.269531 235.242188 655.308594 237.785156 655.511719 240.3125 C 655.628906 241.765625 655.59375 243.816406 656.25 245.128906 C 656.894531 246.421875 659.226562 246.792969 659.996094 245.183594 C 660.339844 244.472656 660.808594 243.429688 660.769531 242.609375 C 660.59375 244.394531 661.460938 246.503906 663.023438 246.464844 C 664.585938 246.425781 665.742188 244.417969 665.457031 242.648438 C 665.484375 245.007812 666.789062 246.984375 668.769531 246.398438 C 669.160156 246.285156 669.542969 246.078125 669.792969 245.71875 C 670.140625 245.21875 670.519531 244.53125 670.535156 243.886719 C 670.695312 237.636719 670.570312 224.257812 670.699219 224.175781 L 662.523438 224.242188 " fill-opacity="1" fill-rule="nonzero"/><path fill="#000d39" d="M 613.160156 337.246094 C 613.261719 342.394531 617.050781 346.183594 621.679688 347.902344 C 623.683594 348.648438 626.203125 349.324219 628.183594 348.140625 C 629.410156 347.414062 630.535156 345.730469 629.785156 344.304688 C 628.988281 342.78125 626.820312 343.035156 625.574219 343.804688 C 623.769531 344.914062 623.179688 347.035156 622.984375 349.015625 C 622.488281 354.003906 623.933594 359.558594 628.65625 362.03125 C 629.167969 362.300781 629.625 361.519531 629.109375 361.253906 C 626.203125 359.726562 624.574219 356.910156 624.023438 353.730469 C 623.726562 352.011719 623.707031 350.15625 623.96875 348.433594 C 624.144531 347.289062 624.4375 346.128906 625.242188 345.238281 C 625.503906 345.023438 625.765625 344.800781 626.027344 344.582031 C 627.164062 343.761719 628.171875 344.136719 629.054688 345.703125 C 628.847656 348.070312 625.285156 347.964844 623.785156 347.621094 C 622.175781 347.25 620.570312 346.566406 619.171875 345.6875 C 616.1875 343.820312 614.132812 340.824219 614.0625 337.246094 C 614.054688 336.664062 613.152344 336.660156 613.160156 337.246094 " fill-opacity="1" fill-rule="nonzero"/><path fill="#000d39" d="M 517.449219 182.355469 C 517.640625 179.808594 519.863281 174.257812 523.285156 176.269531 C 524.101562 176.753906 525.058594 177.777344 524.925781 178.796875 C 524.832031 179.492188 524.265625 180.242188 523.476562 180.0625 C 521.449219 179.605469 522.769531 175.324219 523.332031 174.203125 C 524.382812 172.105469 526.210938 170.578125 528.4375 169.875 C 528.988281 169.699219 528.753906 168.828125 528.195312 169.003906 C 524.609375 170.136719 521.867188 173.351562 521.582031 177.160156 C 521.453125 178.9375 522.496094 182.335938 524.878906 180.582031 C 527.097656 178.953125 525.089844 175.988281 523.171875 175.1875 C 519.214844 173.535156 516.769531 179.390625 516.546875 182.355469 C 516.503906 182.933594 517.402344 182.929688 517.449219 182.355469 " fill-opacity="1" fill-rule="nonzero"/><path fill="#00a142" d="M 706.789062 185.84375 C 709.785156 184.402344 713.554688 181.285156 713.9375 177.707031 C 714.160156 175.609375 712.105469 173.851562 710.195312 175.21875 C 707.773438 176.949219 710.050781 179.925781 711.785156 181.089844 C 714.570312 182.960938 718.324219 183.839844 721.15625 181.648438 C 721.765625 181.179688 720.910156 180.335938 720.304688 180.800781 C 718.46875 182.226562 716.082031 181.859375 714.09375 180.984375 C 712.90625 180.460938 708.296875 177.292969 711.125 176.078125 C 712.234375 175.601562 712.707031 176.574219 712.671875 177.5 C 712.632812 178.6875 711.894531 179.796875 711.207031 180.738281 C 709.910156 182.519531 708.160156 183.855469 706.183594 184.804688 C 705.488281 185.140625 706.09375 186.175781 706.789062 185.84375 " fill-opacity="1" fill-rule="nonzero"/><path fill="#00a142" d="M 626.03125 240.316406 C 623.339844 238.96875 621.84375 235.605469 622.640625 232.707031 C 622.847656 231.941406 623.601562 231.074219 624.273438 231.492188 C 624.535156 231.65625 624.65625 231.964844 624.757812 232.257812 C 625.65625 234.835938 626.03125 237.597656 625.859375 240.324219 L 626.03125 240.316406 " fill-opacity="1" fill-rule="nonzero"/><g clip-path="url(#5c392e1c59)"><path fill="#00a142" d="M 718.96875 287.542969 C 719.6875 284.765625 721.902344 282.417969 724.636719 281.539062 C 725.09375 281.394531 725.648438 281.304688 726.003906 281.625 C 726.601562 282.171875 726.015625 283.140625 725.414062 283.683594 C 723.601562 285.316406 721.5625 286.699219 719.375 287.785156 L 718.96875 287.542969 " fill-opacity="1" fill-rule="nonzero"/></g><path fill="#000d39" d="M 409.742188 293.171875 C 412.75 292.402344 415.546875 289.898438 415.964844 286.683594 C 416.152344 285.222656 415.007812 283.480469 413.359375 284.332031 C 411.21875 285.433594 413.4375 288.09375 414.511719 289.015625 C 417.15625 291.269531 420.8125 291.90625 424.089844 290.851562 C 424.640625 290.671875 424.40625 289.804688 423.851562 289.980469 C 421.949219 290.59375 419.996094 290.632812 418.089844 290.007812 C 416.605469 289.519531 413.535156 287.929688 413.414062 286.078125 C 413.367188 285.363281 413.96875 284.726562 414.675781 285.195312 C 415.582031 285.789062 414.90625 287.367188 414.589844 288.097656 C 413.636719 290.253906 411.765625 291.722656 409.5 292.300781 C 408.941406 292.445312 409.179688 293.316406 409.742188 293.171875 " fill-opacity="1" fill-rule="nonzero"/><path fill="#00a142" d="M 429.988281 200.074219 C 428.246094 199.867188 426.503906 199.65625 424.765625 199.449219 C 423.808594 199.332031 422.820312 199.207031 421.980469 198.730469 C 421.144531 198.253906 420.480469 197.328125 420.613281 196.375 C 421.4375 195.570312 422.804688 195.972656 423.851562 196.457031 C 425.78125 197.34375 427.664062 198.34375 429.484375 199.4375 L 429.988281 200.074219 " fill-opacity="1" fill-rule="nonzero"/><path fill="#fdae72" d="M 618.171875 251.75 C 614.285156 248.144531 610.070312 246.386719 605.378906 245.878906 C 609.035156 252.335938 611.667969 259.503906 615.066406 266.136719 C 620.984375 261.433594 623.265625 256.46875 618.171875 251.75 " fill-opacity="1" fill-rule="nonzero"/><path fill="#fdae72" d="M 700.65625 245.558594 C 696.832031 242.554688 692.4375 242.125 687.84375 243.308594 C 688.335938 244.308594 688.800781 245.300781 689.347656 246.214844 C 690.949219 248.617188 692.949219 249.816406 694.554688 252.21875 C 697.539062 256.597656 700.132812 261.078125 702.914062 265.359375 C 706.5 257.753906 707.046875 250.570312 700.65625 245.558594 " fill-opacity="1" fill-rule="nonzero"/><path fill="#fdae72" d="M 689.347656 246.214844 C 688.800781 245.300781 688.335938 244.308594 687.84375 243.308594 C 673.21875 247.085938 656.578125 267.292969 649.765625 273.382812 C 640.8125 281.382812 628.601562 280.449219 628.601562 280.449219 C 627.542969 280.347656 626.492188 280.261719 625.445312 280.1875 C 625.78125 280.480469 626.125 280.769531 626.476562 281.046875 C 626.125 280.769531 625.78125 280.480469 625.445312 280.1875 C 603.5625 278.605469 583.574219 282.347656 571.832031 285.308594 C 565.386719 287.324219 560.96875 288.496094 560.96875 288.496094 C 560.96875 288.496094 565.003906 287.03125 571.832031 285.308594 C 584.511719 281.347656 605.027344 274.121094 615.066406 266.136719 C 611.667969 259.503906 609.035156 252.335938 605.378906 245.878906 C 588.214844 244.023438 564.632812 258.992188 526.847656 262.195312 C 478.746094 266.28125 462.144531 298.265625 462.144531 298.265625 L 431.410156 365.050781 L 531.816406 365.394531 C 531.816406 365.394531 533.296875 362.074219 541.164062 349.242188 C 549.035156 336.414062 590.855469 332.335938 621.5625 328.410156 C 652.265625 324.480469 669.648438 308.242188 680.195312 295.507812 C 686.402344 288.007812 697.777344 276.25 702.914062 265.359375 C 700.132812 261.078125 697.539062 256.597656 694.554688 252.21875 C 692.949219 249.816406 690.949219 248.617188 689.347656 246.214844 " fill-opacity="1" fill-rule="nonzero"/><g clip-path="url(#5ee571d12f)"><path fill="#000d39" d="M 426.75 367.136719 L 544.898438 367.136719 L 544.898438 364.511719 C 511.214844 351.589844 479.941406 334.152344 448.632812 317.101562 L 426.75 367.136719 " fill-opacity="1" fill-rule="nonzero"/></g><path fill="#efefef" d="M 453.78125 305.328125 L 448.632812 317.101562 C 479.941406 334.152344 511.214844 351.589844 544.898438 364.511719 L 548.101562 354.609375 C 528.40625 348.664062 453.78125 305.328125 453.78125 305.328125 " fill-opacity="1" fill-rule="nonzero"/><path fill="#efefef" d="M 462.636719 336.210938 C 462.636719 339.070312 460.316406 341.394531 457.457031 341.394531 C 454.59375 341.394531 452.273438 339.070312 452.273438 336.210938 C 452.273438 333.351562 454.59375 331.03125 457.457031 331.03125 C 460.316406 331.03125 462.636719 333.351562 462.636719 336.210938 " fill-opacity="1" fill-rule="nonzero"/><path fill="#efefef" d="M 454.371094 354.097656 C 454.371094 356.960938 452.050781 359.277344 449.191406 359.277344 C 446.328125 359.277344 444.007812 356.960938 444.007812 354.097656 C 444.007812 351.238281 446.328125 348.917969 449.191406 348.917969 C 452.050781 348.917969 454.371094 351.238281 454.371094 354.097656 " fill-opacity="1" fill-rule="nonzero"/><path fill="#00a142" d="M 446.753906 319.761719 C 442.121094 320.523438 437.3125 320.1875 432.832031 318.792969 C 431.257812 318.304688 429.386719 316.945312 430.058594 315.441406 C 430.421875 314.625 431.410156 314.289062 432.300781 314.210938 C 434.675781 314.015625 436.960938 315.035156 439.125 316.03125 C 441.933594 317.324219 444.742188 318.617188 447.550781 319.910156 C 445.488281 317.386719 444.09375 314.324219 443.550781 311.113281 C 443.332031 309.820312 443.273438 308.414062 443.925781 307.28125 C 444.585938 306.148438 446.195312 305.496094 447.261719 306.25 C 448.183594 310.65625 448.335938 315.222656 447.714844 319.679688 L 446.753906 319.761719 " fill-opacity="1" fill-rule="nonzero"/><g clip-path="url(#f877c64002)"><path fill="#00a142" d="M 696.839844 243.230469 C 699.414062 235.042969 704.097656 227.53125 710.320312 221.617188 C 712.351562 219.6875 714.792969 217.832031 717.59375 217.859375 C 717.984375 217.863281 718.398438 217.917969 718.6875 218.175781 C 719.082031 218.53125 719.101562 219.140625 719.046875 219.667969 C 718.773438 222.15625 717.5 224.414062 716.152344 226.523438 C 712.472656 232.285156 708.027344 237.558594 702.96875 242.160156 C 709.363281 238.515625 716.640625 236.4375 723.996094 236.164062 C 725.246094 236.117188 726.933594 236.519531 726.925781 237.773438 C 726.925781 238.40625 726.433594 238.921875 725.957031 239.34375 C 720.273438 244.355469 712.332031 245.71875 704.839844 246.878906 C 710.78125 246.210938 717.070312 245.597656 722.496094 248.105469 C 723.664062 248.644531 724.933594 249.640625 724.738281 250.914062 C 724.503906 252.417969 722.542969 252.820312 721.015625 252.839844 C 716.042969 252.898438 711.0625 252.703125 706.105469 252.25 L 696.839844 243.230469 " fill-opacity="1" fill-rule="nonzero"/></g><path fill="#00a142" d="M 638.105469 212.410156 C 632.984375 214.417969 627.234375 213.089844 621.902344 211.742188 C 620.960938 211.507812 619.894531 211.175781 619.605469 210.175781 C 619.363281 209.351562 619.800781 208.5 620.515625 208.03125 C 621.632812 207.296875 622.988281 207.472656 624.246094 207.71875 C 627.304688 208.3125 630.296875 209.253906 633.152344 210.515625 C 630.566406 210.128906 628.484375 208.074219 627.367188 205.714844 C 626.703125 204.316406 626.324219 202.816406 626.066406 201.289062 C 625.753906 199.386719 627.894531 198.003906 629.433594 199.164062 C 630.574219 200.023438 631.5625 201.261719 632.351562 202.449219 C 634.566406 205.796875 636.5 209.332031 638.125 213.003906 L 638.105469 212.410156 " fill-opacity="1" fill-rule="nonzero"/><path fill="#00a142" d="M 447.332031 259.460938 C 445.097656 264.46875 440.113281 267.621094 435.414062 270.460938 C 434.582031 270.960938 433.601562 271.484375 432.710938 271 C 431.96875 270.601562 431.6875 269.707031 431.867188 268.875 C 432.152344 267.582031 433.234375 266.742188 434.289062 266.019531 C 436.867188 264.269531 439.632812 262.800781 442.519531 261.65625 C 440.425781 263.214844 437.53125 263.269531 435.113281 262.433594 C 433.679688 261.9375 432.375 261.167969 431.140625 260.292969 C 429.605469 259.203125 430.164062 256.734375 432.050781 256.449219 C 433.453125 256.238281 435.007812 256.386719 436.382812 256.652344 C 440.261719 257.394531 444.070312 258.46875 447.753906 259.855469 L 447.332031 259.460938 " fill-opacity="1" fill-rule="nonzero"/><path fill="#00a142" d="M 671.6875 304.042969 C 673.519531 306.164062 675.378906 308.261719 677.265625 310.335938 C 679.371094 312.660156 682.070312 315.164062 685.167969 314.65625 C 685.421875 313.300781 684.320312 312.09375 683.273438 311.199219 C 680.097656 308.5 676.515625 306.289062 672.683594 304.660156 C 678.5 305.574219 684.96875 306.347656 689.828125 303.027344 C 690.132812 302.816406 690.449219 302.558594 690.511719 302.195312 C 690.585938 301.742188 690.226562 301.335938 689.867188 301.054688 C 688.28125 299.820312 686.167969 299.519531 684.160156 299.476562 C 679.5625 299.375 674.9375 300.40625 670.816406 302.453125 C 671.597656 303.828125 672.523438 305.117188 673.574219 306.292969 L 671.6875 304.042969 " fill-opacity="1" fill-rule="nonzero"/><path fill="#000d39" d="M 455.183594 296.519531 L 455.214844 296.65625 C 447.054688 298.308594 446.535156 305.289062 446.535156 305.289062 L 483.867188 305.289062 L 481.894531 296.519531 L 455.183594 296.519531 " fill-opacity="1" fill-rule="nonzero"/><path fill="#006b85" d="M 476.097656 270.78125 C 475.375 267.566406 477.46875 264.398438 480.707031 263.804688 L 489.488281 262.191406 C 493.882812 261.382812 497.074219 257.550781 497.074219 253.082031 C 497.074219 247.964844 492.925781 243.820312 487.8125 243.820312 L 463.34375 243.820312 C 453.035156 243.820312 445.398438 253.382812 447.675781 263.433594 L 455.183594 296.519531 L 481.894531 296.519531 L 476.097656 270.78125 " fill-opacity="1" fill-rule="nonzero"/><path fill="#000d39" d="M 475.535156 302.484375 L 475.570312 302.660156 C 466.769531 304.785156 466.203125 313.769531 466.203125 313.769531 L 497.074219 313.769531 L 499.707031 309.1875 L 500.867188 313.769531 L 506.480469 313.769531 L 504.351562 302.484375 L 475.535156 302.484375 " fill-opacity="1" fill-rule="nonzero"/><path fill="#006b85" d="M 504.351562 302.484375 L 495.726562 274.238281 C 494.691406 270.847656 496.972656 267.339844 500.5 266.914062 L 519.125 264.871094 C 523.867188 264 527.3125 259.863281 527.3125 255.042969 C 527.3125 249.523438 522.835938 245.050781 517.320312 245.050781 L 484.335938 245.636719 C 473.21875 245.636719 464.976562 255.953125 467.4375 266.792969 L 475.535156 302.484375 L 504.351562 302.484375 " fill-opacity="1" fill-rule="nonzero"/><path fill="#ffc086" d="M 463.207031 191.757812 L 462.988281 191.320312 C 462.777344 190.566406 462.539062 189.820312 462.285156 189.082031 C 462.238281 188.914062 462.214844 188.816406 462.214844 188.816406 C 462.207031 188.816406 462.199219 188.820312 462.191406 188.824219 C 461.628906 187.21875 460.972656 185.644531 460.210938 184.125 C 459.617188 182.933594 458.84375 181.667969 457.582031 181.277344 C 456.320312 180.882812 454.648438 182.042969 455.085938 183.308594 C 455.085938 183.308594 453.597656 177.460938 451.554688 175.097656 C 451.226562 174.71875 450.195312 174.222656 449.703125 174.191406 C 449.105469 174.152344 448.589844 174.675781 448.425781 175.253906 C 448.261719 175.832031 448.367188 176.453125 448.492188 177.046875 C 448.890625 178.96875 449.976562 182.023438 450.679688 183.855469 C 449.898438 183.097656 448.054688 182.023438 447.179688 182.664062 C 446.304688 183.308594 445.847656 184.847656 446.308594 185.835938 C 445.261719 184.820312 444.191406 184.011719 442.863281 184.601562 C 441.238281 185.320312 441.21875 187.003906 441.710938 188.734375 C 442.253906 190.652344 442.796875 192.570312 443.339844 194.488281 C 443.402344 194.703125 443.464844 194.917969 443.527344 195.132812 C 443.476562 195.148438 443.425781 195.167969 443.375 195.183594 C 443.941406 196.414062 444.4375 197.671875 444.902344 198.941406 C 450.960938 196.769531 457.28125 194.925781 463.429688 192.710938 C 463.398438 192.386719 463.328125 192.070312 463.207031 191.757812 " fill-opacity="1" fill-rule="nonzero"/><path fill="#ffb500" d="M 533.457031 225.628906 L 530.40625 211.5 C 528.503906 202.691406 521.0625 196.476562 512.53125 196.570312 L 492.792969 196.832031 C 489.140625 196.871094 484.933594 197.183594 481.714844 199.878906 C 480.339844 200.617188 478.957031 202.183594 477.699219 203.519531 C 476.28125 205.027344 474.054688 205.5 472.171875 204.636719 C 470.394531 203.820312 468.839844 202.21875 467.441406 200.742188 C 465.792969 199.003906 464.382812 195.59375 463.445312 192.863281 C 463.441406 192.8125 463.433594 192.761719 463.429688 192.710938 C 457.28125 194.925781 450.960938 196.769531 444.902344 198.941406 C 446.078125 202.160156 447.042969 205.460938 448.355469 208.625 C 450.183594 213.042969 452.867188 217.34375 457.007812 219.730469 C 460.707031 221.863281 465.082031 222.21875 469.398438 222.15625 L 467.339844 245.847656 L 518.234375 245.847656 C 528.265625 245.847656 535.691406 235.980469 533.457031 225.628906 " fill-opacity="1" fill-rule="nonzero"/><path fill="#ffc086" d="M 508.742188 246.050781 C 507.71875 242.890625 506.355469 239.84375 504.695312 236.96875 C 502.800781 233.691406 500.234375 230.449219 496.589844 229.441406 C 493.878906 228.691406 490.929688 229.320312 488.425781 230.601562 C 485.917969 231.882812 483.785156 233.769531 481.714844 235.675781 C 480.667969 236.640625 479.574219 237.703125 479.523438 239.234375 C 479.496094 239.945312 479.808594 240.652344 480.402344 241.042969 C 481.402344 241.699219 482.484375 241.144531 483.40625 240.609375 C 485.8125 239.214844 488.21875 237.816406 490.628906 236.417969 C 487.703125 237.933594 484.941406 239.761719 482.402344 241.859375 C 482.105469 242.105469 481.78125 242.441406 481.878906 242.8125 C 481.949219 243.097656 482.242188 243.265625 482.488281 243.394531 C 483.910156 244.109375 485.558594 244.226562 487.070312 243.730469 C 490.140625 242.722656 493.035156 241.179688 495.589844 239.195312 C 493.550781 240.5625 491.589844 242.046875 489.71875 243.632812 C 488.914062 244.320312 489.289062 245.65625 490.335938 245.800781 C 492.253906 246.058594 494.332031 245.667969 496.300781 245.453125 C 500.609375 244.988281 504.960938 245.484375 509.265625 245.976562 L 508.742188 246.050781 " fill-opacity="1" fill-rule="nonzero"/><path fill="#000d39" d="M 486.816406 242.699219 L 474.375 216.449219 L 426.8125 216.449219 L 441.003906 246.398438 L 441.09375 246.398438 L 441.09375 246.464844 L 505.597656 246.464844 L 505.597656 242.699219 L 486.816406 242.699219 " fill-opacity="1" fill-rule="nonzero"/><path fill="#00a142" d="M 521.542969 264.328125 C 520.285156 259.414062 519.863281 254.28125 520.304688 249.226562 C 520.640625 245.351562 521.480469 241.53125 522.449219 237.761719 C 523.101562 235.230469 523.847656 232.640625 525.464844 230.589844 C 526.152344 229.722656 527.027344 228.972656 528.003906 228.445312 C 530.042969 227.335938 532.53125 228.757812 532.609375 231.074219 C 532.785156 236.503906 531.621094 241.96875 529.765625 247.097656 C 527.53125 253.265625 524.316406 259.023438 521.117188 264.75 C 525.917969 256.152344 532.757812 248.699219 540.917969 243.179688 C 542.371094 242.191406 543.988281 241.230469 545.796875 241.558594 C 546.855469 241.746094 547.78125 242.460938 548.042969 243.503906 C 548.355469 244.796875 547.484375 245.792969 546.65625 246.652344 C 541.582031 251.914062 535.992188 256.679688 529.996094 260.855469 C 533.578125 258.953125 537.449219 257.597656 541.433594 256.851562 C 542.28125 256.695312 543.285156 256.613281 543.820312 257.34375 C 544.261719 257.945312 544.117188 258.773438 543.628906 259.335938 C 542.871094 260.199219 541.707031 260.347656 540.617188 260.472656 C 534.070312 261.242188 527.570312 262.398438 521.167969 263.949219 C 520.894531 264.011719 520.542969 264.046875 520.410156 263.800781 C 520.277344 263.558594 520.847656 263.378906 520.769531 263.644531 L 521.542969 264.328125 " fill-opacity="1" fill-rule="nonzero"/><path fill="#000d39" d="M 493.082031 182.878906 C 491.550781 182.464844 489.6875 181.640625 489.753906 180.113281 C 489.800781 178.96875 491 178.09375 491.027344 176.949219 C 491.054688 175.738281 489.820312 174.917969 488.796875 174.214844 C 487.773438 173.503906 486.734375 172.300781 487.300781 171.21875 C 487.800781 170.25 489.324219 170.035156 489.691406 169.015625 C 489.976562 168.222656 489.394531 167.382812 489.40625 166.539062 C 489.421875 165.464844 490.605469 164.546875 491.707031 164.761719 C 492.972656 165.007812 494.164062 166.429688 495.261719 165.773438 C 495.78125 165.457031 495.9375 164.796875 496.332031 164.34375 C 496.792969 163.808594 497.628906 163.605469 498.304688 163.855469 C 498.980469 164.105469 499.449219 164.796875 499.417969 165.492188 C 499.390625 166.171875 499.042969 167.089844 499.6875 167.375 C 499.886719 167.464844 500.121094 167.4375 500.335938 167.414062 C 501.152344 167.320312 501.996094 167.230469 502.789062 167.4375 C 503.585938 167.640625 504.332031 168.207031 504.476562 168.984375 C 504.753906 170.441406 502.917969 171.917969 503.664062 173.210938 C 504.273438 174.261719 506.238281 174.300781 506.425781 175.492188 C 506.613281 176.734375 504.570312 177.3125 504.382812 178.550781 C 504.25 179.394531 505.042969 180.179688 504.914062 181.023438 C 504.777344 181.894531 503.75 182.347656 502.839844 182.472656 C 501.929688 182.597656 500.933594 182.582031 500.207031 183.121094 C 499.429688 183.703125 499.226562 184.734375 498.6875 185.53125 C 498.144531 186.320312 496.753906 186.78125 496.261719 185.957031 C 495.972656 185.472656 496.21875 184.839844 496.039062 184.308594 C 495.683594 183.242188 494.109375 183.28125 492.972656 183.542969 L 493.082031 182.878906 " fill-opacity="1" fill-rule="nonzero"/><path fill="#000d39" d="M 687.875 179.898438 C 689.886719 175.421875 692.410156 171.175781 695.378906 167.269531 C 696.914062 165.257812 698.605469 163.296875 700.800781 162.050781 C 701.992188 161.375 703.355469 160.921875 704.714844 161.066406 C 706.074219 161.210938 707.410156 162.046875 707.875 163.332031 C 708.296875 164.488281 707.960938 165.8125 707.285156 166.835938 C 706.609375 167.863281 705.625 168.644531 704.644531 169.382812 C 699.152344 173.527344 693.113281 176.9375 686.730469 179.511719 L 687.875 179.898438 " fill-opacity="1" fill-rule="nonzero"/><path fill="#000d39" d="M 689.808594 178.058594 C 691.886719 181.0625 690.828125 185.394531 687.449219 187.726562 C 684.070312 190.058594 679.648438 189.511719 677.574219 186.507812 C 675.5 183.5 676.554688 179.171875 679.933594 176.839844 C 683.3125 174.507812 687.734375 175.050781 689.808594 178.058594 " fill-opacity="1" fill-rule="nonzero"/><path fill="#ffc086" d="M 508.683594 198.203125 L 501.925781 185.066406 C 502.113281 185.121094 502.308594 185.160156 502.515625 185.160156 C 503.671875 185.160156 504.605469 184.222656 504.605469 183.066406 C 504.605469 181.910156 503.671875 180.972656 502.515625 180.972656 C 501.597656 180.972656 500.828125 181.5625 500.546875 182.378906 L 498.953125 179.289062 C 498.460938 178.328125 497.347656 177.855469 496.316406 178.1875 C 493.46875 179.089844 488.367188 181.824219 488.648438 189.746094 C 488.675781 190.5 489.382812 191.050781 490.117188 190.875 L 493.863281 189.984375 L 495.050781 202.011719 C 495.21875 203.707031 496.421875 205.125 498.074219 205.535156 C 501.160156 206.304688 506.058594 206.601562 508.65625 201.953125 C 509.304688 200.792969 509.289062 199.382812 508.683594 198.203125 " fill-opacity="1" fill-rule="nonzero"/><path fill="#ffc086" d="M 694.78125 193.734375 L 684.824219 182.820312 C 685.019531 182.824219 685.21875 182.8125 685.417969 182.757812 C 686.53125 182.453125 687.191406 181.304688 686.886719 180.1875 C 686.589844 179.074219 685.4375 178.414062 684.320312 178.714844 C 683.4375 178.953125 682.851562 179.726562 682.789062 180.585938 L 680.445312 178.019531 C 679.71875 177.222656 678.519531 177.058594 677.613281 177.644531 C 675.101562 179.261719 670.886719 183.234375 673.230469 190.804688 C 673.453125 191.53125 674.28125 191.875 674.945312 191.511719 L 678.328125 189.675781 L 682.617188 200.976562 C 683.21875 202.566406 684.753906 203.621094 686.453125 203.585938 C 689.632812 203.519531 694.441406 202.527344 695.734375 197.359375 C 696.054688 196.074219 695.671875 194.714844 694.78125 193.734375 " fill-opacity="1" fill-rule="nonzero"/><path fill="#ffc086" d="M 570.542969 168.574219 L 575.925781 154.816406 C 575.746094 154.890625 575.554688 154.949219 575.351562 154.972656 C 574.199219 155.085938 573.171875 154.25 573.054688 153.101562 C 572.9375 151.953125 573.773438 150.921875 574.921875 150.804688 C 575.832031 150.710938 576.65625 151.21875 577.027344 152.003906 L 578.292969 148.769531 C 578.6875 147.761719 579.746094 147.183594 580.804688 147.402344 C 583.730469 148.015625 589.085938 150.210938 589.609375 158.121094 C 589.660156 158.878906 589.011719 159.492188 588.261719 159.394531 L 584.445312 158.890625 L 584.488281 170.980469 C 584.496094 172.679688 583.445312 174.214844 581.839844 174.789062 C 578.851562 175.867188 574.007812 176.664062 570.945312 172.300781 C 570.1875 171.21875 570.058594 169.808594 570.542969 168.574219 " fill-opacity="1" fill-rule="nonzero"/><path fill="#efefef" d="M 663.703125 195.117188 C 661.152344 195.117188 659.082031 193.046875 659.082031 190.496094 L 659.082031 183.730469 L 668.324219 183.730469 L 668.324219 190.496094 C 668.324219 193.046875 666.253906 195.117188 663.703125 195.117188 " fill-opacity="1" fill-rule="nonzero"/><path fill="#000d39" d="M 663.019531 179.585938 C 662.003906 178.46875 661.324219 177.113281 661.351562 175.566406 C 661.371094 174.660156 661.949219 173.742188 661.902344 172.855469 C 661.8125 171.328125 659.808594 170.363281 659.164062 169.113281 C 658.050781 166.945312 660.621094 166.433594 661.335938 164.832031 C 661.738281 163.933594 661.839844 162.160156 662.683594 161.570312 C 664.230469 160.488281 665.179688 163.039062 665.011719 164.15625 C 664.882812 164.992188 664.484375 165.796875 664.152344 166.5625 C 663.742188 167.511719 663.160156 168.539062 663.144531 169.597656 C 663.132812 170.128906 663.265625 170.558594 663.515625 171.027344 C 664.257812 172.429688 664.824219 173.28125 663.890625 174.847656 C 662.886719 176.542969 662.371094 177.78125 662.503906 179.796875 C 662.527344 180.179688 663.128906 180.183594 663.105469 179.796875 C 662.972656 177.816406 663.632812 176.535156 664.570312 174.90625 C 664.980469 174.1875 665.3125 173.394531 665.101562 172.558594 C 664.746094 171.144531 663.449219 170.460938 663.902344 168.785156 C 664.164062 167.804688 664.683594 166.902344 665.0625 165.960938 C 665.582031 164.667969 666.0625 163.121094 665.179688 161.867188 C 664.605469 161.050781 663.464844 160.332031 662.511719 160.925781 C 661.535156 161.539062 661.308594 163.171875 660.953125 164.148438 C 660.347656 165.792969 658.175781 165.910156 658.203125 167.902344 C 658.210938 168.671875 658.570312 169.339844 659.007812 169.941406 C 659.402344 170.488281 659.929688 170.910156 660.347656 171.429688 C 661.34375 172.675781 661.175781 173.125 660.902344 174.347656 C 660.429688 176.460938 661.171875 178.441406 662.59375 180.007812 C 662.851562 180.292969 663.277344 179.871094 663.019531 179.585938 " fill-opacity="1" fill-rule="nonzero"/><path fill="#ffc086" d="M 638.355469 199.234375 C 638.25 195.589844 638.292969 191.941406 638.488281 188.304688 C 638.523438 187.625 638.570312 186.230469 638.871094 185.609375 C 639.773438 183.757812 642.472656 183.585938 644.777344 183.378906 C 648.917969 183.003906 653.089844 183.199219 657.25 183.261719 C 658.25 183.277344 659.28125 183.308594 660.191406 183.65625 C 661.109375 184.007812 661.894531 184.753906 661.910156 185.617188 C 661.9375 187.1875 659.757812 187.957031 657.992188 188.300781 C 656.914062 188.511719 655.832031 188.722656 654.753906 188.933594 C 657.03125 188.667969 659.519531 188.4375 661.476562 189.476562 C 662.347656 189.941406 663.097656 190.804688 662.8125 191.65625 C 662.519531 192.53125 661.347656 192.890625 660.332031 193.128906 C 659.007812 193.433594 657.679688 193.742188 656.359375 194.046875 C 658.703125 193.90625 660.578125 193.523438 662.179688 195.015625 C 662.449219 195.269531 662.683594 195.570312 662.753906 195.910156 C 662.863281 196.394531 662.625 196.894531 662.269531 197.28125 C 661.042969 198.628906 659.585938 199.089844 657.609375 199.085938 C 651.214844 199.070312 644.820312 199.058594 638.425781 199.046875 L 638.355469 199.234375 " fill-opacity="1" fill-rule="nonzero"/><path fill="#efefef" d="M 456.527344 230.320312 C 456.527344 231.480469 455.589844 232.417969 454.433594 232.417969 C 453.273438 232.417969 452.335938 231.480469 452.335938 230.320312 C 452.335938 229.164062 453.273438 228.222656 454.433594 228.222656 C 455.589844 228.222656 456.527344 229.164062 456.527344 230.320312 " fill-opacity="1" fill-rule="nonzero"/><path fill="#000d39" d="M 577.460938 258.210938 C 578.824219 261.351562 580.265625 264.449219 581.792969 267.507812 C 582.050781 268.027344 582.828125 267.574219 582.570312 267.054688 C 581.042969 263.992188 579.601562 260.894531 578.238281 257.757812 C 578.007812 257.226562 577.230469 257.6875 577.460938 258.210938 " fill-opacity="1" fill-rule="nonzero"/><path fill="#000d39" d="M 582.105469 256.109375 C 584.148438 259.65625 586.191406 263.199219 588.234375 266.742188 C 588.527344 267.246094 589.304688 266.792969 589.011719 266.289062 C 586.96875 262.746094 584.925781 259.199219 582.882812 255.65625 C 582.59375 255.152344 581.8125 255.605469 582.105469 256.109375 " fill-opacity="1" fill-rule="nonzero"/><path fill="#000d39" d="M 652.265625 299.984375 C 655.015625 304.339844 657.972656 308.546875 661.128906 312.621094 C 661.484375 313.082031 662.117188 312.4375 661.765625 311.984375 C 658.65625 307.972656 655.753906 303.816406 653.042969 299.527344 C 652.730469 299.039062 651.953125 299.492188 652.265625 299.984375 " fill-opacity="1" fill-rule="nonzero"/><path fill="#000d39" d="M 658.300781 296.511719 C 660.988281 300.488281 663.679688 304.464844 666.371094 308.445312 C 666.695312 308.921875 667.472656 308.472656 667.148438 307.988281 C 664.457031 304.011719 661.765625 300.035156 659.074219 296.058594 C 658.753906 295.582031 657.972656 296.03125 658.300781 296.511719 " fill-opacity="1" fill-rule="nonzero"/><path fill="#000d39" d="M 687.890625 243.683594 C 692.523438 251.574219 697.574219 259.207031 702.703125 266.785156 C 703.023438 267.265625 703.804688 266.8125 703.476562 266.332031 C 698.351562 258.753906 693.304688 251.121094 688.667969 243.226562 C 688.375 242.730469 687.597656 243.183594 687.890625 243.683594 " fill-opacity="1" fill-rule="nonzero"/><path fill="#000d39" d="M 604.632812 247.09375 C 607.949219 253.410156 611.273438 259.726562 614.589844 266.042969 C 614.863281 266.558594 615.640625 266.101562 615.367188 265.589844 C 612.050781 259.273438 608.730469 252.957031 605.410156 246.640625 C 605.136719 246.125 604.363281 246.582031 604.632812 247.09375 " fill-opacity="1" fill-rule="nonzero"/><path fill="#000d39" d="M 578.832031 281.742188 C 569.28125 282.878906 560.0625 285.636719 551.46875 289.953125 C 550.777344 290.300781 551.386719 291.335938 552.074219 290.988281 C 560.46875 286.773438 569.5 284.050781 578.832031 282.941406 C 579.585938 282.851562 579.597656 281.652344 578.832031 281.742188 " fill-opacity="1" fill-rule="nonzero"/><path fill="#000d39" d="M 670.917969 224.597656 C 674.757812 225.085938 679.246094 225.542969 682.683594 223.34375 C 686.402344 220.96875 687.609375 215.589844 689.167969 211.753906 C 689.386719 211.21875 688.515625 210.984375 688.300781 211.515625 C 686.769531 215.28125 685.59375 220.761719 681.757812 222.847656 C 678.503906 224.617188 674.441406 224.148438 670.917969 223.699219 C 670.347656 223.625 670.351562 224.527344 670.917969 224.597656 " fill-opacity="1" fill-rule="nonzero"/><path fill="#000d39" d="M 652.902344 225.066406 C 656.394531 218.582031 659.648438 211.855469 664.09375 205.957031 C 664.441406 205.492188 663.660156 205.042969 663.3125 205.5 C 658.871094 211.402344 655.617188 218.128906 652.121094 224.609375 C 651.847656 225.121094 652.625 225.578125 652.902344 225.066406 " fill-opacity="1" fill-rule="nonzero"/><path fill="#000d39" d="M 497.84375 230.324219 C 501.085938 230.25 504.332031 230.15625 507.574219 229.988281 C 509.316406 229.898438 511.097656 229.710938 511.914062 227.945312 C 512.738281 226.164062 512.117188 224.011719 511.648438 222.230469 C 510.816406 219.070312 509.960938 215.910156 509.117188 212.75 C 508.96875 212.191406 508.097656 212.429688 508.25 212.992188 C 508.832031 215.179688 509.417969 217.367188 510 219.550781 C 510.535156 221.550781 511.398438 223.710938 511.394531 225.804688 C 511.394531 227.667969 510.496094 228.636719 508.628906 229.027344 C 507.566406 229.246094 506.320312 229.144531 505.238281 229.191406 C 502.773438 229.289062 500.308594 229.363281 497.84375 229.421875 C 497.265625 229.433594 497.265625 230.335938 497.84375 230.324219 " fill-opacity="1" fill-rule="nonzero"/><path fill="#000d39" d="M 483.230469 233.371094 C 482.652344 226.011719 482.070312 218.652344 481.492188 211.296875 C 481.445312 210.722656 480.546875 210.71875 480.59375 211.296875 C 481.171875 218.652344 481.75 226.011719 482.328125 233.371094 C 482.378906 233.945312 483.277344 233.949219 483.230469 233.371094 " fill-opacity="1" fill-rule="nonzero"/><path fill="#000d39" d="M 484.113281 239.355469 C 487.015625 237.734375 490.007812 236.316406 493.101562 235.097656 C 493.632812 234.886719 493.402344 234.015625 492.863281 234.226562 C 489.695312 235.472656 486.628906 236.917969 483.65625 238.578125 C 483.152344 238.863281 483.605469 239.636719 484.113281 239.355469 " fill-opacity="1" fill-rule="nonzero"/><path fill="#000d39" d="M 445.203125 185.902344 C 445.914062 187.648438 446.636719 189.386719 447.332031 191.140625 C 447.660156 191.972656 448.121094 192.925781 448.125 193.84375 C 448.136719 196.726562 444.871094 196.042969 444.417969 193.789062 C 444.300781 193.222656 443.429688 193.460938 443.546875 194.027344 C 443.804688 195.292969 444.566406 196.363281 445.863281 196.714844 C 446.773438 196.96875 448.296875 196.796875 448.847656 195.90625 C 449.46875 194.898438 448.964844 193.042969 448.632812 192.015625 C 447.929688 189.859375 446.925781 187.765625 446.070312 185.664062 C 445.855469 185.132812 444.984375 185.367188 445.203125 185.902344 " fill-opacity="1" fill-rule="nonzero"/><path fill="#000d39" d="M 449.988281 184.628906 C 450.570312 186.375 451.152344 188.121094 451.734375 189.867188 C 451.941406 190.503906 452.535156 191.53125 452.488281 192.195312 C 452.273438 195.214844 449.761719 193.460938 448.691406 192.648438 C 448.230469 192.296875 447.78125 193.078125 448.238281 193.425781 C 449.566406 194.433594 452.382812 195.804688 453.324219 193.472656 C 453.773438 192.355469 453.0625 191.011719 452.71875 189.976562 C 452.097656 188.117188 451.480469 186.25 450.859375 184.386719 C 450.675781 183.839844 449.804688 184.074219 449.988281 184.628906 " fill-opacity="1" fill-rule="nonzero"/><path fill="#000d39" d="M 454.816406 182.554688 C 453.28125 183.984375 451.027344 186.910156 451.652344 189.207031 C 452.261719 191.460938 455.246094 190.433594 456.394531 189.335938 C 456.183594 189.125 455.96875 188.914062 455.757812 188.699219 C 454.859375 189.632812 454.121094 190.648438 453.601562 191.839844 C 453.351562 192.417969 453.152344 193.019531 453.011719 193.632812 C 452.921875 194.046875 452.921875 195.484375 452.664062 195.703125 C 452.878906 195.703125 453.089844 195.703125 453.304688 195.703125 C 453.328125 195.777344 453.351562 195.851562 453.375 195.921875 C 453.191406 196.027344 453.007812 196.128906 452.820312 196.234375 C 452.847656 196.246094 452.871094 196.253906 452.894531 196.257812 C 453.449219 196.445312 453.683594 195.574219 453.136719 195.394531 C 453.113281 195.382812 453.085938 195.375 453.058594 195.367188 C 452.820312 195.285156 452.578125 195.460938 452.507812 195.679688 C 452.492188 195.730469 452.476562 195.773438 452.460938 195.820312 C 452.414062 195.96875 452.464844 196.152344 452.578125 196.257812 C 452.609375 196.285156 452.636719 196.3125 452.664062 196.339844 C 452.851562 196.519531 453.113281 196.503906 453.304688 196.339844 C 453.929688 195.804688 453.722656 194.578125 453.882812 193.875 C 454.269531 192.125 455.160156 190.621094 456.394531 189.335938 C 456.796875 188.917969 456.179688 188.296875 455.757812 188.699219 C 454.78125 189.632812 452.464844 190.0625 452.648438 187.730469 C 452.691406 187.1875 453.136719 186.292969 453.339844 185.898438 C 453.871094 184.863281 454.605469 183.984375 455.453125 183.195312 C 455.878906 182.796875 455.238281 182.160156 454.816406 182.554688 " fill-opacity="1" fill-rule="nonzero"/><path fill="#000d39" d="M 455.484375 189.207031 C 454.871094 187.976562 454.359375 186.714844 453.9375 185.40625 C 453.761719 184.855469 452.890625 185.09375 453.070312 185.644531 C 453.515625 187.027344 454.058594 188.363281 454.707031 189.660156 C 454.964844 190.179688 455.742188 189.722656 455.484375 189.207031 " fill-opacity="1" fill-rule="nonzero"/><path fill="#000d39" d="M 444.546875 194.164062 C 445.683594 193.679688 446.816406 193.195312 447.953125 192.710938 C 448.871094 192.320312 451.226562 190.914062 452.195312 191.226562 C 452.746094 191.410156 452.984375 190.539062 452.433594 190.359375 C 451.34375 190.003906 450.179688 190.792969 449.199219 191.207031 C 447.496094 191.9375 445.796875 192.660156 444.09375 193.386719 C 443.5625 193.609375 444.019531 194.386719 444.546875 194.164062 " fill-opacity="1" fill-rule="nonzero"/><path fill="#000d39" d="M 449.125 177.414062 C 450.195312 177.074219 451.265625 176.734375 452.332031 176.390625 C 452.882812 176.21875 452.648438 175.347656 452.09375 175.523438 C 451.023438 175.863281 449.953125 176.203125 448.886719 176.542969 C 448.335938 176.71875 448.570312 177.589844 449.125 177.414062 " fill-opacity="1" fill-rule="nonzero"/><path fill="#000d39" d="M 487.527344 244.511719 C 490.296875 242.886719 493.21875 241.671875 496.320312 240.847656 C 496.882812 240.699219 496.644531 239.832031 496.082031 239.980469 C 492.90625 240.820312 489.910156 242.070312 487.074219 243.730469 C 486.574219 244.023438 487.027344 244.804688 487.527344 244.511719 " fill-opacity="1" fill-rule="nonzero"/><path fill="#000d39" d="M 493.503906 182.339844 C 494.496094 182.035156 495.5 182.542969 495.898438 183.488281 C 496.125 184.019531 496.902344 183.558594 496.679688 183.03125 C 496.125 181.730469 494.605469 181.0625 493.265625 181.46875 C 492.714844 181.636719 492.949219 182.507812 493.503906 182.339844 " fill-opacity="1" fill-rule="nonzero"/><path fill="#000d39" d="M 490.28125 182.492188 C 489.390625 183.015625 488.59375 183.667969 487.894531 184.433594 C 487.699219 184.648438 487.730469 184.984375 487.988281 185.140625 C 488.480469 185.4375 489.003906 185.636719 489.570312 185.734375 C 490.136719 185.835938 490.378906 184.964844 489.808594 184.867188 C 489.316406 184.78125 488.871094 184.621094 488.441406 184.359375 C 488.472656 184.597656 488.5 184.832031 488.535156 185.066406 C 489.179688 184.359375 489.910156 183.757812 490.738281 183.269531 C 491.234375 182.972656 490.78125 182.191406 490.28125 182.492188 " fill-opacity="1" fill-rule="nonzero"/><path fill="#000d39" d="M 491.113281 188.550781 C 491.816406 189.078125 492.84375 188.660156 493.117188 187.878906 C 493.308594 187.328125 492.4375 187.09375 492.246094 187.636719 C 492.148438 187.921875 491.773438 187.925781 491.570312 187.777344 C 491.375 187.628906 491.066406 187.742188 490.953125 187.9375 C 490.820312 188.167969 490.917969 188.40625 491.113281 188.550781 " fill-opacity="1" fill-rule="nonzero"/><path fill="#000d39" d="M 501.832031 184.183594 C 502.257812 183.71875 502.675781 183.25 503.09375 182.785156 C 503.480469 182.355469 502.847656 181.714844 502.460938 182.144531 C 502.039062 182.613281 501.617188 183.082031 501.199219 183.546875 C 500.8125 183.976562 501.445312 184.617188 501.832031 184.183594 " fill-opacity="1" fill-rule="nonzero"/><path fill="#000d39" d="M 475.152344 302.574219 C 472.15625 290.914062 469.566406 279.148438 467.414062 267.300781 C 466.898438 264.46875 466.054688 261.421875 466.304688 258.523438 C 466.554688 255.691406 468.070312 253.121094 470.117188 251.207031 C 474.320312 247.277344 480.285156 246.515625 485.800781 246.582031 C 486.382812 246.589844 486.382812 245.6875 485.800781 245.679688 C 480.429688 245.617188 474.710938 246.324219 470.382812 249.789062 C 466.449219 252.941406 464.886719 257.308594 465.617188 262.246094 C 467.648438 275.890625 470.855469 289.464844 474.28125 302.8125 C 474.425781 303.375 475.292969 303.136719 475.152344 302.574219 " fill-opacity="1" fill-rule="nonzero"/><path fill="#000d39" d="M 581.910156 152.519531 C 582.203125 151.65625 583.164062 151.195312 584.027344 151.449219 C 584.585938 151.609375 584.824219 150.742188 584.265625 150.582031 C 582.917969 150.183594 581.492188 150.960938 581.042969 152.277344 C 580.851562 152.828125 581.726562 153.066406 581.910156 152.519531 " fill-opacity="1" fill-rule="nonzero"/><path fill="#000d39" d="M 574.226562 153.023438 C 574.867188 153.167969 575.4375 153.414062 575.980469 153.78125 C 576.460938 154.109375 576.914062 153.328125 576.433594 153.003906 C 575.835938 152.597656 575.171875 152.3125 574.464844 152.15625 C 573.898438 152.03125 573.660156 152.902344 574.226562 153.023438 " fill-opacity="1" fill-rule="nonzero"/><path fill="#000d39" d="M 586.59375 151.761719 C 587.507812 152.226562 588.378906 152.757812 589.222656 153.34375 C 589.167969 153.140625 589.113281 152.933594 589.058594 152.726562 C 588.832031 153.179688 588.503906 153.480469 588.039062 153.679688 C 587.507812 153.902344 587.964844 154.679688 588.492188 154.453125 C 589.085938 154.203125 589.550781 153.757812 589.835938 153.179688 C 589.953125 152.949219 589.886719 152.710938 589.675781 152.566406 C 588.835938 151.976562 587.960938 151.453125 587.050781 150.980469 C 586.53125 150.71875 586.078125 151.496094 586.59375 151.761719 " fill-opacity="1" fill-rule="nonzero"/><path fill="#000d39" d="M 583.964844 156.726562 C 584.378906 157.523438 585.484375 157.8125 586.234375 157.304688 C 586.710938 156.980469 586.261719 156.199219 585.777344 156.523438 C 585.421875 156.769531 584.945312 156.660156 584.742188 156.273438 C 584.472656 155.757812 583.695312 156.214844 583.964844 156.726562 " fill-opacity="1" fill-rule="nonzero"/><path fill="#000d39" d="M 589.066406 201.230469 C 586.816406 201.230469 584.566406 201.230469 582.316406 201.230469 C 581.738281 201.230469 581.738281 202.132812 582.316406 202.132812 C 584.566406 202.132812 586.816406 202.132812 589.066406 202.132812 C 589.644531 202.132812 589.644531 201.230469 589.066406 201.230469 " fill-opacity="1" fill-rule="nonzero"/><path fill="#000d39" d="M 589.269531 205.730469 C 587.023438 205.730469 584.773438 205.730469 582.523438 205.730469 C 581.941406 205.730469 581.941406 206.628906 582.523438 206.628906 C 584.773438 206.628906 587.023438 206.628906 589.269531 206.628906 C 589.847656 206.628906 589.851562 205.730469 589.269531 205.730469 " fill-opacity="1" fill-rule="nonzero"/><path fill="#000d39" d="M 589.636719 197.796875 C 589.636719 202.160156 589.636719 206.519531 589.636719 210.882812 C 589.636719 211.464844 590.539062 211.464844 590.539062 210.882812 C 590.539062 206.519531 590.539062 202.160156 590.539062 197.796875 C 590.539062 197.21875 589.636719 197.214844 589.636719 197.796875 " fill-opacity="1" fill-rule="nonzero"/><path fill="#000d39" d="M 583.707031 193.300781 C 583.707031 194.320312 583.707031 195.34375 583.707031 196.367188 C 583.707031 196.945312 584.609375 196.949219 584.609375 196.367188 C 584.609375 195.34375 584.609375 194.320312 584.609375 193.300781 C 584.609375 192.71875 583.707031 192.71875 583.707031 193.300781 " fill-opacity="1" fill-rule="nonzero"/><path fill="#000d39" d="M 595.363281 213.71875 C 595.363281 216.800781 598.507812 217.878906 601.03125 218.332031 C 601.597656 218.4375 601.84375 217.570312 601.269531 217.464844 C 599.1875 217.085938 596.265625 216.347656 596.265625 213.71875 C 596.265625 213.136719 595.363281 213.136719 595.363281 213.71875 " fill-opacity="1" fill-rule="nonzero"/><path fill="#000d39" d="M 559.414062 192.523438 C 563.777344 192.523438 568.140625 192.523438 572.503906 192.523438 C 573.082031 192.523438 573.082031 191.621094 572.503906 191.621094 C 568.140625 191.621094 563.777344 191.621094 559.414062 191.621094 C 558.835938 191.621094 558.835938 192.523438 559.414062 192.523438 " fill-opacity="1" fill-rule="nonzero"/><path fill="#000d39" d="M 601.398438 142.710938 C 599.402344 143.464844 597.324219 146.078125 599.675781 147.796875 C 600.941406 148.722656 602.960938 148.996094 604.453125 149.285156 C 606.710938 149.730469 609 149.871094 611.300781 149.792969 C 611.152344 149.640625 611 149.492188 610.851562 149.339844 C 610.878906 151.609375 612.574219 153.316406 614.835938 153.363281 C 615.417969 153.375 615.417969 152.472656 614.835938 152.460938 C 613.085938 152.425781 611.773438 151.078125 611.75 149.339844 C 611.75 149.101562 611.546875 148.882812 611.300781 148.890625 C 609.078125 148.96875 606.878906 148.84375 604.691406 148.417969 C 603.761719 148.238281 602.640625 148.089844 601.777344 147.6875 C 600.511719 147.464844 599.855469 146.539062 599.804688 144.910156 C 600.265625 144.246094 600.875 143.800781 601.636719 143.582031 C 602.175781 143.378906 601.941406 142.503906 601.398438 142.710938 " fill-opacity="1" fill-rule="nonzero"/><path fill="#000d39" d="M 596.671875 147.90625 C 596.671875 146.339844 596.671875 144.773438 596.671875 143.207031 C 596.671875 142.625 595.773438 142.625 595.773438 143.207031 C 595.773438 144.773438 595.773438 146.339844 595.773438 147.90625 C 595.773438 148.488281 596.671875 148.488281 596.671875 147.90625 " fill-opacity="1" fill-rule="nonzero"/><path fill="#000d39" d="M 602.640625 147.902344 C 602.433594 146.273438 602.355469 144.644531 602.398438 143 C 602.414062 142.421875 601.511719 142.421875 601.496094 143 C 601.453125 144.644531 601.535156 146.273438 601.738281 147.902344 C 601.8125 148.46875 602.714844 148.476562 602.640625 147.902344 " fill-opacity="1" fill-rule="nonzero"/><path fill="#000d39" d="M 597.457031 149.65625 C 599.5625 149.382812 601.671875 149.191406 603.792969 149.085938 C 604.371094 149.054688 604.375 148.15625 603.792969 148.183594 C 601.671875 148.292969 599.5625 148.484375 597.457031 148.753906 C 596.890625 148.824219 596.882812 149.726562 597.457031 149.65625 " fill-opacity="1" fill-rule="nonzero"/><path fill="#000d39" d="M 647.75 189.046875 C 651.503906 189.046875 655.25 189.046875 659 189.046875 C 659.578125 189.046875 659.578125 188.144531 659 188.144531 C 655.25 188.144531 651.503906 188.144531 647.75 188.144531 C 647.171875 188.144531 647.171875 189.046875 647.75 189.046875 " fill-opacity="1" fill-rule="nonzero"/><path fill="#000d39" d="M 647.75 194.890625 C 651.503906 194.890625 655.25 194.890625 659 194.890625 C 659.578125 194.890625 659.578125 193.988281 659 193.988281 C 655.25 193.988281 651.503906 193.988281 647.75 193.988281 C 647.171875 193.988281 647.171875 194.890625 647.75 194.890625 " fill-opacity="1" fill-rule="nonzero"/><path fill="#000d39" d="M 659.164062 183.691406 C 659.164062 188.867188 659.164062 194.046875 659.164062 199.226562 C 659.164062 199.808594 660.0625 199.808594 660.0625 199.226562 C 660.0625 194.046875 660.0625 188.867188 660.0625 183.691406 C 660.0625 183.109375 659.164062 183.109375 659.164062 183.691406 " fill-opacity="1" fill-rule="nonzero"/><path fill="#000d39" d="M 676.972656 181.691406 C 677.910156 181.203125 679.132812 181.433594 679.785156 182.285156 C 680.132812 182.738281 680.917969 182.289062 680.566406 181.832031 C 679.597656 180.578125 677.929688 180.175781 676.515625 180.914062 C 676 181.183594 676.457031 181.960938 676.972656 181.691406 " fill-opacity="1" fill-rule="nonzero"/><path fill="#000d39" d="M 673.457031 182.269531 C 672.683594 182.90625 671.914062 183.542969 671.136719 184.179688 C 670.960938 184.324219 670.964844 184.671875 671.136719 184.816406 C 671.570312 185.179688 672.046875 185.371094 672.613281 185.386719 C 673.195312 185.398438 673.191406 184.496094 672.613281 184.484375 C 672.300781 184.476562 672.019531 184.386719 671.773438 184.179688 C 671.773438 184.390625 671.773438 184.601562 671.773438 184.816406 C 672.546875 184.179688 673.324219 183.542969 674.097656 182.90625 C 674.546875 182.539062 673.902344 181.90625 673.457031 182.269531 " fill-opacity="1" fill-rule="nonzero"/><path fill="#000d39" d="M 676.5 188.476562 C 677.5625 188.429688 678.429688 187.792969 678.835938 186.820312 C 679.058594 186.285156 678.1875 186.054688 677.96875 186.582031 C 677.722656 187.164062 677.121094 187.550781 676.5 187.578125 C 675.921875 187.601562 675.917969 188.503906 676.5 188.476562 " fill-opacity="1" fill-rule="nonzero"/><path fill="#000d39" d="M 684.539062 181.511719 C 684.824219 181.179688 685.109375 180.851562 685.394531 180.519531 C 685.554688 180.335938 685.574219 180.066406 685.394531 179.886719 C 685.234375 179.722656 684.917969 179.699219 684.757812 179.886719 C 684.472656 180.210938 684.183594 180.542969 683.898438 180.871094 C 683.742188 181.054688 683.71875 181.328125 683.898438 181.511719 C 684.0625 181.671875 684.375 181.695312 684.539062 181.511719 " fill-opacity="1" fill-rule="nonzero"/><path fill="#000d39" d="M 661.289062 245.234375 C 661.289062 241.757812 661.289062 238.28125 661.289062 234.804688 C 661.289062 234.226562 660.390625 234.226562 660.390625 234.804688 C 660.390625 238.28125 660.390625 241.757812 660.390625 245.234375 C 660.390625 245.8125 661.289062 245.8125 661.289062 245.234375 " fill-opacity="1" fill-rule="nonzero"/><path fill="#000d39" d="M 665.992188 245.644531 C 665.992188 241.964844 665.992188 238.28125 665.992188 234.601562 C 665.992188 234.019531 665.09375 234.019531 665.09375 234.601562 C 665.09375 238.28125 665.09375 241.964844 665.09375 245.644531 C 665.09375 246.222656 665.992188 246.222656 665.992188 245.644531 " fill-opacity="1" fill-rule="nonzero"/><path fill="#000d39" d="M 655.523438 244.457031 C 660.566406 244.457031 665.613281 244.457031 670.652344 244.457031 C 671.234375 244.457031 671.234375 243.558594 670.652344 243.558594 C 665.613281 243.558594 660.566406 243.558594 655.523438 243.558594 C 654.941406 243.558594 654.941406 244.457031 655.523438 244.457031 " fill-opacity="1" fill-rule="nonzero"/></svg>