<svg xmlns="http://www.w3.org/2000/svg" xmlns:xlink="http://www.w3.org/1999/xlink" width="1200" zoomAndPan="magnify" viewBox="0 0 900 449.999984" height="600" preserveAspectRatio="xMidYMid meet" version="1.0"><defs><clipPath id="edf74870a4"><path d="M 703 107.035156 L 739 107.035156 L 739 121 L 703 121 Z M 703 107.035156 " clip-rule="nonzero"/></clipPath><clipPath id="5fe3859433"><path d="M 513 307 L 648 307 L 648 364.253906 L 513 364.253906 Z M 513 307 " clip-rule="nonzero"/></clipPath><clipPath id="2f862e0e62"><path d="M 820 194 L 855.21875 194 L 855.21875 235 L 820 235 Z M 820 194 " clip-rule="nonzero"/></clipPath></defs><rect x="-90" width="1080" fill="#ffffff" y="-44.999998" height="539.99998" fill-opacity="1"/><rect x="-90" width="1080" fill="#f9f9f9" y="-44.999998" height="539.99998" fill-opacity="1"/><path fill="#000d39" d="M 725.953125 255.75 L 694.269531 255.75 L 695.828125 269.304688 L 703.785156 269.304688 L 703.785156 263.292969 L 708.8125 269.304688 L 736.535156 269.304688 C 735.070312 259.703125 728.488281 256.601562 725.953125 255.75 " fill-opacity="1" fill-rule="nonzero"/><path fill="#efefef" d="M 724.949219 255.46875 L 708.8125 177.441406 L 668.125 177.441406 L 647.8125 269.304688 L 679.140625 267.101562 L 688.105469 202.101562 L 694.269531 255.75 L 725.953125 255.75 C 725.332031 255.539062 724.949219 255.46875 724.949219 255.46875 " fill-opacity="1" fill-rule="nonzero"/><path fill="#ff494b" d="M 686.09375 139.207031 L 672.136719 139.207031 C 663.398438 139.207031 655.5625 144.578125 652.410156 152.726562 L 646.363281 168.351562 C 642.8125 177.53125 649.582031 187.414062 659.421875 187.414062 L 682.097656 186.527344 L 687.539062 178.140625 L 708.8125 177.441406 L 711.097656 164.148438 C 711.097656 164.148438 747.285156 156.6875 738.105469 120.070312 L 713.046875 120.070312 C 713.046875 120.070312 722.933594 139.207031 686.09375 139.207031 " fill-opacity="1" fill-rule="nonzero"/><g clip-path="url(#edf74870a4)"><path fill="#ffc086" d="M 716.007812 120.777344 C 713.679688 120.773438 711.351562 120.765625 709.027344 120.761719 C 708.472656 120.757812 707.871094 120.726562 707.460938 120.152344 C 706.644531 119.011719 707.191406 116.847656 707.925781 115.582031 C 706.820312 115.363281 705.738281 114.839844 704.742188 114.042969 C 704.4375 113.800781 704.132812 113.515625 703.945312 113.0625 C 703.566406 112.121094 703.886719 110.785156 704.449219 110.113281 C 705.011719 109.441406 705.742188 109.269531 706.4375 109.128906 C 715.285156 107.328125 724.253906 107.128906 733.128906 108.527344 C 734.148438 108.6875 735.210938 108.894531 736.066406 109.804688 C 737.988281 111.859375 737.972656 116.238281 738.339844 119.882812 C 738.386719 120.363281 738.535156 120.960938 738.839844 120.945312 C 739.144531 120.929688 738.894531 119.925781 738.757812 120.355469 L 716.007812 120.777344 " fill-opacity="1" fill-rule="nonzero"/></g><path fill="#000d39" d="M 687.742188 117.074219 C 685.582031 113.019531 680.0625 111.246094 675.992188 113.300781 C 674.367188 114.117188 672.953125 115.453125 671.175781 115.796875 C 667.863281 116.4375 664.78125 113.433594 661.417969 113.648438 C 658.070312 113.863281 655.316406 117.210938 651.988281 116.820312 C 649.304688 116.503906 647.167969 113.785156 644.476562 114.035156 C 642.152344 114.25 640.617188 116.5625 638.550781 117.664062 C 635.664062 119.203125 632.183594 118.222656 628.929688 118.074219 C 625.675781 117.929688 621.625 119.539062 621.539062 122.84375 C 621.464844 125.839844 624.808594 127.742188 627.75 127.972656 C 630.691406 128.207031 633.753906 127.507812 636.539062 128.488281 C 639.460938 129.519531 641.910156 132.324219 644.988281 132.011719 C 647.429688 131.761719 649.308594 129.5625 651.71875 129.105469 C 655.355469 128.417969 658.824219 131.839844 662.464844 131.183594 C 664.632812 130.792969 666.34375 129.019531 668.476562 128.46875 C 671.144531 127.777344 674.011719 129.089844 676.683594 128.417969 C 677.804688 128.136719 678.8125 127.519531 679.886719 127.09375 C 682.089844 126.21875 684.570312 126.136719 686.652344 125 C 688.734375 123.863281 690.207031 120.90625 688.6875 119.074219 L 687.742188 117.074219 " fill-opacity="1" fill-rule="nonzero"/><path fill="#000d39" d="M 705.4375 199.871094 L 667.871094 199.871094 L 677 150.410156 L 714.558594 150.410156 L 705.4375 199.871094 " fill-opacity="1" fill-rule="nonzero"/><path fill="#efefef" d="M 701.414062 192.878906 L 674.476562 192.878906 L 681.019531 157.40625 L 707.957031 157.40625 L 701.414062 192.878906 " fill-opacity="1" fill-rule="nonzero"/><path fill="#000d39" d="M 699.460938 159.257812 L 687.371094 159.257812 L 688.28125 151.726562 L 700.371094 151.726562 L 699.460938 159.257812 " fill-opacity="1" fill-rule="nonzero"/><path fill="#ff494b" d="M 659.421875 187.414062 L 682.097656 187.414062 L 682.097656 165.59375 L 656.941406 165.59375 L 659.421875 187.414062 " fill-opacity="1" fill-rule="nonzero"/><path fill="#ffc086" d="M 682.121094 165.519531 C 684.980469 165.480469 687.839844 165.441406 690.699219 165.402344 C 692.183594 165.378906 694.015625 165.574219 694.570312 166.929688 C 694.972656 167.914062 694.410156 169.078125 693.546875 169.714844 C 692.679688 170.351562 691.585938 170.585938 690.527344 170.800781 C 693.292969 170.402344 696.394531 170.90625 699.183594 171.058594 C 700.734375 171.148438 701.746094 172.941406 701.316406 174.269531 C 700.976562 175.320312 699.632812 175.605469 698.519531 175.71875 C 696.746094 175.902344 694.972656 176.085938 693.195312 176.265625 C 694.683594 176.015625 696.207031 175.976562 697.710938 176.136719 C 698.671875 176.242188 700.402344 175.863281 701.125 176.5 C 701.847656 177.140625 702.734375 179.132812 701.046875 179.96875 C 700.328125 180.324219 699.433594 180.410156 698.628906 180.484375 C 696.875 180.648438 695.121094 180.808594 693.367188 180.96875 C 695.5625 180.792969 698.785156 180.84375 700.8125 181.699219 C 701.957031 182.179688 702.21875 183.546875 701.796875 184.699219 C 701.515625 185.46875 700.609375 185.808594 699.796875 185.992188 C 694.492188 187.207031 682.097656 187.414062 682.097656 187.414062 L 682.121094 165.519531 " fill-opacity="1" fill-rule="nonzero"/><path fill="#000d39" d="M 818.742188 215.113281 L 763.199219 214.839844 L 738.324219 254.699219 L 804.363281 254.699219 L 818.742188 215.113281 " fill-opacity="1" fill-rule="nonzero"/><path fill="#79339c" d="M 763.199219 214.839844 L 771.527344 202.101562 C 762.199219 202.101562 754.636719 194.539062 754.636719 185.207031 L 754.636719 172.597656 L 777.269531 172.597656 C 777.269531 172.597656 776.335938 181.542969 781.878906 179.46875 C 786.503906 177.734375 783.503906 167.859375 807.050781 167.859375 L 820.800781 167.859375 C 833.152344 167.859375 841.488281 180.488281 836.632812 191.851562 L 827.230469 213.832031 C 824.882812 219.324219 819.484375 222.890625 813.515625 222.890625 L 790.945312 222.890625 L 790.945312 214.839844 L 763.199219 214.839844 " fill-opacity="1" fill-rule="nonzero"/><path fill="#006b85" d="M 738.324219 254.699219 L 725.519531 275.222656 L 796.910156 275.222656 L 804.363281 254.699219 L 738.324219 254.699219 " fill-opacity="1" fill-rule="nonzero"/><path fill="#ffc086" d="M 781.855469 201.429688 C 779.65625 201.507812 777.257812 201.734375 775.675781 203.46875 C 773.972656 205.339844 773.761719 208.351562 773.679688 211.082031 C 773.589844 213.960938 773.632812 216.859375 773.863281 219.734375 C 774 221.394531 773.957031 223.730469 774.703125 225.226562 C 775.441406 226.699219 778.09375 227.125 778.976562 225.289062 C 779.363281 224.476562 779.898438 223.289062 779.855469 222.355469 C 779.652344 224.386719 780.644531 226.792969 782.425781 226.746094 C 784.203125 226.703125 785.519531 224.417969 785.191406 222.398438 C 785.226562 225.085938 786.710938 227.339844 788.96875 226.675781 C 789.414062 226.542969 789.847656 226.308594 790.132812 225.898438 C 790.527344 225.332031 790.960938 224.542969 790.980469 223.808594 C 791.160156 216.691406 791.019531 201.445312 791.167969 201.347656 L 781.855469 201.429688 " fill-opacity="1" fill-rule="nonzero"/><path fill="#000d39" d="M 725.621094 330.191406 C 725.738281 336.058594 730.054688 340.375 735.328125 342.335938 C 737.609375 343.183594 740.480469 343.953125 742.738281 342.605469 C 744.128906 341.777344 745.410156 339.859375 744.558594 338.234375 C 743.648438 336.496094 741.183594 336.789062 739.761719 337.664062 C 737.707031 338.925781 737.035156 341.34375 736.8125 343.601562 C 736.246094 349.289062 737.894531 355.613281 743.273438 358.433594 C 743.855469 358.742188 744.375 357.851562 743.792969 357.546875 C 740.480469 355.808594 738.621094 352.597656 737.992188 348.976562 C 737.65625 347.015625 737.636719 344.902344 737.933594 342.9375 C 738.132812 341.632812 738.464844 340.3125 739.386719 339.300781 C 739.683594 339.050781 739.980469 338.800781 740.277344 338.550781 C 741.574219 337.613281 742.722656 338.042969 743.730469 339.828125 C 743.492188 342.523438 739.433594 342.402344 737.722656 342.011719 C 735.890625 341.589844 734.0625 340.8125 732.46875 339.8125 C 729.070312 337.683594 726.730469 334.269531 726.648438 330.191406 C 726.636719 329.527344 725.609375 329.527344 725.621094 330.191406 " fill-opacity="1" fill-rule="nonzero"/><path fill="#000d39" d="M 616.589844 153.695312 C 616.808594 150.792969 619.34375 144.46875 623.238281 146.761719 C 624.171875 147.316406 625.261719 148.480469 625.109375 149.644531 C 625.003906 150.433594 624.359375 151.289062 623.460938 151.085938 C 621.144531 150.566406 622.652344 145.6875 623.292969 144.40625 C 624.492188 142.015625 626.574219 140.273438 629.109375 139.472656 C 629.738281 139.277344 629.46875 138.285156 628.835938 138.484375 C 624.75 139.773438 621.625 143.4375 621.300781 147.777344 C 621.152344 149.804688 622.339844 153.675781 625.058594 151.675781 C 627.582031 149.820312 625.292969 146.441406 623.109375 145.527344 C 618.601562 143.644531 615.816406 150.320312 615.5625 153.695312 C 615.511719 154.355469 616.539062 154.351562 616.589844 153.695312 " fill-opacity="1" fill-rule="nonzero"/><path fill="#00a142" d="M 832.277344 157.667969 C 835.691406 156.027344 839.984375 152.476562 840.421875 148.398438 C 840.675781 146.007812 838.335938 144.007812 836.160156 145.5625 C 833.398438 147.535156 835.992188 150.929688 837.96875 152.257812 C 841.144531 154.386719 845.421875 155.390625 848.644531 152.890625 C 849.339844 152.355469 848.363281 151.394531 847.671875 151.925781 C 845.582031 153.546875 842.867188 153.132812 840.597656 152.132812 C 839.246094 151.539062 833.996094 147.929688 837.21875 146.542969 C 838.480469 146.003906 839.019531 147.109375 838.976562 148.167969 C 838.933594 149.515625 838.09375 150.78125 837.3125 151.855469 C 835.832031 153.886719 833.839844 155.40625 831.589844 156.488281 C 830.792969 156.871094 831.488281 158.046875 832.277344 157.667969 " fill-opacity="1" fill-rule="nonzero"/><path fill="#00a142" d="M 740.28125 219.742188 C 737.214844 218.207031 735.511719 214.375 736.417969 211.070312 C 736.65625 210.199219 737.511719 209.207031 738.28125 209.6875 C 738.578125 209.875 738.71875 210.226562 738.832031 210.558594 C 739.855469 213.5 740.28125 216.644531 740.085938 219.753906 L 740.28125 219.742188 " fill-opacity="1" fill-rule="nonzero"/><path fill="#00a142" d="M 846.152344 273.558594 C 846.96875 270.390625 849.496094 267.714844 852.609375 266.714844 C 853.132812 266.546875 853.761719 266.449219 854.167969 266.816406 C 854.847656 267.433594 854.179688 268.539062 853.496094 269.15625 C 851.429688 271.019531 849.109375 272.597656 846.617188 273.832031 L 846.152344 273.558594 " fill-opacity="1" fill-rule="nonzero"/><path fill="#000d39" d="M 493.898438 279.96875 C 497.324219 279.09375 500.511719 276.238281 500.984375 272.574219 C 501.199219 270.910156 499.894531 268.925781 498.015625 269.898438 C 495.578125 271.152344 498.109375 274.183594 499.332031 275.230469 C 502.34375 277.804688 506.507812 278.527344 510.242188 277.324219 C 510.871094 277.121094 510.601562 276.132812 509.96875 276.335938 C 507.804688 277.03125 505.574219 277.078125 503.402344 276.363281 C 501.714844 275.804688 498.21875 274 498.078125 271.890625 C 498.027344 271.074219 498.710938 270.347656 499.515625 270.878906 C 500.550781 271.558594 499.78125 273.355469 499.417969 274.1875 C 498.332031 276.644531 496.203125 278.320312 493.621094 278.980469 C 492.984375 279.144531 493.253906 280.132812 493.898438 279.96875 " fill-opacity="1" fill-rule="nonzero"/><path fill="#00a142" d="M 516.960938 173.886719 C 514.976562 173.648438 512.992188 173.414062 511.011719 173.175781 C 509.917969 173.042969 508.792969 172.902344 507.839844 172.359375 C 506.886719 171.8125 506.128906 170.757812 506.28125 169.671875 C 507.21875 168.757812 508.777344 169.214844 509.96875 169.765625 C 512.167969 170.777344 514.3125 171.914062 516.386719 173.164062 L 516.960938 173.886719 " fill-opacity="1" fill-rule="nonzero"/><path fill="#fdae72" d="M 731.332031 232.769531 C 726.902344 228.664062 722.101562 226.65625 716.757812 226.078125 C 720.921875 233.441406 723.921875 241.609375 727.792969 249.164062 C 734.53125 243.804688 737.132812 238.144531 731.332031 232.769531 " fill-opacity="1" fill-rule="nonzero"/><path fill="#fdae72" d="M 825.292969 225.714844 C 820.933594 222.292969 815.929688 221.804688 810.695312 223.152344 C 811.257812 224.292969 811.789062 225.425781 812.410156 226.460938 C 814.234375 229.199219 816.515625 230.570312 818.339844 233.304688 C 821.742188 238.296875 824.695312 243.398438 827.863281 248.277344 C 831.949219 239.613281 832.570312 231.429688 825.292969 225.714844 " fill-opacity="1" fill-rule="nonzero"/><path fill="#fdae72" d="M 812.410156 226.460938 C 811.789062 225.425781 811.257812 224.292969 810.695312 223.152344 C 794.039062 227.453125 775.082031 250.480469 767.320312 257.417969 C 757.121094 266.539062 743.207031 265.472656 743.207031 265.472656 C 742.007812 265.359375 740.808594 265.257812 739.613281 265.175781 C 740 265.507812 740.390625 265.835938 740.789062 266.15625 C 740.390625 265.835938 740 265.507812 739.613281 265.175781 C 714.6875 263.371094 691.917969 267.636719 678.542969 271.011719 C 671.199219 273.304688 666.164062 274.640625 666.164062 274.640625 C 666.164062 274.640625 670.765625 272.976562 678.542969 271.011719 C 692.988281 266.496094 716.355469 258.261719 727.792969 249.164062 C 723.921875 241.609375 720.921875 233.441406 716.757812 226.078125 C 697.203125 223.96875 670.339844 241.023438 627.300781 244.675781 C 572.5 249.328125 553.59375 285.777344 553.59375 285.777344 L 518.578125 361.878906 L 632.957031 362.265625 C 632.957031 362.265625 634.644531 358.484375 643.605469 343.863281 C 652.570312 329.246094 700.214844 324.597656 735.191406 320.125 C 770.167969 315.648438 789.96875 297.140625 801.980469 282.632812 C 809.054688 274.085938 822.015625 260.6875 827.863281 248.277344 C 824.695312 243.398438 821.742188 238.296875 818.339844 233.304688 C 816.515625 230.570312 814.234375 229.199219 812.410156 226.460938 " fill-opacity="1" fill-rule="nonzero"/><g clip-path="url(#5fe3859433)"><path fill="#000d39" d="M 513.269531 364.253906 L 647.859375 364.253906 L 647.859375 361.261719 C 609.488281 346.535156 573.863281 326.667969 538.199219 307.238281 L 513.269531 364.253906 " fill-opacity="1" fill-rule="nonzero"/></g><path fill="#efefef" d="M 544.066406 293.820312 L 538.199219 307.238281 C 573.863281 326.667969 609.488281 346.535156 647.859375 361.261719 L 651.511719 349.976562 C 629.074219 343.199219 544.066406 293.820312 544.066406 293.820312 " fill-opacity="1" fill-rule="nonzero"/><path fill="#efefef" d="M 554.152344 329.015625 C 554.152344 332.273438 551.507812 334.917969 548.25 334.917969 C 544.988281 334.917969 542.347656 332.273438 542.347656 329.015625 C 542.347656 325.753906 544.988281 323.109375 548.25 323.109375 C 551.507812 323.109375 554.152344 325.753906 554.152344 329.015625 " fill-opacity="1" fill-rule="nonzero"/><path fill="#efefef" d="M 544.734375 349.394531 C 544.734375 352.65625 542.09375 355.296875 538.832031 355.296875 C 535.574219 355.296875 532.933594 352.65625 532.933594 349.394531 C 532.933594 346.132812 535.574219 343.492188 538.832031 343.492188 C 542.09375 343.492188 544.734375 346.132812 544.734375 349.394531 " fill-opacity="1" fill-rule="nonzero"/><path fill="#00a142" d="M 536.058594 310.269531 C 530.78125 311.136719 525.304688 310.753906 520.203125 309.164062 C 518.410156 308.605469 516.273438 307.058594 517.039062 305.347656 C 517.457031 304.414062 518.578125 304.03125 519.59375 303.945312 C 522.300781 303.71875 524.902344 304.882812 527.371094 306.015625 C 530.566406 307.488281 533.769531 308.964844 536.96875 310.4375 C 534.617188 307.5625 533.027344 304.074219 532.410156 300.414062 C 532.164062 298.941406 532.09375 297.339844 532.839844 296.050781 C 533.589844 294.757812 535.421875 294.011719 536.640625 294.871094 C 537.6875 299.894531 537.859375 305.097656 537.152344 310.175781 L 536.058594 310.269531 " fill-opacity="1" fill-rule="nonzero"/><g clip-path="url(#2f862e0e62)"><path fill="#00a142" d="M 820.941406 223.0625 C 823.875 213.734375 829.214844 205.171875 836.300781 198.433594 C 838.613281 196.238281 841.394531 194.121094 844.585938 194.152344 C 845.03125 194.160156 845.503906 194.21875 845.832031 194.515625 C 846.28125 194.917969 846.304688 195.613281 846.238281 196.210938 C 845.933594 199.050781 844.476562 201.621094 842.945312 204.027344 C 838.753906 210.589844 833.6875 216.597656 827.925781 221.84375 C 835.207031 217.6875 843.503906 215.324219 851.882812 215.011719 C 853.304688 214.957031 855.222656 215.417969 855.21875 216.84375 C 855.214844 217.566406 854.660156 218.15625 854.117188 218.632812 C 847.636719 224.347656 838.59375 225.898438 830.058594 227.21875 C 836.828125 226.460938 843.988281 225.761719 850.171875 228.617188 C 851.503906 229.234375 852.949219 230.363281 852.722656 231.816406 C 852.457031 233.53125 850.222656 233.992188 848.484375 234.011719 C 842.820312 234.078125 837.144531 233.855469 831.5 233.339844 L 820.941406 223.0625 " fill-opacity="1" fill-rule="nonzero"/></g><path fill="#00a142" d="M 754.039062 187.945312 C 748.207031 190.234375 741.652344 188.71875 735.578125 187.183594 C 734.507812 186.914062 733.292969 186.539062 732.964844 185.398438 C 732.6875 184.460938 733.183594 183.488281 734 182.953125 C 735.269531 182.117188 736.816406 182.320312 738.25 182.597656 C 741.734375 183.273438 745.144531 184.347656 748.394531 185.785156 C 745.449219 185.34375 743.074219 183 741.804688 180.3125 C 741.046875 178.722656 740.617188 177.011719 740.324219 175.269531 C 739.964844 173.105469 742.40625 171.527344 744.160156 172.851562 C 745.460938 173.832031 746.585938 175.238281 747.480469 176.59375 C 750.007812 180.40625 752.210938 184.433594 754.058594 188.617188 L 754.039062 187.945312 " fill-opacity="1" fill-rule="nonzero"/><path fill="#00a142" d="M 536.714844 241.558594 C 534.171875 247.265625 528.496094 250.855469 523.140625 254.089844 C 522.195312 254.660156 521.078125 255.257812 520.058594 254.707031 C 519.214844 254.25 518.894531 253.234375 519.101562 252.28125 C 519.421875 250.808594 520.65625 249.851562 521.863281 249.03125 C 524.796875 247.035156 527.945312 245.363281 531.234375 244.058594 C 528.851562 245.832031 525.550781 245.894531 522.796875 244.941406 C 521.164062 244.375 519.679688 243.503906 518.273438 242.503906 C 516.523438 241.261719 517.160156 238.453125 519.3125 238.125 C 520.910156 237.882812 522.679688 238.054688 524.246094 238.359375 C 528.664062 239.203125 533 240.429688 537.195312 242.007812 L 536.714844 241.558594 " fill-opacity="1" fill-rule="nonzero"/><path fill="#00a142" d="M 792.292969 292.359375 C 794.378906 294.773438 796.5 297.164062 798.644531 299.527344 C 801.046875 302.179688 804.121094 305.03125 807.648438 304.449219 C 807.9375 302.90625 806.683594 301.53125 805.488281 300.511719 C 801.875 297.4375 797.792969 294.917969 793.425781 293.0625 C 800.054688 294.101562 807.417969 294.984375 812.957031 291.199219 C 813.304688 290.960938 813.667969 290.667969 813.734375 290.25 C 813.820312 289.734375 813.410156 289.273438 813 288.953125 C 811.195312 287.542969 808.789062 287.203125 806.5 287.152344 C 801.261719 287.039062 795.992188 288.210938 791.296875 290.542969 C 792.1875 292.113281 793.242188 293.582031 794.441406 294.921875 L 792.292969 292.359375 " fill-opacity="1" fill-rule="nonzero"/><path fill="#000d39" d="M 545.664062 283.785156 L 545.695312 283.941406 C 536.402344 285.820312 535.808594 293.777344 535.808594 293.777344 L 578.339844 293.777344 L 576.089844 283.785156 L 545.664062 283.785156 " fill-opacity="1" fill-rule="nonzero"/><path fill="#006b85" d="M 569.488281 254.453125 C 568.664062 250.792969 571.046875 247.183594 574.738281 246.507812 L 584.738281 244.667969 C 589.746094 243.746094 593.382812 239.378906 593.382812 234.289062 C 593.382812 228.457031 588.65625 223.734375 582.832031 223.734375 L 554.957031 223.734375 C 543.214844 223.734375 534.511719 234.632812 537.109375 246.085938 L 545.664062 283.785156 L 576.089844 283.785156 L 569.488281 254.453125 " fill-opacity="1" fill-rule="nonzero"/><path fill="#000d39" d="M 568.84375 290.582031 L 568.886719 290.78125 C 558.859375 293.203125 558.214844 303.441406 558.214844 303.441406 L 593.382812 303.441406 L 596.378906 298.222656 L 597.703125 303.441406 L 604.097656 303.441406 L 601.671875 290.582031 L 568.84375 290.582031 " fill-opacity="1" fill-rule="nonzero"/><path fill="#006b85" d="M 601.671875 290.582031 L 591.847656 258.398438 C 590.667969 254.53125 593.265625 250.535156 597.28125 250.046875 L 618.5 247.71875 C 623.902344 246.726562 627.828125 242.015625 627.828125 236.523438 C 627.828125 230.234375 622.730469 225.136719 616.441406 225.136719 L 578.871094 225.804688 C 566.207031 225.804688 556.820312 237.558594 559.621094 249.914062 L 568.84375 290.582031 L 601.671875 290.582031 " fill-opacity="1" fill-rule="nonzero"/><path fill="#ffc086" d="M 554.800781 164.410156 L 554.554688 163.910156 C 554.3125 163.050781 554.042969 162.203125 553.75 161.359375 C 553.699219 161.167969 553.671875 161.058594 553.671875 161.058594 C 553.664062 161.0625 553.65625 161.0625 553.644531 161.070312 C 553.003906 159.238281 552.257812 157.441406 551.390625 155.710938 C 550.710938 154.355469 549.832031 152.914062 548.390625 152.46875 C 546.957031 152.019531 545.050781 153.34375 545.550781 154.78125 C 545.550781 154.78125 543.851562 148.121094 541.527344 145.429688 C 541.15625 144.996094 539.980469 144.429688 539.417969 144.394531 C 538.738281 144.347656 538.148438 144.945312 537.964844 145.605469 C 537.777344 146.265625 537.898438 146.972656 538.039062 147.644531 C 538.496094 149.835938 539.730469 153.316406 540.53125 155.402344 C 539.640625 154.542969 537.539062 153.316406 536.542969 154.050781 C 535.546875 154.78125 535.023438 156.535156 535.550781 157.664062 C 534.359375 156.507812 533.140625 155.585938 531.628906 156.253906 C 529.777344 157.074219 529.753906 158.992188 530.3125 160.964844 C 530.933594 163.152344 531.550781 165.335938 532.171875 167.523438 C 532.242188 167.765625 532.3125 168.011719 532.382812 168.257812 C 532.328125 168.277344 532.269531 168.296875 532.207031 168.316406 C 532.855469 169.714844 533.417969 171.148438 533.949219 172.597656 C 540.851562 170.121094 548.050781 168.019531 555.054688 165.496094 C 555.019531 165.128906 554.9375 164.765625 554.800781 164.410156 " fill-opacity="1" fill-rule="nonzero"/><path fill="#ffb500" d="M 634.828125 203.007812 L 631.351562 186.90625 C 629.183594 176.867188 620.707031 169.785156 610.988281 169.894531 L 588.503906 170.191406 C 584.34375 170.234375 579.550781 170.59375 575.882812 173.664062 C 574.320312 174.503906 572.746094 176.289062 571.3125 177.8125 C 569.695312 179.53125 567.160156 180.070312 565.015625 179.085938 C 562.988281 178.15625 561.214844 176.328125 559.625 174.648438 C 557.746094 172.664062 556.140625 168.78125 555.070312 165.667969 C 555.070312 165.613281 555.058594 165.554688 555.054688 165.496094 C 548.050781 168.019531 540.851562 170.121094 533.949219 172.597656 C 535.289062 176.261719 536.386719 180.023438 537.882812 183.632812 C 539.96875 188.664062 543.023438 193.566406 547.742188 196.285156 C 551.953125 198.714844 556.9375 199.121094 561.851562 199.050781 L 559.511719 226.046875 L 617.488281 226.046875 C 628.910156 226.046875 637.371094 214.804688 634.828125 203.007812 " fill-opacity="1" fill-rule="nonzero"/><path fill="#ffc086" d="M 606.671875 226.273438 C 605.503906 222.675781 603.957031 219.203125 602.0625 215.925781 C 599.902344 212.191406 596.980469 208.5 592.828125 207.351562 C 589.738281 206.496094 586.378906 207.210938 583.527344 208.671875 C 580.675781 210.128906 578.242188 212.28125 575.886719 214.457031 C 574.691406 215.554688 573.445312 216.761719 573.386719 218.507812 C 573.359375 219.320312 573.710938 220.125 574.386719 220.570312 C 575.53125 221.320312 576.761719 220.6875 577.808594 220.078125 C 580.550781 218.484375 583.296875 216.894531 586.039062 215.300781 C 582.707031 217.027344 579.558594 219.109375 576.667969 221.5 C 576.332031 221.78125 575.960938 222.164062 576.070312 222.585938 C 576.152344 222.910156 576.484375 223.105469 576.765625 223.25 C 578.382812 224.066406 580.265625 224.195312 581.984375 223.632812 C 585.484375 222.484375 588.78125 220.726562 591.691406 218.464844 C 589.371094 220.023438 587.136719 221.714844 585.003906 223.523438 C 584.085938 224.304688 584.511719 225.824219 585.703125 225.988281 C 587.890625 226.285156 590.257812 225.839844 592.5 225.597656 C 597.410156 225.066406 602.363281 225.632812 607.265625 226.191406 L 606.671875 226.273438 " fill-opacity="1" fill-rule="nonzero"/><path fill="#000d39" d="M 581.699219 222.457031 L 567.523438 192.542969 L 513.34375 192.542969 L 529.511719 226.671875 L 529.609375 226.671875 L 529.609375 226.746094 L 603.089844 226.746094 L 603.089844 222.457031 L 581.699219 222.457031 " fill-opacity="1" fill-rule="nonzero"/><path fill="#00a142" d="M 621.257812 247.105469 C 619.824219 241.503906 619.34375 235.65625 619.84375 229.894531 C 620.226562 225.476562 621.183594 221.128906 622.285156 216.832031 C 623.027344 213.945312 623.878906 210.996094 625.722656 208.65625 C 626.503906 207.671875 627.503906 206.816406 628.617188 206.214844 C 630.9375 204.953125 633.773438 206.570312 633.859375 209.210938 C 634.0625 215.398438 632.738281 221.625 630.621094 227.46875 C 628.078125 234.496094 624.414062 241.058594 620.769531 247.585938 C 626.238281 237.785156 634.03125 229.292969 643.324219 223.003906 C 644.980469 221.878906 646.824219 220.785156 648.882812 221.15625 C 650.089844 221.371094 651.144531 222.183594 651.441406 223.375 C 651.800781 224.847656 650.808594 225.984375 649.863281 226.960938 C 644.082031 232.957031 637.714844 238.386719 630.882812 243.148438 C 634.960938 240.976562 639.375 239.433594 643.914062 238.585938 C 644.878906 238.40625 646.023438 238.308594 646.632812 239.144531 C 647.132812 239.832031 646.972656 240.773438 646.414062 241.414062 C 645.550781 242.398438 644.222656 242.566406 642.980469 242.710938 C 635.527344 243.585938 628.121094 244.90625 620.828125 246.671875 C 620.519531 246.746094 620.117188 246.78125 619.964844 246.503906 C 619.8125 246.226562 620.460938 246.019531 620.375 246.324219 L 621.257812 247.105469 " fill-opacity="1" fill-rule="nonzero"/><path fill="#000d39" d="M 588.835938 154.296875 C 587.089844 153.824219 584.96875 152.882812 585.039062 151.140625 C 585.09375 149.835938 586.460938 148.839844 586.492188 147.535156 C 586.523438 146.15625 585.117188 145.222656 583.953125 144.417969 C 582.785156 143.613281 581.605469 142.238281 582.246094 141.003906 C 582.816406 139.90625 584.554688 139.660156 584.96875 138.496094 C 585.292969 137.589844 584.632812 136.636719 584.648438 135.675781 C 584.664062 134.449219 586.011719 133.40625 587.265625 133.648438 C 588.710938 133.929688 590.066406 135.550781 591.316406 134.800781 C 591.910156 134.441406 592.085938 133.691406 592.535156 133.171875 C 593.0625 132.566406 594.011719 132.328125 594.78125 132.617188 C 595.550781 132.902344 596.089844 133.6875 596.050781 134.480469 C 596.019531 135.257812 595.621094 136.304688 596.359375 136.625 C 596.585938 136.726562 596.851562 136.699219 597.097656 136.671875 C 598.027344 136.5625 598.988281 136.460938 599.890625 136.695312 C 600.796875 136.929688 601.648438 137.578125 601.816406 138.460938 C 602.132812 140.121094 600.035156 141.800781 600.890625 143.277344 C 601.582031 144.476562 603.820312 144.515625 604.03125 145.875 C 604.25 147.289062 601.921875 147.949219 601.703125 149.363281 C 601.554688 150.320312 602.460938 151.21875 602.3125 152.179688 C 602.15625 153.171875 600.988281 153.6875 599.953125 153.828125 C 598.914062 153.972656 597.78125 153.957031 596.949219 154.570312 C 596.0625 155.230469 595.832031 156.40625 595.21875 157.3125 C 594.601562 158.214844 593.015625 158.738281 592.457031 157.800781 C 592.125 157.25 592.40625 156.53125 592.203125 155.921875 C 591.800781 154.707031 590.003906 154.753906 588.707031 155.050781 L 588.835938 154.296875 " fill-opacity="1" fill-rule="nonzero"/><path fill="#000d39" d="M 810.730469 150.894531 C 813.023438 145.796875 815.902344 140.960938 819.28125 136.503906 C 821.027344 134.214844 822.957031 131.980469 825.457031 130.558594 C 826.8125 129.789062 828.367188 129.273438 829.914062 129.4375 C 831.464844 129.601562 832.984375 130.554688 833.515625 132.023438 C 833.996094 133.335938 833.613281 134.84375 832.84375 136.011719 C 832.074219 137.183594 830.953125 138.070312 829.835938 138.914062 C 823.578125 143.636719 816.699219 147.523438 809.429688 150.453125 L 810.730469 150.894531 " fill-opacity="1" fill-rule="nonzero"/><path fill="#000d39" d="M 812.9375 148.800781 C 815.300781 152.226562 814.097656 157.15625 810.246094 159.816406 C 806.398438 162.476562 801.363281 161.851562 799 158.425781 C 796.632812 155.003906 797.835938 150.070312 801.683594 147.414062 C 805.535156 144.753906 810.570312 145.375 812.9375 148.800781 " fill-opacity="1" fill-rule="nonzero"/><path fill="#ffc086" d="M 606.605469 171.753906 L 598.90625 156.785156 C 599.121094 156.847656 599.34375 156.890625 599.578125 156.890625 C 600.894531 156.890625 601.960938 155.824219 601.960938 154.503906 C 601.960938 153.1875 600.894531 152.121094 599.578125 152.121094 C 598.535156 152.121094 597.65625 152.792969 597.335938 153.722656 L 595.523438 150.203125 C 594.960938 149.109375 593.691406 148.570312 592.515625 148.945312 C 589.273438 149.976562 583.460938 153.089844 583.78125 162.117188 C 583.8125 162.976562 584.617188 163.605469 585.457031 163.40625 L 589.722656 162.390625 L 591.074219 176.097656 C 591.265625 178.027344 592.640625 179.644531 594.519531 180.109375 C 598.035156 180.988281 603.617188 181.328125 606.578125 176.027344 C 607.3125 174.707031 607.296875 173.097656 606.605469 171.753906 " fill-opacity="1" fill-rule="nonzero"/><path fill="#ffc086" d="M 818.597656 166.664062 L 807.253906 154.226562 C 807.480469 154.230469 807.707031 154.214844 807.933594 154.152344 C 809.203125 153.808594 809.953125 152.5 809.609375 151.226562 C 809.265625 149.957031 807.957031 149.203125 806.683594 149.550781 C 805.679688 149.820312 805.007812 150.699219 804.941406 151.683594 L 802.269531 148.757812 C 801.441406 147.847656 800.074219 147.664062 799.039062 148.328125 C 796.179688 150.171875 791.378906 154.695312 794.050781 163.328125 C 794.304688 164.152344 795.246094 164.542969 796.003906 164.128906 L 799.855469 162.035156 L 804.742188 174.914062 C 805.429688 176.726562 807.175781 177.929688 809.113281 177.890625 C 812.734375 177.8125 818.214844 176.683594 819.6875 170.792969 C 820.050781 169.328125 819.613281 167.78125 818.597656 166.664062 " fill-opacity="1" fill-rule="nonzero"/><path fill="#ffc086" d="M 677.070312 137.996094 L 683.207031 122.316406 C 683 122.402344 682.78125 122.46875 682.550781 122.492188 C 681.238281 122.625 680.070312 121.671875 679.933594 120.363281 C 679.800781 119.054688 680.753906 117.878906 682.0625 117.746094 C 683.101562 117.640625 684.039062 118.21875 684.457031 119.113281 L 685.898438 115.425781 C 686.351562 114.277344 687.558594 113.617188 688.761719 113.867188 C 692.097656 114.566406 698.195312 117.066406 698.796875 126.082031 C 698.851562 126.945312 698.113281 127.644531 697.257812 127.53125 L 692.910156 126.957031 L 692.960938 140.734375 C 692.96875 142.671875 691.769531 144.417969 689.945312 145.074219 C 686.535156 146.304688 681.019531 147.210938 677.53125 142.242188 C 676.667969 141.003906 676.519531 139.402344 677.070312 137.996094 " fill-opacity="1" fill-rule="nonzero"/><path fill="#efefef" d="M 783.195312 168.238281 C 780.289062 168.238281 777.929688 165.878906 777.929688 162.972656 L 777.929688 155.265625 L 788.460938 155.265625 L 788.460938 162.972656 C 788.460938 165.878906 786.105469 168.238281 783.195312 168.238281 " fill-opacity="1" fill-rule="nonzero"/><path fill="#000d39" d="M 782.417969 150.539062 C 781.261719 149.265625 780.488281 147.722656 780.519531 145.960938 C 780.539062 144.925781 781.199219 143.882812 781.144531 142.871094 C 781.042969 141.128906 778.761719 140.03125 778.027344 138.605469 C 776.757812 136.136719 779.6875 135.554688 780.5 133.726562 C 780.960938 132.707031 781.074219 130.683594 782.035156 130.011719 C 783.800781 128.777344 784.878906 131.683594 784.6875 132.957031 C 784.542969 133.910156 784.085938 134.828125 783.707031 135.703125 C 783.238281 136.78125 782.578125 137.953125 782.558594 139.15625 C 782.550781 139.765625 782.699219 140.253906 782.980469 140.785156 C 783.828125 142.386719 784.472656 143.355469 783.410156 145.140625 C 782.265625 147.070312 781.679688 148.484375 781.832031 150.78125 C 781.859375 151.21875 782.542969 151.222656 782.515625 150.78125 C 782.367188 148.523438 783.117188 147.0625 784.183594 145.207031 C 784.648438 144.390625 785.03125 143.488281 784.792969 142.535156 C 784.382812 140.921875 782.910156 140.140625 783.421875 138.234375 C 783.722656 137.117188 784.3125 136.085938 784.742188 135.015625 C 785.335938 133.542969 785.882812 131.777344 784.878906 130.351562 C 784.222656 129.417969 782.925781 128.597656 781.839844 129.277344 C 780.726562 129.976562 780.472656 131.835938 780.0625 132.949219 C 779.375 134.820312 776.902344 134.957031 776.929688 137.230469 C 776.9375 138.101562 777.351562 138.863281 777.847656 139.550781 C 778.296875 140.171875 778.898438 140.652344 779.375 141.246094 C 780.507812 142.667969 780.316406 143.179688 780.007812 144.574219 C 779.46875 146.980469 780.3125 149.238281 781.933594 151.023438 C 782.226562 151.347656 782.710938 150.863281 782.417969 150.539062 " fill-opacity="1" fill-rule="nonzero"/><path fill="#ffc086" d="M 754.320312 172.929688 C 754.203125 168.777344 754.25 164.621094 754.472656 160.476562 C 754.515625 159.703125 754.566406 158.113281 754.910156 157.402344 C 755.9375 155.292969 759.011719 155.097656 761.636719 154.859375 C 766.355469 154.433594 771.105469 154.65625 775.847656 154.726562 C 776.988281 154.746094 778.15625 154.78125 779.199219 155.179688 C 780.242188 155.578125 781.136719 156.429688 781.152344 157.414062 C 781.183594 159.203125 778.703125 160.078125 776.691406 160.46875 C 775.460938 160.710938 774.234375 160.949219 773.003906 161.191406 C 775.59375 160.886719 778.429688 160.625 780.660156 161.808594 C 781.652344 162.339844 782.507812 163.328125 782.179688 164.296875 C 781.847656 165.292969 780.511719 165.703125 779.355469 165.972656 C 777.847656 166.320312 776.335938 166.667969 774.828125 167.015625 C 777.5 166.859375 779.636719 166.421875 781.460938 168.125 C 781.769531 168.410156 782.035156 168.753906 782.117188 169.140625 C 782.238281 169.691406 781.964844 170.261719 781.5625 170.707031 C 780.164062 172.238281 778.507812 172.765625 776.253906 172.757812 C 768.96875 172.746094 761.6875 172.730469 754.402344 172.714844 L 754.320312 172.929688 " fill-opacity="1" fill-rule="nonzero"/><path fill="#efefef" d="M 547.191406 208.351562 C 547.191406 209.671875 546.125 210.742188 544.804688 210.742188 C 543.484375 210.742188 542.417969 209.671875 542.417969 208.351562 C 542.417969 207.035156 543.484375 205.960938 544.804688 205.960938 C 546.125 205.960938 547.191406 207.035156 547.191406 208.351562 " fill-opacity="1" fill-rule="nonzero"/><path fill="#000d39" d="M 684.953125 240.132812 C 686.503906 243.710938 688.152344 247.238281 689.886719 250.726562 C 690.183594 251.316406 691.070312 250.800781 690.773438 250.210938 C 689.035156 246.722656 687.394531 243.191406 685.839844 239.617188 C 685.578125 239.011719 684.691406 239.535156 684.953125 240.132812 " fill-opacity="1" fill-rule="nonzero"/><path fill="#000d39" d="M 690.242188 237.738281 C 692.570312 241.777344 694.902344 245.816406 697.226562 249.855469 C 697.558594 250.425781 698.445312 249.914062 698.113281 249.339844 C 695.785156 245.300781 693.457031 241.261719 691.132812 237.222656 C 690.800781 236.648438 689.914062 237.164062 690.242188 237.738281 " fill-opacity="1" fill-rule="nonzero"/><path fill="#000d39" d="M 770.167969 287.730469 C 773.300781 292.695312 776.671875 297.492188 780.265625 302.132812 C 780.667969 302.65625 781.390625 301.921875 780.992188 301.40625 C 777.449219 296.835938 774.140625 292.101562 771.050781 287.214844 C 770.699219 286.65625 769.808594 287.171875 770.167969 287.730469 " fill-opacity="1" fill-rule="nonzero"/><path fill="#000d39" d="M 777.039062 283.777344 C 780.101562 288.308594 783.171875 292.839844 786.238281 297.371094 C 786.605469 297.914062 787.492188 297.402344 787.121094 296.851562 C 784.054688 292.320312 780.992188 287.789062 777.925781 283.257812 C 777.558594 282.714844 776.667969 283.226562 777.039062 283.777344 " fill-opacity="1" fill-rule="nonzero"/><path fill="#000d39" d="M 810.75 223.578125 C 816.027344 232.570312 821.78125 241.269531 827.621094 249.902344 C 827.988281 250.449219 828.878906 249.933594 828.507812 249.386719 C 822.664062 240.75 816.914062 232.054688 811.636719 223.058594 C 811.300781 222.492188 810.414062 223.007812 810.75 223.578125 " fill-opacity="1" fill-rule="nonzero"/><path fill="#000d39" d="M 715.90625 227.464844 C 719.6875 234.664062 723.46875 241.859375 727.25 249.058594 C 727.558594 249.644531 728.445312 249.125 728.136719 248.539062 C 724.355469 241.34375 720.574219 234.144531 716.792969 226.949219 C 716.484375 226.363281 715.597656 226.878906 715.90625 227.464844 " fill-opacity="1" fill-rule="nonzero"/><path fill="#000d39" d="M 686.515625 266.949219 C 675.636719 268.238281 665.136719 271.386719 655.34375 276.300781 C 654.554688 276.695312 655.25 277.875 656.035156 277.484375 C 665.597656 272.679688 675.886719 269.578125 686.515625 268.3125 C 687.375 268.210938 687.386719 266.84375 686.515625 266.949219 " fill-opacity="1" fill-rule="nonzero"/><path fill="#000d39" d="M 791.417969 201.832031 C 795.792969 202.390625 800.90625 202.90625 804.816406 200.402344 C 809.054688 197.695312 810.429688 191.566406 812.207031 187.195312 C 812.457031 186.585938 811.464844 186.320312 811.21875 186.921875 C 809.472656 191.214844 808.132812 197.460938 803.761719 199.839844 C 800.058594 201.851562 795.429688 201.316406 791.417969 200.804688 C 790.765625 200.71875 790.769531 201.75 791.417969 201.832031 " fill-opacity="1" fill-rule="nonzero"/><path fill="#000d39" d="M 770.894531 202.363281 C 774.871094 194.976562 778.578125 187.3125 783.640625 180.589844 C 784.035156 180.058594 783.144531 179.546875 782.753906 180.070312 C 777.691406 186.792969 773.984375 194.457031 770.003906 201.84375 C 769.691406 202.425781 770.578125 202.945312 770.894531 202.363281 " fill-opacity="1" fill-rule="nonzero"/><path fill="#000d39" d="M 594.257812 208.355469 C 597.953125 208.269531 601.652344 208.164062 605.339844 207.972656 C 607.328125 207.871094 609.355469 207.660156 610.289062 205.644531 C 611.226562 203.617188 610.519531 201.160156 609.984375 199.132812 C 609.039062 195.53125 608.0625 191.933594 607.101562 188.332031 C 606.929688 187.695312 605.9375 187.96875 606.109375 188.605469 C 606.773438 191.097656 607.441406 193.589844 608.105469 196.082031 C 608.714844 198.359375 609.699219 200.824219 609.695312 203.207031 C 609.691406 205.332031 608.671875 206.433594 606.542969 206.878906 C 605.332031 207.128906 603.917969 207.015625 602.683594 207.066406 C 599.875 207.179688 597.066406 207.261719 594.257812 207.328125 C 593.601562 207.34375 593.597656 208.367188 594.257812 208.355469 " fill-opacity="1" fill-rule="nonzero"/><path fill="#000d39" d="M 577.613281 211.828125 C 576.953125 203.445312 576.292969 195.058594 575.632812 186.675781 C 575.578125 186.019531 574.550781 186.015625 574.605469 186.675781 C 575.265625 195.058594 575.925781 203.445312 576.585938 211.828125 C 576.640625 212.480469 577.664062 212.488281 577.613281 211.828125 " fill-opacity="1" fill-rule="nonzero"/><path fill="#000d39" d="M 578.617188 218.648438 C 581.925781 216.800781 585.332031 215.183594 588.859375 213.792969 C 589.464844 213.554688 589.199219 212.5625 588.582031 212.804688 C 584.976562 214.222656 581.484375 215.871094 578.097656 217.761719 C 577.519531 218.085938 578.039062 218.96875 578.617188 218.648438 " fill-opacity="1" fill-rule="nonzero"/><path fill="#000d39" d="M 534.292969 157.742188 C 535.101562 159.730469 535.925781 161.707031 536.714844 163.707031 C 537.09375 164.65625 537.613281 165.742188 537.621094 166.785156 C 537.636719 170.070312 533.914062 169.292969 533.394531 166.722656 C 533.261719 166.078125 532.273438 166.351562 532.40625 166.996094 C 532.699219 168.441406 533.570312 169.65625 535.042969 170.0625 C 536.082031 170.347656 537.816406 170.152344 538.445312 169.136719 C 539.152344 167.988281 538.578125 165.875 538.199219 164.703125 C 537.398438 162.25 536.253906 159.863281 535.28125 157.46875 C 535.035156 156.863281 534.042969 157.128906 534.292969 157.742188 " fill-opacity="1" fill-rule="nonzero"/><path fill="#000d39" d="M 539.746094 156.285156 C 540.40625 158.277344 541.066406 160.265625 541.730469 162.257812 C 541.96875 162.980469 542.644531 164.152344 542.59375 164.90625 C 542.347656 168.351562 539.484375 166.351562 538.265625 165.425781 C 537.738281 165.027344 537.226562 165.914062 537.746094 166.308594 C 539.265625 167.460938 542.46875 169.019531 543.546875 166.363281 C 544.058594 165.089844 543.246094 163.5625 542.851562 162.382812 C 542.144531 160.261719 541.441406 158.136719 540.734375 156.011719 C 540.523438 155.390625 539.535156 155.65625 539.746094 156.285156 " fill-opacity="1" fill-rule="nonzero"/><path fill="#000d39" d="M 545.242188 153.925781 C 543.492188 155.554688 540.925781 158.886719 541.640625 161.503906 C 542.335938 164.070312 545.734375 162.902344 547.039062 161.652344 C 546.800781 161.410156 546.558594 161.167969 546.316406 160.925781 C 545.292969 161.988281 544.453125 163.144531 543.859375 164.503906 C 543.574219 165.164062 543.347656 165.847656 543.1875 166.546875 C 543.085938 167.015625 543.085938 168.65625 542.792969 168.90625 C 543.035156 168.90625 543.277344 168.90625 543.519531 168.90625 C 543.546875 168.988281 543.574219 169.074219 543.601562 169.15625 C 543.390625 169.273438 543.183594 169.394531 542.972656 169.511719 C 543 169.523438 543.027344 169.53125 543.054688 169.539062 C 543.6875 169.753906 543.953125 168.757812 543.332031 168.554688 C 543.300781 168.542969 543.273438 168.535156 543.242188 168.523438 C 542.972656 168.433594 542.695312 168.628906 542.613281 168.882812 C 542.59375 168.933594 542.578125 168.984375 542.5625 169.039062 C 542.507812 169.207031 542.566406 169.417969 542.695312 169.539062 C 542.726562 169.570312 542.761719 169.601562 542.792969 169.632812 C 543.003906 169.835938 543.304688 169.820312 543.519531 169.632812 C 544.230469 169.019531 543.996094 167.625 544.179688 166.824219 C 544.621094 164.832031 545.636719 163.113281 547.039062 161.652344 C 547.5 161.175781 546.792969 160.46875 546.316406 160.925781 C 545.203125 161.988281 542.566406 162.480469 542.773438 159.820312 C 542.820312 159.203125 543.332031 158.179688 543.5625 157.730469 C 544.167969 156.554688 545 155.550781 545.96875 154.652344 C 546.453125 154.199219 545.726562 153.476562 545.242188 153.925781 " fill-opacity="1" fill-rule="nonzero"/><path fill="#000d39" d="M 546.003906 161.503906 C 545.308594 160.101562 544.722656 158.664062 544.242188 157.171875 C 544.042969 156.546875 543.050781 156.816406 543.253906 157.445312 C 543.761719 159.019531 544.382812 160.539062 545.117188 162.019531 C 545.410156 162.609375 546.296875 162.089844 546.003906 161.503906 " fill-opacity="1" fill-rule="nonzero"/><path fill="#000d39" d="M 533.546875 167.152344 C 534.839844 166.601562 536.128906 166.050781 537.425781 165.5 C 538.472656 165.050781 541.15625 163.449219 542.253906 163.808594 C 542.886719 164.015625 543.15625 163.023438 542.53125 162.816406 C 541.289062 162.414062 539.960938 163.3125 538.84375 163.785156 C 536.90625 164.613281 534.96875 165.4375 533.027344 166.265625 C 532.421875 166.523438 532.945312 167.40625 533.546875 167.152344 " fill-opacity="1" fill-rule="nonzero"/><path fill="#000d39" d="M 538.761719 148.0625 C 539.980469 147.675781 541.199219 147.289062 542.414062 146.902344 C 543.042969 146.703125 542.773438 145.710938 542.140625 145.910156 C 540.921875 146.300781 539.703125 146.6875 538.488281 147.074219 C 537.859375 147.273438 538.128906 148.265625 538.761719 148.0625 " fill-opacity="1" fill-rule="nonzero"/><path fill="#000d39" d="M 582.507812 224.523438 C 585.664062 222.671875 588.988281 221.289062 592.523438 220.351562 C 593.160156 220.179688 592.890625 219.191406 592.25 219.359375 C 588.632812 220.320312 585.21875 221.742188 581.988281 223.632812 C 581.421875 223.96875 581.933594 224.855469 582.507812 224.523438 " fill-opacity="1" fill-rule="nonzero"/><path fill="#000d39" d="M 589.316406 153.679688 C 590.445312 153.332031 591.589844 153.910156 592.042969 154.984375 C 592.300781 155.589844 593.183594 155.066406 592.929688 154.46875 C 592.300781 152.984375 590.570312 152.222656 589.042969 152.6875 C 588.414062 152.878906 588.683594 153.871094 589.316406 153.679688 " fill-opacity="1" fill-rule="nonzero"/><path fill="#000d39" d="M 585.644531 153.851562 C 584.628906 154.449219 583.71875 155.191406 582.925781 156.0625 C 582.703125 156.308594 582.734375 156.691406 583.03125 156.871094 C 583.589844 157.207031 584.1875 157.4375 584.832031 157.546875 C 585.480469 157.660156 585.753906 156.671875 585.105469 156.558594 C 584.542969 156.460938 584.035156 156.277344 583.546875 155.980469 C 583.582031 156.25 583.613281 156.519531 583.652344 156.789062 C 584.386719 155.976562 585.222656 155.296875 586.164062 154.738281 C 586.730469 154.398438 586.214844 153.511719 585.644531 153.851562 " fill-opacity="1" fill-rule="nonzero"/><path fill="#000d39" d="M 586.59375 160.757812 C 587.390625 161.359375 588.5625 160.878906 588.871094 159.988281 C 589.089844 159.363281 588.101562 159.09375 587.882812 159.714844 C 587.769531 160.039062 587.34375 160.046875 587.109375 159.871094 C 586.890625 159.707031 586.535156 159.835938 586.410156 160.058594 C 586.257812 160.320312 586.371094 160.589844 586.59375 160.757812 " fill-opacity="1" fill-rule="nonzero"/><path fill="#000d39" d="M 598.804688 155.78125 C 599.285156 155.25 599.761719 154.714844 600.238281 154.183594 C 600.679688 153.695312 599.960938 152.964844 599.515625 153.457031 C 599.035156 153.992188 598.558594 154.523438 598.078125 155.054688 C 597.636719 155.546875 598.363281 156.273438 598.804688 155.78125 " fill-opacity="1" fill-rule="nonzero"/><path fill="#000d39" d="M 568.40625 290.683594 C 564.996094 277.394531 562.046875 263.992188 559.59375 250.492188 C 559.003906 247.261719 558.042969 243.792969 558.332031 240.488281 C 558.613281 237.261719 560.34375 234.332031 562.675781 232.148438 C 567.460938 227.675781 574.257812 226.804688 580.539062 226.878906 C 581.199219 226.890625 581.199219 225.863281 580.539062 225.855469 C 574.421875 225.78125 567.90625 226.589844 562.976562 230.539062 C 558.492188 234.128906 556.714844 239.105469 557.546875 244.730469 C 559.863281 260.277344 563.515625 275.742188 567.417969 290.953125 C 567.582031 291.59375 568.570312 291.324219 568.40625 290.683594 " fill-opacity="1" fill-rule="nonzero"/><path fill="#000d39" d="M 690.023438 119.699219 C 690.355469 118.71875 691.449219 118.191406 692.433594 118.480469 C 693.070312 118.664062 693.339844 117.671875 692.707031 117.488281 C 691.167969 117.035156 689.546875 117.921875 689.035156 119.425781 C 688.820312 120.050781 689.8125 120.320312 690.023438 119.699219 " fill-opacity="1" fill-rule="nonzero"/><path fill="#000d39" d="M 681.269531 120.273438 C 681.996094 120.4375 682.652344 120.71875 683.265625 121.136719 C 683.816406 121.507812 684.332031 120.621094 683.785156 120.25 C 683.101562 119.789062 682.34375 119.464844 681.542969 119.285156 C 680.898438 119.144531 680.625 120.132812 681.269531 120.273438 " fill-opacity="1" fill-rule="nonzero"/><path fill="#000d39" d="M 695.359375 118.835938 C 696.398438 119.367188 697.390625 119.96875 698.351562 120.636719 C 698.289062 120.40625 698.226562 120.171875 698.167969 119.9375 C 697.90625 120.449219 697.535156 120.792969 697.003906 121.019531 C 696.398438 121.277344 696.921875 122.160156 697.523438 121.90625 C 698.199219 121.617188 698.722656 121.109375 699.050781 120.453125 C 699.183594 120.191406 699.109375 119.917969 698.867188 119.753906 C 697.910156 119.082031 696.914062 118.480469 695.875 117.949219 C 695.289062 117.648438 694.769531 118.53125 695.359375 118.835938 " fill-opacity="1" fill-rule="nonzero"/><path fill="#000d39" d="M 692.363281 124.492188 C 692.835938 125.402344 694.09375 125.730469 694.945312 125.152344 C 695.488281 124.78125 694.976562 123.890625 694.429688 124.261719 C 694.023438 124.542969 693.480469 124.417969 693.25 123.976562 C 692.941406 123.390625 692.054688 123.910156 692.363281 124.492188 " fill-opacity="1" fill-rule="nonzero"/><path fill="#000d39" d="M 698.171875 175.207031 C 695.609375 175.207031 693.046875 175.207031 690.488281 175.207031 C 689.824219 175.207031 689.824219 176.230469 690.488281 176.230469 C 693.046875 176.230469 695.609375 176.230469 698.171875 176.230469 C 698.835938 176.230469 698.835938 175.207031 698.171875 175.207031 " fill-opacity="1" fill-rule="nonzero"/><path fill="#000d39" d="M 698.40625 180.332031 C 695.84375 180.332031 693.285156 180.332031 690.722656 180.332031 C 690.058594 180.332031 690.058594 181.359375 690.722656 181.359375 C 693.285156 181.359375 695.84375 181.359375 698.40625 181.359375 C 699.066406 181.359375 699.070312 180.332031 698.40625 180.332031 " fill-opacity="1" fill-rule="nonzero"/><path fill="#000d39" d="M 698.824219 171.292969 C 698.824219 176.261719 698.824219 181.234375 698.824219 186.207031 C 698.824219 186.863281 699.851562 186.863281 699.851562 186.207031 C 699.851562 181.234375 699.851562 176.261719 699.851562 171.292969 C 699.851562 170.632812 698.824219 170.628906 698.824219 171.292969 " fill-opacity="1" fill-rule="nonzero"/><path fill="#000d39" d="M 692.070312 166.167969 C 692.070312 167.332031 692.070312 168.496094 692.070312 169.660156 C 692.070312 170.320312 693.097656 170.324219 693.097656 169.660156 C 693.097656 168.496094 693.097656 167.332031 693.097656 166.167969 C 693.097656 165.507812 692.070312 165.503906 692.070312 166.167969 " fill-opacity="1" fill-rule="nonzero"/><path fill="#000d39" d="M 705.347656 189.433594 C 705.347656 192.949219 708.929688 194.171875 711.804688 194.691406 C 712.449219 194.8125 712.726562 193.820312 712.078125 193.703125 C 709.703125 193.273438 706.375 192.429688 706.375 189.433594 C 706.375 188.773438 705.347656 188.773438 705.347656 189.433594 " fill-opacity="1" fill-rule="nonzero"/><path fill="#000d39" d="M 664.398438 165.28125 C 669.367188 165.28125 674.335938 165.28125 679.304688 165.28125 C 679.964844 165.28125 679.96875 164.257812 679.304688 164.257812 C 674.335938 164.257812 669.367188 164.257812 664.398438 164.257812 C 663.738281 164.257812 663.734375 165.28125 664.398438 165.28125 " fill-opacity="1" fill-rule="nonzero"/><path fill="#000d39" d="M 712.222656 108.523438 C 709.949219 109.382812 707.582031 112.359375 710.261719 114.320312 C 711.699219 115.371094 714.003906 115.683594 715.703125 116.015625 C 718.277344 116.519531 720.882812 116.683594 723.5 116.59375 C 723.332031 116.421875 723.160156 116.25 722.988281 116.078125 C 723.019531 118.664062 724.953125 120.605469 727.53125 120.660156 C 728.191406 120.675781 728.191406 119.648438 727.53125 119.632812 C 725.539062 119.59375 724.039062 118.058594 724.015625 116.078125 C 724.011719 115.804688 723.78125 115.554688 723.5 115.566406 C 720.96875 115.652344 718.464844 115.507812 715.972656 115.027344 C 714.917969 114.820312 713.636719 114.648438 712.652344 114.195312 C 711.210938 113.941406 710.460938 112.886719 710.40625 111.03125 C 710.933594 110.269531 711.628906 109.765625 712.496094 109.511719 C 713.105469 109.28125 712.839844 108.289062 712.222656 108.523438 " fill-opacity="1" fill-rule="nonzero"/><path fill="#000d39" d="M 706.839844 114.441406 C 706.839844 112.660156 706.839844 110.871094 706.839844 109.085938 C 706.839844 108.425781 705.8125 108.425781 705.8125 109.085938 C 705.8125 110.871094 705.8125 112.660156 705.8125 114.441406 C 705.8125 115.105469 706.839844 115.105469 706.839844 114.441406 " fill-opacity="1" fill-rule="nonzero"/><path fill="#000d39" d="M 713.636719 114.4375 C 713.402344 112.582031 713.3125 110.722656 713.359375 108.851562 C 713.378906 108.191406 712.351562 108.191406 712.335938 108.851562 C 712.285156 110.722656 712.375 112.582031 712.613281 114.4375 C 712.695312 115.085938 713.71875 115.09375 713.636719 114.4375 " fill-opacity="1" fill-rule="nonzero"/><path fill="#000d39" d="M 707.734375 116.433594 C 710.132812 116.125 712.535156 115.910156 714.949219 115.785156 C 715.609375 115.753906 715.613281 114.726562 714.949219 114.761719 C 712.535156 114.882812 710.132812 115.097656 707.734375 115.40625 C 707.089844 115.488281 707.082031 116.515625 707.734375 116.433594 " fill-opacity="1" fill-rule="nonzero"/><path fill="#000d39" d="M 765.023438 161.320312 C 769.296875 161.320312 773.566406 161.320312 777.839844 161.320312 C 778.5 161.320312 778.5 160.292969 777.839844 160.292969 C 773.566406 160.292969 769.296875 160.292969 765.023438 160.292969 C 764.367188 160.292969 764.367188 161.320312 765.023438 161.320312 " fill-opacity="1" fill-rule="nonzero"/><path fill="#000d39" d="M 765.023438 167.980469 C 769.296875 167.980469 773.566406 167.980469 777.839844 167.980469 C 778.5 167.980469 778.5 166.953125 777.839844 166.953125 C 773.566406 166.953125 769.296875 166.953125 765.023438 166.953125 C 764.367188 166.953125 764.367188 167.980469 765.023438 167.980469 " fill-opacity="1" fill-rule="nonzero"/><path fill="#000d39" d="M 778.023438 155.21875 C 778.023438 161.117188 778.023438 167.019531 778.023438 172.921875 C 778.023438 173.585938 779.050781 173.585938 779.050781 172.921875 C 779.050781 167.019531 779.050781 161.117188 779.050781 155.21875 C 779.050781 154.554688 778.023438 154.554688 778.023438 155.21875 " fill-opacity="1" fill-rule="nonzero"/><path fill="#000d39" d="M 798.3125 152.941406 C 799.378906 152.382812 800.773438 152.644531 801.519531 153.617188 C 801.914062 154.132812 802.808594 153.621094 802.40625 153.097656 C 801.304688 151.671875 799.402344 151.210938 797.792969 152.054688 C 797.207031 152.359375 797.726562 153.25 798.3125 152.941406 " fill-opacity="1" fill-rule="nonzero"/><path fill="#000d39" d="M 794.308594 153.597656 C 793.429688 154.324219 792.546875 155.050781 791.667969 155.773438 C 791.460938 155.941406 791.46875 156.335938 791.667969 156.5 C 792.15625 156.914062 792.699219 157.136719 793.347656 157.148438 C 794.011719 157.164062 794.007812 156.136719 793.347656 156.121094 C 792.988281 156.113281 792.671875 156.007812 792.390625 155.773438 C 792.390625 156.019531 792.390625 156.257812 792.390625 156.5 C 793.273438 155.773438 794.15625 155.050781 795.035156 154.328125 C 795.546875 153.90625 794.816406 153.183594 794.308594 153.597656 " fill-opacity="1" fill-rule="nonzero"/><path fill="#000d39" d="M 797.773438 160.671875 C 798.984375 160.621094 799.972656 159.894531 800.433594 158.785156 C 800.691406 158.175781 799.695312 157.910156 799.445312 158.511719 C 799.167969 159.175781 798.484375 159.617188 797.773438 159.648438 C 797.117188 159.675781 797.113281 160.703125 797.773438 160.671875 " fill-opacity="1" fill-rule="nonzero"/><path fill="#000d39" d="M 806.929688 152.734375 C 807.253906 152.359375 807.582031 151.980469 807.90625 151.605469 C 808.085938 151.394531 808.113281 151.089844 807.90625 150.882812 C 807.722656 150.695312 807.363281 150.667969 807.179688 150.882812 C 806.855469 151.253906 806.527344 151.632812 806.203125 152.007812 C 806.023438 152.214844 805.996094 152.527344 806.203125 152.734375 C 806.390625 152.917969 806.746094 152.945312 806.929688 152.734375 " fill-opacity="1" fill-rule="nonzero"/><path fill="#000d39" d="M 780.449219 225.34375 C 780.449219 221.386719 780.449219 217.425781 780.449219 213.460938 C 780.449219 212.804688 779.421875 212.800781 779.421875 213.460938 C 779.421875 217.425781 779.421875 221.386719 779.421875 225.34375 C 779.421875 226.007812 780.449219 226.007812 780.449219 225.34375 " fill-opacity="1" fill-rule="nonzero"/><path fill="#000d39" d="M 785.804688 225.8125 C 785.804688 221.621094 785.804688 217.425781 785.804688 213.230469 C 785.804688 212.570312 784.78125 212.570312 784.78125 213.230469 C 784.78125 217.425781 784.78125 221.621094 784.78125 225.8125 C 784.78125 226.472656 785.804688 226.472656 785.804688 225.8125 " fill-opacity="1" fill-rule="nonzero"/><path fill="#000d39" d="M 773.878906 224.460938 C 779.625 224.460938 785.371094 224.460938 791.113281 224.460938 C 791.777344 224.460938 791.777344 223.433594 791.113281 223.433594 C 785.371094 223.433594 779.625 223.433594 773.878906 223.433594 C 773.21875 223.433594 773.21875 224.460938 773.878906 224.460938 " fill-opacity="1" fill-rule="nonzero"/></svg>