<svg xmlns="http://www.w3.org/2000/svg" xmlns:xlink="http://www.w3.org/1999/xlink" width="1200" zoomAndPan="magnify" viewBox="0 0 900 470.999988" height="628" preserveAspectRatio="xMidYMid meet" version="1.0"><defs><filter x="0%" y="0%" width="100%" height="100%" id="e91822c4cf"><feColorMatrix values="0 0 0 0 1 0 0 0 0 1 0 0 0 0 1 0 0 0 1 0" color-interpolation-filters="sRGB"/></filter><clipPath id="be63740e9b"><path d="M 642 112.273438 L 681 112.273438 L 681 149 L 642 149 Z M 642 112.273438 " clip-rule="nonzero"/></clipPath><clipPath id="86ff9e16d5"><path d="M 504 372.734375 L 900 372.734375 L 900 376.273438 L 504 376.273438 Z M 504 372.734375 " clip-rule="nonzero"/></clipPath><mask id="90688e3fbd"><g filter="url(#e91822c4cf)"><rect x="-90" width="1080" fill="#000000" y="-47.099999" height="565.199986" fill-opacity="0.21"/></g></mask><clipPath id="3cc059c7e4"><path d="M 0 1 L 343 1 L 343 320 L 0 320 Z M 0 1 " clip-rule="nonzero"/></clipPath><clipPath id="a3f3cdb421"><rect x="0" width="344" y="0" height="320"/></clipPath></defs><rect x="-90" width="1080" fill="#ffffff" y="-47.099999" height="565.199986" fill-opacity="1"/><rect x="-90" width="1080" fill="#ffffff" y="-47.099999" height="565.199986" fill-opacity="1"/><path fill="#6dc62a" d="M 570.167969 241.839844 C 558.105469 239.210938 546.546875 234.324219 536.257812 227.511719 C 532.011719 224.695312 527.703125 221.136719 526.625 216.160156 C 526.386719 215.058594 526.324219 213.875 526.757812 212.832031 C 528.164062 209.460938 533.078125 209.96875 536.480469 211.289062 C 549.894531 216.484375 567.535156 225.433594 579.164062 233.902344 C 562.089844 214.667969 544.960938 190.480469 544.960938 164.753906 C 544.960938 153.652344 547.382812 154.160156 550.808594 154.4375 C 552.304688 154.558594 553.464844 155.753906 554.4375 156.898438 C 561.902344 165.65625 567.453125 175.851562 572.949219 185.964844 C 579.519531 198.066406 586.09375 210.164062 592.664062 222.261719 C 590.214844 211.785156 592.421875 191.082031 599.167969 182.210938 C 599.996094 181.121094 600.992188 180.027344 602.324219 179.738281 C 605.066406 179.140625 607.15625 182.148438 608.121094 184.785156 C 614.363281 201.765625 609.515625 220.78125 612.371094 238.648438 L 570.167969 241.839844 " fill-opacity="1" fill-rule="nonzero"/><path fill="#6dc62a" d="M 857.335938 347.359375 C 856.671875 336.707031 860.503906 325.835938 867.707031 317.960938 C 869.109375 316.433594 871.171875 314.894531 873.078125 315.730469 C 875.160156 316.640625 875.230469 319.570312 874.703125 321.785156 C 872.332031 331.828125 864.980469 339.90625 857.230469 346.714844 C 866.867188 341.253906 878.054688 338.574219 889.113281 339.070312 C 891.105469 339.164062 893.234375 339.410156 894.738281 340.71875 C 896.242188 342.023438 896.632812 344.753906 895 345.90625 C 894.25 346.441406 893.273438 346.515625 892.347656 346.570312 C 880.78125 347.230469 869.15625 346.976562 857.625 345.796875 L 857.335938 347.359375 " fill-opacity="1" fill-rule="nonzero"/><path fill="#6dc62a" d="M 531.988281 330.738281 C 523.75 334.003906 515.089844 336.183594 506.296875 337.214844 C 504.382812 337.4375 502.359375 337.589844 500.617188 336.773438 C 498.871094 335.957031 497.59375 333.832031 498.367188 332.066406 C 499.101562 330.40625 501.152344 329.855469 502.945312 329.570312 C 512.335938 328.082031 521.988281 328.308594 531.300781 330.230469 C 525.925781 327.4375 520.761719 324.085938 516.644531 319.640625 C 512.527344 315.199219 509.5 309.578125 508.925781 303.542969 C 508.84375 302.6875 508.835938 301.738281 509.375 301.0625 C 510.644531 299.484375 513.152344 300.90625 514.53125 302.394531 C 522.273438 310.734375 528.222656 320.726562 531.867188 331.511719 L 531.988281 330.738281 " fill-opacity="1" fill-rule="nonzero"/><path fill="#001035" d="M 557.800781 180.894531 C 567.871094 201.054688 575.878906 222.621094 590.691406 239.953125 C 591.320312 240.6875 592.375 239.621094 591.75 238.894531 C 577.035156 221.675781 569.101562 200.164062 559.09375 180.140625 C 558.664062 179.28125 557.371094 180.035156 557.800781 180.894531 " fill-opacity="1" fill-rule="nonzero"/><path fill="#001035" d="M 601.199219 198.75 C 601.488281 218.671875 602.898438 238.558594 605.425781 258.320312 C 605.542969 259.265625 607.042969 259.273438 606.917969 258.320312 C 604.394531 238.558594 602.984375 218.671875 602.691406 198.75 C 602.679688 197.789062 601.183594 197.785156 601.199219 198.75 " fill-opacity="1" fill-rule="nonzero"/><path fill="#001035" d="M 542.464844 224.433594 C 560.425781 232.429688 578.796875 239.464844 597.507812 245.5 C 598.425781 245.792969 598.820312 244.347656 597.90625 244.054688 C 579.316406 238.0625 561.066406 231.085938 543.222656 223.140625 C 542.347656 222.753906 541.585938 224.042969 542.464844 224.433594 " fill-opacity="1" fill-rule="nonzero"/><path fill="#001035" d="M 514.988281 312.914062 C 522.449219 320.871094 529.910156 328.820312 537.367188 336.78125 C 538.027344 337.484375 539.082031 336.421875 538.421875 335.722656 C 530.964844 327.765625 523.507812 319.808594 516.046875 311.855469 C 515.386719 311.152344 514.328125 312.210938 514.988281 312.914062 " fill-opacity="1" fill-rule="nonzero"/><path fill="#001035" d="M 509.839844 333.972656 C 518.550781 331.191406 527.519531 329.535156 536.648438 329.046875 C 537.605469 328.996094 537.613281 327.5 536.648438 327.550781 C 527.390625 328.046875 518.277344 329.703125 509.441406 332.527344 C 508.527344 332.820312 508.921875 334.265625 509.839844 333.972656 " fill-opacity="1" fill-rule="nonzero"/><path fill="#001035" d="M 858.289062 350.328125 C 861.714844 341.738281 865.140625 333.148438 868.566406 324.5625 C 868.925781 323.667969 867.476562 323.28125 867.125 324.164062 C 863.699219 332.753906 860.273438 341.339844 856.847656 349.929688 C 856.492188 350.828125 857.9375 351.214844 858.289062 350.328125 " fill-opacity="1" fill-rule="nonzero"/><path fill="#001035" d="M 859.289062 347.558594 C 867.464844 345.964844 875.722656 345 884.042969 344.660156 C 885.003906 344.621094 885.007812 343.125 884.042969 343.164062 C 875.589844 343.507812 867.195312 344.5 858.890625 346.117188 C 857.949219 346.296875 858.347656 347.742188 859.289062 347.558594 " fill-opacity="1" fill-rule="nonzero"/><path fill="#001035" d="M 630.679688 152.761719 C 630.679688 154.796875 630.679688 156.835938 630.679688 158.875 C 630.679688 159.839844 632.171875 159.839844 632.171875 158.875 C 632.171875 156.835938 632.171875 154.796875 632.171875 152.761719 C 632.171875 151.796875 630.679688 151.796875 630.679688 152.761719 " fill-opacity="1" fill-rule="nonzero"/><path fill="#001035" d="M 642.964844 153.460938 C 642.386719 155.484375 641.808594 157.5 641.230469 159.519531 C 640.96875 160.449219 642.410156 160.84375 642.675781 159.917969 C 643.25 157.898438 643.828125 155.878906 644.40625 153.863281 C 644.671875 152.929688 643.226562 152.539062 642.964844 153.460938 " fill-opacity="1" fill-rule="nonzero"/><path fill="#001035" d="M 650.953125 161.761719 C 652.253906 160.128906 653.5625 158.5 654.863281 156.867188 C 655.460938 156.125 654.410156 155.058594 653.804688 155.808594 C 652.503906 157.441406 651.195312 159.070312 649.894531 160.703125 C 649.296875 161.449219 650.347656 162.515625 650.953125 161.761719 " fill-opacity="1" fill-rule="nonzero"/><path fill="#ffffff" d="M 807.320312 372.792969 C 807.320312 372.792969 787.703125 353.074219 807.320312 332.566406 L 631.597656 332.566406 C 631.597656 332.566406 606.539062 331.003906 603.460938 351.84375 C 600.386719 372.691406 637.847656 372.792969 637.847656 372.792969 L 807.320312 372.792969 " fill-opacity="1" fill-rule="nonzero"/><path fill="#ffffff" d="M 619.371094 327.652344 C 619.371094 327.652344 635.851562 302.027344 619.371094 276.664062 L 782.96875 276.664062 C 782.96875 276.664062 806.332031 278.238281 807.296875 302.769531 C 808.265625 327.300781 778.546875 327.652344 778.546875 327.652344 L 619.371094 327.652344 " fill-opacity="1" fill-rule="nonzero"/><path fill="#ffffff" d="M 797.566406 273.597656 C 797.566406 273.597656 781.457031 252.871094 797.566406 231.742188 L 633.734375 231.90625 C 633.734375 231.90625 604.160156 230.90625 603.453125 251.871094 C 602.75 272.835938 631.453125 272.816406 631.453125 272.816406 L 797.566406 273.597656 " fill-opacity="1" fill-rule="nonzero"/><path fill="#ff1930" d="M 778.128906 329.898438 L 614.292969 328.644531 C 613.050781 328.632812 612.054688 327.621094 612.066406 326.378906 C 612.074219 325.144531 613.078125 324.152344 614.308594 324.152344 C 614.3125 324.152344 614.320312 324.152344 614.324219 324.152344 L 778.144531 325.40625 C 779.21875 325.402344 805.054688 325.070312 805.054688 302.769531 C 805.054688 293.371094 800.929688 286.515625 792.796875 282.394531 C 786.824219 279.367188 780.828125 278.941406 780.265625 278.910156 L 614.308594 278.910156 C 613.070312 278.910156 612.066406 277.902344 612.066406 276.664062 C 612.066406 275.421875 613.070312 274.414062 614.308594 274.414062 L 780.324219 274.414062 C 780.359375 274.414062 780.394531 274.417969 780.429688 274.417969 C 780.722656 274.433594 787.734375 274.792969 794.824219 278.386719 C 801.539062 281.789062 809.542969 288.785156 809.542969 302.769531 C 809.542969 313.90625 804.027344 322.144531 793.589844 326.601562 C 785.96875 329.855469 778.445312 329.898438 778.128906 329.898438 " fill-opacity="1" fill-rule="nonzero"/><path fill="#00a142" d="M 807.28125 375.039062 L 631.144531 375.039062 C 631.113281 375.039062 631.089844 375.039062 631.0625 375.035156 C 630.761719 375.027344 623.671875 374.746094 616.472656 371.886719 C 606.488281 367.933594 601.210938 361.003906 601.210938 351.847656 C 601.210938 342.628906 606.917969 335.855469 617.71875 332.25 C 625.460938 329.667969 633.078125 329.632812 633.398438 329.632812 L 807.746094 329.632812 C 808.984375 329.632812 809.988281 330.636719 809.988281 331.878906 C 809.988281 333.121094 808.984375 334.125 807.746094 334.125 L 633.398438 334.125 C 633.125 334.125 605.699219 334.378906 605.699219 351.847656 C 605.699219 359.078125 609.84375 364.40625 618.027344 367.675781 C 624.273438 370.171875 630.664062 370.523438 631.191406 370.546875 L 807.28125 370.546875 C 808.519531 370.546875 809.523438 371.550781 809.523438 372.792969 C 809.523438 374.035156 808.519531 375.039062 807.28125 375.039062 " fill-opacity="1" fill-rule="nonzero"/><path fill="#00748f" d="M 803.800781 275.0625 L 630.667969 275.0625 C 630.644531 275.0625 630.617188 275.0625 630.585938 275.0625 C 630.296875 275.054688 623.308594 274.769531 616.222656 271.910156 C 606.402344 267.949219 601.210938 261.019531 601.210938 251.871094 C 601.210938 242.660156 606.824219 235.886719 617.449219 232.28125 C 625.070312 229.695312 632.570312 229.660156 632.886719 229.660156 L 804.261719 229.660156 C 805.5 229.660156 806.503906 230.664062 806.503906 231.90625 C 806.503906 233.144531 805.5 234.148438 804.261719 234.148438 L 632.886719 234.148438 C 632.617188 234.152344 605.699219 234.40625 605.699219 251.871094 C 605.699219 269.15625 629.667969 270.523438 630.71875 270.574219 L 803.800781 270.574219 C 805.039062 270.574219 806.042969 271.578125 806.042969 272.816406 C 806.042969 274.058594 805.039062 275.0625 803.800781 275.0625 " fill-opacity="1" fill-rule="nonzero"/><path fill="#64bdc7" d="M 539.972656 374.164062 L 515 367.832031 L 545.207031 248.5625 L 570.175781 254.894531 L 539.972656 374.164062 " fill-opacity="1" fill-rule="nonzero"/><path fill="#ff3e4a" d="M 570.496094 372.824219 L 542.054688 365.613281 L 580.269531 214.710938 L 608.707031 221.921875 L 570.496094 372.824219 " fill-opacity="1" fill-rule="nonzero"/><path fill="#000000" d="M 542.359375 365.429688 L 570.316406 372.519531 L 608.40625 222.101562 L 580.453125 215.015625 Z M 570.675781 373.125 L 541.753906 365.792969 L 541.816406 365.550781 L 580.09375 214.40625 L 609.011719 221.742188 L 608.949219 221.984375 L 570.675781 373.125 " fill-opacity="1" fill-rule="nonzero"/><path fill="#02093d" d="M 614.308594 285.3125 C 614.308594 291.3125 609.449219 296.175781 603.453125 296.175781 C 597.457031 296.175781 592.597656 291.3125 592.597656 285.3125 C 592.597656 279.316406 597.457031 274.449219 603.453125 274.449219 C 609.449219 274.449219 614.308594 279.316406 614.308594 285.3125 " fill-opacity="1" fill-rule="nonzero"/><path fill="#ff84b1" d="M 591.253906 295.925781 L 608.570312 282.652344 C 609.4375 281.988281 610.660156 282.0625 611.429688 282.835938 C 614.257812 285.65625 619.742188 292.929688 613.507812 302.480469 C 612.960938 303.328125 611.714844 303.328125 611.152344 302.492188 L 608.667969 298.828125 L 603.191406 307.089844 C 600.332031 311.402344 594.265625 312.066406 590.542969 308.46875 C 586.894531 304.953125 587.234375 299.011719 591.253906 295.925781 " fill-opacity="1" fill-rule="nonzero"/><path fill="#ffba00" d="M 587.035156 340.773438 C 590.65625 338.957031 594.441406 338.695312 598.191406 339.34375 C 597.898438 338.957031 597.613281 338.566406 597.34375 338.160156 L 589.742188 326.828125 L 612.371094 313.941406 L 607.402344 306.277344 C 602.40625 298.554688 592.554688 295.601562 584.136719 299.292969 L 583.359375 299.636719 C 571.332031 304.917969 565.957031 319.035156 571.425781 330.980469 L 581.027344 351.957031 C 581.222656 347.390625 583.09375 342.925781 587.035156 340.773438 " fill-opacity="1" fill-rule="nonzero"/><path fill="#0076bf" d="M 617.558594 348.949219 C 609.933594 348.949219 602.777344 345.371094 598.191406 339.34375 C 594.441406 338.695312 590.65625 338.957031 587.035156 340.773438 C 583.09375 342.925781 581.222656 347.390625 581.027344 351.957031 L 582.957031 356.164062 C 588.160156 367.535156 599.507812 374.824219 612.003906 374.824219 L 683.824219 374.824219 C 685.246094 366.152344 687.613281 357.589844 689.765625 348.949219 L 617.558594 348.949219 " fill-opacity="1" fill-rule="nonzero"/><path fill="#001035" d="M 707.128906 342.339844 C 694.148438 338.15625 690.050781 348.949219 690.050781 348.949219 L 689.765625 348.949219 C 687.613281 357.589844 685.246094 366.152344 683.824219 374.824219 L 697.914062 374.824219 L 707.128906 342.339844 " fill-opacity="1" fill-rule="nonzero"/><path fill="#ffba00" d="M 627.246094 327.347656 C 623.382812 327.347656 619.78125 325.390625 617.683594 322.144531 L 612.371094 313.941406 L 589.742188 326.828125 L 597.828125 338.882812 C 602.046875 345.171875 609.117188 348.949219 616.683594 348.949219 L 638.375 348.949219 L 638.375 327.347656 L 627.246094 327.347656 " fill-opacity="1" fill-rule="nonzero"/><path fill="#001035" d="M 663.996094 336.773438 L 657.085938 336.773438 L 677.03125 293.980469 L 683.9375 293.980469 L 663.996094 336.773438 " fill-opacity="1" fill-rule="nonzero"/><path fill="#ff84b1" d="M 665.765625 327.347656 L 638.375 327.347656 L 638.375 348.949219 L 654.65625 348.949219 C 663.570312 348.949219 666.953125 335.824219 668.011719 330.039062 C 668.265625 328.636719 667.1875 327.347656 665.765625 327.347656 " fill-opacity="1" fill-rule="nonzero"/><path fill="#ff84b1" d="M 602.4375 281.398438 C 604.265625 281.398438 605.746094 282.878906 605.746094 284.710938 C 605.746094 286.539062 604.265625 288.019531 602.4375 288.019531 C 600.609375 288.019531 599.132812 286.539062 599.132812 284.710938 C 599.132812 282.878906 600.609375 281.398438 602.4375 281.398438 " fill-opacity="1" fill-rule="nonzero"/><path fill="#00633e" d="M 688.8125 232.820312 C 688.8125 232.820312 717.789062 235.324219 708.773438 204.421875 L 652.492188 204.421875 C 652.492188 204.421875 632.074219 208.34375 639.179688 235.269531 L 652.269531 272.894531 L 702.371094 272.894531 L 688.8125 232.820312 " fill-opacity="1" fill-rule="nonzero"/><path fill="#001035" d="M 702.371094 272.894531 L 652.269531 272.894531 L 652.492188 273.53125 C 652.492188 273.53125 643.320312 275.171875 641.496094 285.640625 L 706.679688 285.640625 L 702.371094 272.894531 " fill-opacity="1" fill-rule="nonzero"/><path fill="#ffba00" d="M 704.835938 204.421875 C 712.792969 204.421875 719.785156 199.167969 722.011719 191.527344 L 727.121094 173.972656 C 729.800781 164.769531 722.902344 155.566406 713.320312 155.566406 L 677.390625 155.566406 C 668.785156 155.566406 661.035156 160.785156 657.792969 168.769531 L 643.859375 203.082031 L 704.835938 204.421875 " fill-opacity="1" fill-rule="nonzero"/><path fill="#001035" d="M 682.960938 199.859375 L 670.109375 172.148438 L 621.46875 172.148438 L 636.429688 204.394531 L 678.117188 204.394531 L 678.117188 204.421875 L 704.835938 204.421875 L 704.835938 199.859375 L 682.960938 199.859375 " fill-opacity="1" fill-rule="nonzero"/><g clip-path="url(#be63740e9b)"><path fill="#001035" d="M 670.75 148.851562 C 669.714844 147.855469 668.140625 147.761719 666.714844 147.621094 C 664.875 147.441406 663.054688 147.085938 661.285156 146.566406 C 660.308594 146.28125 659.324219 145.925781 658.554688 145.261719 C 657.785156 144.601562 657.261719 143.5625 657.464844 142.566406 C 657.789062 140.96875 659.617188 140.277344 661.128906 139.664062 C 661.671875 139.441406 662.285156 139.09375 662.332031 138.507812 C 662.351562 138.25 662.253906 137.992188 662.148438 137.75 C 661.605469 136.496094 660.867188 135.203125 659.625 134.636719 C 658.28125 134.023438 656.722656 134.417969 655.246094 134.402344 C 653.597656 134.386719 652 133.847656 650.457031 133.269531 C 648.289062 132.460938 646.089844 131.507812 644.53125 129.804688 C 642.96875 128.097656 642.222656 125.445312 643.34375 123.421875 C 644.140625 121.980469 645.753906 121.109375 647.390625 120.941406 C 649.03125 120.773438 650.679688 121.238281 652.15625 121.96875 C 654.996094 123.375 657.53125 125.824219 660.703125 125.886719 C 661.566406 125.902344 662.488281 125.703125 663.105469 125.09375 C 663.914062 124.300781 664 123.023438 663.839844 121.902344 C 663.519531 119.648438 662.429688 117.285156 663.371094 115.210938 C 664.414062 112.910156 667.695312 112.308594 669.886719 113.558594 C 672.078125 114.800781 673.257812 117.339844 673.621094 119.839844 C 673.988281 122.335938 673.683594 124.875 673.65625 127.398438 C 673.640625 128.617188 673.871094 130.113281 675.015625 130.542969 C 676.589844 131.136719 678.640625 129.160156 679.835938 130.347656 C 680.121094 130.632812 680.253906 131.035156 680.332031 131.425781 C 680.703125 133.253906 680.1875 135.132812 679.675781 136.929688 C 678.625 140.617188 677.253906 144.707031 673.835938 146.441406 L 670.75 148.851562 " fill-opacity="1" fill-rule="nonzero"/></g><path fill="#ff84b1" d="M 692.238281 153.394531 L 682.335938 143.882812 C 682.351562 143.882812 682.367188 143.886719 682.382812 143.886719 C 684.675781 143.886719 686.542969 142.023438 686.542969 139.722656 C 686.542969 137.421875 684.675781 135.558594 682.382812 135.558594 C 680.082031 135.558594 678.222656 137.421875 678.222656 139.722656 C 678.222656 139.796875 678.226562 139.871094 678.230469 139.941406 L 675.105469 136.941406 C 674.351562 136.21875 673.222656 136.023438 672.28125 136.476562 C 663.035156 140.929688 665.929688 150.765625 667.363281 154.34375 C 667.644531 155.046875 668.507812 155.300781 669.128906 154.871094 L 673.335938 151.964844 L 677.671875 163.011719 C 678.835938 165.972656 681.363281 168.207031 684.460938 168.933594 C 688.820312 169.957031 691.570312 168.476562 693.3125 166.261719 C 696.347656 162.390625 695.78125 156.800781 692.238281 153.394531 " fill-opacity="1" fill-rule="nonzero"/><path fill="#001035" d="M 752.082031 228.421875 L 767.949219 228.421875 L 772.523438 214.796875 L 747.503906 214.796875 Z M 768.484375 229.917969 L 751.546875 229.917969 C 751.222656 229.917969 750.941406 229.710938 750.835938 229.40625 L 745.757812 214.289062 C 745.679688 214.058594 745.71875 213.808594 745.855469 213.613281 C 745.996094 213.417969 746.222656 213.300781 746.460938 213.300781 L 773.566406 213.300781 C 773.808594 213.300781 774.03125 213.417969 774.171875 213.613281 C 774.3125 213.808594 774.351562 214.058594 774.273438 214.289062 L 769.195312 229.40625 C 769.089844 229.710938 768.804688 229.917969 768.484375 229.917969 " fill-opacity="1" fill-rule="nonzero"/><path fill="#6dc62a" d="M 761.046875 213.09375 C 755.542969 209.417969 748.078125 201.421875 744.089844 193.421875 C 741.054688 187.335938 739.453125 182.816406 738.398438 176.058594 C 738.269531 175.238281 738.1875 174.261719 738.949219 173.773438 C 739.640625 173.332031 740.5625 173.558594 741.085938 174.191406 C 749.070312 183.816406 757.003906 206.28125 761.046875 213.09375 C 756.996094 200.902344 751.4375 181.734375 755.742188 167.644531 C 756.273438 165.933594 758.6875 165.851562 759.292969 167.539062 C 759.679688 168.609375 759.890625 169.800781 760.046875 170.921875 C 761.964844 184.863281 761.90625 199.035156 761.046875 213.09375 C 762.585938 199.976562 768.390625 187.449219 777.269531 178.074219 C 778.324219 176.960938 779.578125 175.839844 780.9375 175.265625 C 782.359375 174.660156 783.941406 175.863281 783.726562 177.394531 C 783.382812 179.84375 781.925781 182.191406 780.519531 184.285156 C 774.125 193.816406 767.730469 203.347656 761.339844 212.878906 L 761.046875 213.09375 " fill-opacity="1" fill-rule="nonzero"/><path fill="#ff3e4a" d="M 869.027344 374.824219 L 740.121094 374.824219 L 740.121094 348.046875 L 869.027344 348.046875 L 869.027344 374.824219 " fill-opacity="1" fill-rule="nonzero"/><path fill="#001035" d="M 766.578125 334.234375 C 755.886719 333.589844 754.496094 348.046875 754.496094 348.046875 L 793.925781 348.046875 L 796.964844 332.902344 L 766.898438 332.902344 L 766.578125 334.234375 " fill-opacity="1" fill-rule="nonzero"/><path fill="#001035" d="M 821.796875 332.902344 L 822.195312 334.234375 C 811.585938 334.378906 808.84375 348.046875 808.84375 348.046875 L 856.980469 348.046875 L 852.289062 332.902344 L 821.796875 332.902344 " fill-opacity="1" fill-rule="nonzero"/><path fill="#ff84b1" d="M 881.730469 183.132812 C 880.769531 174.632812 872.902344 183.132812 872.902344 183.132812 C 871.90625 172.929688 863.476562 183.132812 863.476562 183.132812 C 861.828125 173.953125 854.769531 181.515625 854.769531 181.515625 L 845.199219 205.242188 L 875.230469 205.242188 L 881.730469 183.132812 " fill-opacity="1" fill-rule="nonzero"/><path fill="#ffba00" d="M 845.480469 205.242188 C 845.308594 205.242188 845.160156 205.347656 845.101562 205.507812 L 840.984375 216.972656 C 835.117188 231.027344 825.398438 231.246094 825.398438 231.246094 L 790.660156 231.246094 C 781.222656 231.246094 773.027344 237.734375 770.851562 246.921875 L 767.105469 262.757812 C 767.046875 263.011719 767.234375 263.25 767.488281 263.253906 C 788.023438 263.589844 808.554688 263.992188 829.089844 262.140625 C 829.347656 262.113281 829.515625 261.855469 829.441406 261.613281 C 829.355469 261.34375 828.8125 262.175781 829.089844 262.140625 C 861.414062 258.1875 871.554688 219.132812 871.769531 218.46875 C 871.773438 218.460938 871.773438 218.453125 871.777344 218.449219 L 875.097656 205.746094 C 875.164062 205.492188 874.972656 205.242188 874.710938 205.242188 L 845.480469 205.242188 " fill-opacity="1" fill-rule="nonzero"/><path fill="#77339f" d="M 766.992188 263.246094 L 766.578125 264.980469 L 783.800781 264.980469 L 766.898438 332.902344 L 796.964844 332.902344 L 806.941406 284.824219 L 821.796875 332.902344 L 852.289062 332.902344 L 829.59375 262.09375 C 808.726562 264.015625 787.859375 263.589844 766.992188 263.246094 " fill-opacity="1" fill-rule="nonzero"/><path fill="#001035" d="M 794.371094 269.757812 L 781.515625 242.046875 L 732.875 242.046875 L 747.839844 274.296875 L 789.527344 274.296875 L 789.527344 274.320312 L 816.25 274.320312 L 816.25 269.757812 L 794.371094 269.757812 " fill-opacity="1" fill-rule="nonzero"/><path fill="#001035" d="M 810.925781 206.535156 C 814.417969 202.546875 812.921875 196.558594 816.910156 193.0625 C 819.402344 190.070312 823.890625 191.066406 826.382812 187.574219 C 828.382812 184.582031 825.886719 181.089844 827.382812 178.09375 C 829.875 173.605469 836.355469 173.605469 838.351562 168.609375 C 839.347656 165.121094 836.355469 161.125 838.851562 157.636719 C 841.84375 154.640625 844.335938 150.648438 843.339844 146.15625 C 843.277344 145.710938 843.183594 145.269531 843.070312 144.84375 C 840.15625 144.453125 837.039062 146.285156 836.046875 149.074219 C 835.386719 150.933594 835.5625 153.09375 834.472656 154.734375 C 832.210938 158.132812 826.316406 156.984375 823.84375 160.230469 C 821.648438 163.113281 823.5625 167.554688 821.839844 170.738281 C 819.433594 175.171875 811.933594 174.207031 809.277344 178.496094 C 807.3125 181.667969 809.09375 186.027344 807.53125 189.414062 C 806.265625 192.171875 803.164062 193.519531 801.054688 195.703125 C 797.402344 199.480469 797.3125 206.097656 800.765625 210.035156 C 804.710938 210.570312 808.671875 209.546875 810.925781 206.535156 " fill-opacity="1" fill-rule="nonzero"/><path fill="#0076bf" d="M 843.617188 144.941406 C 843.4375 144.898438 843.253906 144.867188 843.070312 144.84375 C 843.183594 145.269531 843.277344 145.710938 843.339844 146.15625 C 844.335938 150.648438 841.84375 154.640625 838.851562 157.636719 C 836.355469 161.125 839.347656 165.121094 838.351562 168.609375 C 836.355469 173.605469 829.875 173.605469 827.382812 178.09375 C 825.886719 181.089844 828.382812 184.582031 826.382812 187.574219 C 823.890625 191.066406 819.402344 190.070312 816.910156 193.0625 C 812.921875 196.558594 814.417969 202.546875 810.925781 206.535156 C 808.671875 209.546875 804.710938 210.570312 800.765625 210.035156 C 800.855469 210.140625 800.941406 210.25 801.039062 210.351562 L 800.921875 212.96875 C 803.578125 214.964844 807.324219 214.136719 810.523438 213.214844 C 814.296875 212.125 818.671875 210.441406 819.605469 206.621094 C 820.285156 203.839844 818.902344 200.484375 820.710938 198.265625 C 822.289062 196.332031 825.292969 196.5625 827.539062 195.46875 C 832.523438 193.039062 831.90625 185.679688 834.972656 181.058594 C 836.832031 178.25 839.964844 176.617188 842.550781 174.46875 C 845.144531 172.320312 847.375 168.96875 846.351562 165.761719 C 846.058594 164.832031 845.503906 164 845.25 163.066406 C 844.214844 159.277344 848.128906 155.902344 848.578125 152 C 848.945312 148.871094 846.679688 145.652344 843.617188 144.941406 " fill-opacity="1" fill-rule="nonzero"/><path fill="#ff84b1" d="M 763.714844 280.230469 C 761.730469 280.257812 759.894531 279.203125 759.007812 277.515625 C 757.933594 275.476562 756.992188 273.375 756.199219 271.226562 C 755.679688 269.820312 755.210938 268.34375 755.730469 266.839844 C 755.867188 266.449219 756.078125 266.082031 756.375 265.789062 C 757.890625 264.246094 760.078125 265.035156 761.558594 266.167969 C 762.992188 267.265625 764.136719 268.699219 764.863281 270.308594 C 763.089844 268.371094 762.859375 264.925781 765.296875 263.820312 C 765.839844 263.574219 767.460938 263.398438 768.042969 263.554688 C 768.671875 263.71875 769.148438 264.191406 769.582031 264.652344 C 771.046875 266.214844 772.753906 268.441406 773.941406 270.207031 C 773.261719 269.066406 772.484375 267.234375 772.390625 265.929688 C 772.335938 265.125 772.425781 264.234375 773.019531 263.65625 C 773.585938 263.105469 774.484375 262.976562 775.285156 263.105469 C 777.730469 263.492188 779.238281 265.777344 780.433594 267.84375 C 781.726562 270.074219 783.023438 272.308594 784.3125 274.542969 C 785.726562 276.976562 783.898438 279.964844 780.964844 280.003906 L 763.714844 280.230469 " fill-opacity="1" fill-rule="nonzero"/><path fill="#ff84b1" d="M 816.132812 227.40625 L 810.808594 214.746094 C 810.824219 214.753906 810.839844 214.761719 810.855469 214.769531 C 812.960938 215.679688 815.410156 214.710938 816.320312 212.597656 C 817.230469 210.484375 816.261719 208.035156 814.152344 207.125 C 812.042969 206.210938 809.59375 207.183594 808.679688 209.296875 C 808.652344 209.363281 808.632812 209.433594 808.605469 209.503906 L 806.921875 205.507812 C 806.519531 204.542969 805.5625 203.917969 804.515625 203.960938 C 794.261719 204.378906 793.019531 214.558594 792.917969 218.414062 C 792.902344 219.167969 793.589844 219.742188 794.332031 219.59375 L 799.347656 218.597656 L 798.953125 230.460938 C 798.847656 233.640625 800.285156 236.691406 802.839844 238.589844 C 806.433594 241.261719 809.550781 240.988281 812.023438 239.644531 C 816.34375 237.300781 818.039062 231.941406 816.132812 227.40625 " fill-opacity="1" fill-rule="nonzero"/><path fill="#001035" d="M 582.320312 219.609375 C 589.023438 221.664062 595.761719 223.601562 602.539062 225.410156 C 603.472656 225.660156 603.867188 224.21875 602.9375 223.96875 C 596.160156 222.15625 589.421875 220.21875 582.71875 218.164062 C 581.792969 217.878906 581.402344 219.324219 582.320312 219.609375 " fill-opacity="1" fill-rule="nonzero"/><path fill="#001035" d="M 548.332031 359.863281 C 555.214844 362.003906 562.195312 363.746094 569.277344 365.09375 C 570.214844 365.269531 570.621094 363.828125 569.671875 363.648438 C 562.59375 362.300781 555.609375 360.558594 548.730469 358.417969 C 547.808594 358.132812 547.414062 359.578125 548.332031 359.863281 " fill-opacity="1" fill-rule="nonzero"/><path fill="#001035" d="M 744.339844 189.714844 C 749.980469 197.554688 755.179688 205.695312 759.914062 214.113281 C 760.273438 214.757812 761.316406 214.476562 761.308594 213.734375 C 761.152344 203.273438 760.929688 192.792969 758.976562 182.484375 C 758.800781 181.539062 757.355469 181.941406 757.535156 182.882812 C 759.457031 193.058594 759.65625 203.410156 759.808594 213.734375 C 760.273438 213.609375 760.738281 213.484375 761.203125 213.359375 C 756.472656 204.9375 751.277344 196.796875 745.628906 188.960938 C 745.074219 188.1875 743.773438 188.933594 744.339844 189.714844 " fill-opacity="1" fill-rule="nonzero"/><path fill="#001035" d="M 760.835938 213.890625 C 765.777344 204.0625 771.671875 194.769531 778.480469 186.128906 C 779.070312 185.378906 778.015625 184.316406 777.421875 185.070312 C 770.53125 193.8125 764.546875 203.191406 759.546875 213.136719 C 759.113281 213.992188 760.402344 214.753906 760.835938 213.890625 " fill-opacity="1" fill-rule="nonzero"/><path fill="#001035" d="M 647.03125 315.6875 C 648.9375 315.6875 650.851562 315.6875 652.761719 315.6875 C 653.722656 315.6875 653.722656 314.191406 652.761719 314.191406 C 650.851562 314.191406 648.9375 314.191406 647.03125 314.191406 C 646.070312 314.191406 646.066406 315.6875 647.03125 315.6875 " fill-opacity="1" fill-rule="nonzero"/><path fill="#001035" d="M 650.472656 304.171875 C 652.25 304.304688 653.960938 304.6875 655.632812 305.300781 C 656.539062 305.628906 656.929688 304.183594 656.027344 303.859375 C 654.230469 303.199219 652.382812 302.816406 650.472656 302.671875 C 649.511719 302.605469 649.515625 304.101562 650.472656 304.171875 " fill-opacity="1" fill-rule="nonzero"/><path fill="#001035" d="M 656.082031 292.121094 C 657.472656 293.480469 659.097656 294.480469 660.921875 295.140625 C 661.828125 295.46875 662.222656 294.023438 661.320312 293.699219 C 659.742188 293.128906 658.339844 292.238281 657.140625 291.0625 C 656.449219 290.390625 655.390625 291.445312 656.082031 292.121094 " fill-opacity="1" fill-rule="nonzero"/><path fill="#0076bf" d="M 763.558594 139.289062 C 765.523438 142.484375 767.292969 146.535156 769.957031 149.203125 C 772.222656 151.46875 775.816406 151.816406 778.835938 151.351562 C 781.652344 150.917969 784.953125 149.601562 786.828125 147.339844 C 788.035156 145.882812 788.277344 143.890625 786.390625 142.902344 C 781.75 140.457031 777.679688 146.90625 777.234375 150.671875 C 776.484375 157.019531 781.460938 162.011719 786.878906 164.339844 C 787.75 164.714844 788.515625 163.425781 787.632812 163.046875 C 783.828125 161.410156 780.15625 158.585938 778.992188 154.425781 C 777.988281 150.828125 779.460938 144.972656 783.738281 144.078125 C 784.949219 143.691406 785.734375 144.277344 786.09375 145.84375 C 785.5625 146.558594 784.921875 147.164062 784.175781 147.652344 C 783.542969 148.09375 782.859375 148.488281 782.164062 148.816406 C 779.777344 149.925781 776.914062 150.363281 774.324219 149.804688 C 771.503906 149.195312 770.246094 147.292969 768.824219 144.984375 C 767.496094 142.835938 766.175781 140.683594 764.847656 138.535156 C 764.347656 137.714844 763.050781 138.46875 763.558594 139.289062 " fill-opacity="1" fill-rule="nonzero"/><path fill="#001035" d="M 877.320312 263.457031 C 880 267.050781 882.039062 271.0625 883.160156 275.417969 C 883.960938 278.53125 884.023438 281.261719 880.757812 282.90625 C 879.765625 283.40625 878.648438 283.757812 877.5625 283.988281 C 876.648438 284.1875 871.667969 285.269531 872.753906 282.09375 C 873.433594 280.085938 877.851562 279.511719 879.65625 279.378906 C 882.328125 279.183594 885.066406 279.667969 887.492188 280.832031 C 891.449219 282.734375 894.308594 286.285156 895.613281 290.445312 C 895.902344 291.363281 897.347656 290.972656 897.058594 290.046875 C 895.074219 283.746094 889.84375 278.953125 883.226562 278.015625 C 880.214844 277.59375 869.027344 278.378906 871.179688 284.058594 C 872.046875 286.34375 875.097656 285.914062 876.984375 285.613281 C 879.6875 285.183594 883.371094 284.054688 884.660156 281.363281 C 885.945312 278.679688 884.761719 275.1875 883.871094 272.578125 C 882.648438 269.015625 880.859375 265.71875 878.613281 262.703125 C 878.042969 261.9375 876.742188 262.683594 877.320312 263.457031 " fill-opacity="1" fill-rule="nonzero"/><path fill="#ff3e4a" d="M 510.773438 272.378906 C 514.832031 265.675781 519.171875 258.179688 517.652344 250.015625 C 517.160156 247.367188 514.203125 239.59375 510.355469 240.828125 C 508.128906 241.539062 507.902344 244.875 508.414062 246.707031 C 509.285156 249.84375 512.191406 251.734375 514.945312 253.082031 C 518.125 254.640625 521.796875 255.921875 525.367188 255.1875 C 528.984375 254.449219 531.40625 251.648438 533.605469 248.886719 C 534.199219 248.140625 533.144531 247.074219 532.546875 247.828125 C 530.996094 249.777344 529.363281 251.867188 527.097656 253.023438 C 523.949219 254.632812 520.273438 253.75 517.183594 252.457031 C 514.816406 251.460938 512.195312 250.210938 510.707031 248.03125 C 509.964844 246.945312 508.78125 243.535156 510.472656 242.492188 C 511.523438 241.839844 512.449219 243.027344 513.035156 243.714844 C 520.34375 252.308594 514.390625 263.507812 509.484375 271.625 C 508.984375 272.453125 510.277344 273.207031 510.773438 272.378906 " fill-opacity="1" fill-rule="nonzero"/><path fill="#001035" d="M 547.257812 253.925781 C 552.28125 255.335938 557.203125 257.050781 562.011719 259.085938 C 562.886719 259.460938 563.648438 258.167969 562.761719 257.792969 C 557.835938 255.707031 552.808594 253.929688 547.65625 252.480469 C 546.726562 252.21875 546.332031 253.664062 547.257812 253.925781 " fill-opacity="1" fill-rule="nonzero"/><path fill="#001035" d="M 519.808594 361.175781 C 525.082031 363.167969 530.421875 364.964844 535.835938 366.554688 C 536.757812 366.828125 537.15625 365.382812 536.230469 365.109375 C 530.820312 363.515625 525.480469 361.726562 520.203125 359.734375 C 519.300781 359.390625 518.914062 360.835938 519.808594 361.175781 " fill-opacity="1" fill-rule="nonzero"/><path fill="#001035" d="M 746.351562 350.488281 C 746.351562 356.984375 746.351562 363.484375 746.351562 369.980469 C 746.351562 370.941406 747.847656 370.945312 747.847656 369.980469 C 747.847656 363.484375 747.847656 356.984375 747.847656 350.488281 C 747.847656 349.527344 746.351562 349.523438 746.351562 350.488281 " fill-opacity="1" fill-rule="nonzero"/><path fill="#001035" d="M 860.167969 350.488281 C 860.167969 357.109375 860.167969 363.738281 860.167969 370.363281 C 860.167969 371.324219 861.667969 371.324219 861.667969 370.363281 C 861.667969 363.738281 861.667969 357.109375 861.667969 350.488281 C 861.667969 349.527344 860.167969 349.523438 860.167969 350.488281 " fill-opacity="1" fill-rule="nonzero"/><path fill="#001035" d="M 762.347656 266.625 C 763.875 270.953125 765.402344 275.285156 766.929688 279.621094 C 767.25 280.519531 768.695312 280.132812 768.371094 279.21875 C 766.847656 274.886719 765.316406 270.558594 763.789062 266.222656 C 763.472656 265.324219 762.023438 265.710938 762.347656 266.625 " fill-opacity="1" fill-rule="nonzero"/><path fill="#001035" d="M 770.738281 265.097656 C 772.65625 270.320312 774.578125 275.539062 776.5 280.761719 C 776.828125 281.65625 778.277344 281.265625 777.941406 280.359375 C 776.019531 275.140625 774.097656 269.921875 772.179688 264.699219 C 771.851562 263.804688 770.402344 264.195312 770.738281 265.097656 " fill-opacity="1" fill-rule="nonzero"/><path fill="#001035" d="M 754.738281 269.4375 C 763.777344 269.4375 772.820312 269.4375 781.859375 269.4375 C 782.820312 269.4375 782.820312 267.941406 781.859375 267.941406 C 772.820312 267.941406 763.777344 267.941406 754.738281 267.941406 C 753.773438 267.941406 753.773438 269.4375 754.738281 269.4375 " fill-opacity="1" fill-rule="nonzero"/><path fill="#001035" d="M 859.855469 195.933594 C 861.683594 191.320312 863.519531 186.699219 865.355469 182.085938 C 865.710938 181.1875 864.261719 180.800781 863.910156 181.683594 C 862.078125 186.300781 860.242188 190.917969 858.414062 195.535156 C 858.054688 196.429688 859.5 196.820312 859.855469 195.933594 " fill-opacity="1" fill-rule="nonzero"/><path fill="#001035" d="M 868.304688 195.429688 C 869.988281 190.738281 872.054688 186.230469 874.503906 181.894531 C 874.976562 181.058594 873.6875 180.300781 873.210938 181.136719 C 870.699219 185.589844 868.585938 190.21875 866.863281 195.03125 C 866.535156 195.941406 867.980469 196.332031 868.304688 195.429688 " fill-opacity="1" fill-rule="nonzero"/><path fill="#001035" d="M 855.191406 183.820312 C 863.082031 183.820312 870.980469 183.820312 878.871094 183.820312 C 879.832031 183.820312 879.832031 182.324219 878.871094 182.324219 C 870.980469 182.324219 863.082031 182.324219 855.191406 182.324219 C 854.226562 182.324219 854.226562 183.820312 855.191406 183.820312 " fill-opacity="1" fill-rule="nonzero"/><path fill="#001035" d="M 681.625 140.976562 C 682.273438 140.089844 682.917969 139.207031 683.566406 138.324219 C 684.132812 137.542969 682.835938 136.796875 682.273438 137.566406 C 681.625 138.453125 680.976562 139.335938 680.332031 140.21875 C 679.761719 140.996094 681.058594 141.746094 681.625 140.976562 " fill-opacity="1" fill-rule="nonzero"/><path fill="#001035" d="M 811.035156 211.511719 C 811.792969 210.757812 812.707031 210.320312 813.753906 210.152344 C 814.703125 210 814.300781 208.558594 813.355469 208.707031 C 812.070312 208.914062 810.902344 209.535156 809.980469 210.453125 C 809.292969 211.132812 810.355469 212.191406 811.035156 211.511719 " fill-opacity="1" fill-rule="nonzero"/><path fill="#001035" d="M 805.136719 279.609375 C 805.769531 282.03125 806.394531 284.453125 807.023438 286.878906 C 807.265625 287.808594 808.710938 287.414062 808.464844 286.480469 C 807.835938 284.054688 807.210938 281.632812 806.582031 279.210938 C 806.339844 278.277344 804.894531 278.671875 805.136719 279.609375 " fill-opacity="1" fill-rule="nonzero"/><path fill="#001035" d="M 801.382812 209.269531 C 802.117188 208.941406 803.09375 209.179688 803.578125 209.824219 C 804.152344 210.582031 805.449219 209.835938 804.871094 209.066406 C 803.855469 207.722656 802.171875 207.28125 800.632812 207.976562 C 799.753906 208.371094 800.515625 209.664062 801.382812 209.269531 " fill-opacity="1" fill-rule="nonzero"/><path fill="#001035" d="M 795.875 207.875 C 794.558594 208.320312 793.320312 208.925781 792.167969 209.707031 C 791.738281 210 791.703125 210.492188 792.019531 210.882812 C 792.546875 211.535156 793.195312 212.050781 793.953125 212.414062 C 794.820312 212.828125 795.574219 211.539062 794.710938 211.121094 C 794.054688 210.804688 793.53125 210.386719 793.078125 209.824219 C 793.027344 210.214844 792.976562 210.609375 792.925781 211 C 793.96875 210.289062 795.078125 209.722656 796.273438 209.320312 C 797.179688 209.011719 796.792969 207.566406 795.875 207.875 " fill-opacity="1" fill-rule="nonzero"/><path fill="#001035" d="M 797.261719 216.316406 C 798.0625 216.320312 798.902344 216.261719 799.539062 215.710938 C 800.070312 215.253906 800.367188 214.453125 800.089844 213.777344 C 799.941406 213.402344 799.59375 213.136719 799.175781 213.253906 C 798.820312 213.351562 798.496094 213.796875 798.648438 214.175781 C 798.929688 214.855469 797.613281 214.820312 797.261719 214.820312 C 796.296875 214.8125 796.296875 216.308594 797.261719 216.316406 " fill-opacity="1" fill-rule="nonzero"/><path fill="#001035" d="M 609.351562 291.058594 C 610.3125 290.605469 611.347656 290.582031 612.355469 290.914062 C 613.269531 291.21875 613.660156 289.773438 612.75 289.472656 C 611.355469 289.007812 609.914062 289.140625 608.59375 289.769531 C 607.726562 290.179688 608.484375 291.472656 609.351562 291.058594 " fill-opacity="1" fill-rule="nonzero"/><path fill="#001035" d="M 614.914062 291.910156 C 615.695312 293.488281 616.648438 294.9375 617.757812 296.296875 C 617.867188 295.878906 617.976562 295.464844 618.085938 295.046875 C 617.183594 295.1875 616.285156 295.363281 615.394531 295.5625 C 614.453125 295.773438 614.851562 297.214844 615.789062 297.003906 C 616.683594 296.804688 617.582031 296.632812 618.484375 296.488281 C 619.097656 296.394531 619.128906 295.621094 618.816406 295.238281 C 617.789062 293.980469 616.925781 292.613281 616.207031 291.15625 C 615.777344 290.292969 614.484375 291.050781 614.914062 291.910156 " fill-opacity="1" fill-rule="nonzero"/><path fill="#001035" d="M 610.632812 298.800781 C 610.71875 299.695312 611.457031 300.484375 612.402344 300.410156 C 612.792969 300.378906 613.171875 300.085938 613.152344 299.660156 C 613.132812 299.28125 612.820312 298.878906 612.402344 298.910156 C 612.355469 298.917969 612.3125 298.917969 612.269531 298.917969 C 612.355469 298.933594 612.355469 298.929688 612.269531 298.910156 C 612.1875 298.882812 612.183594 298.882812 612.261719 298.910156 C 612.1875 298.863281 612.183594 298.863281 612.246094 298.910156 C 612.210938 298.882812 612.179688 298.847656 612.148438 298.816406 C 612.191406 298.882812 612.191406 298.878906 612.144531 298.804688 C 612.101562 298.730469 612.101562 298.726562 612.136719 298.800781 C 612.117188 298.71875 612.117188 298.71875 612.128906 298.800781 C 612.089844 298.414062 611.8125 298.035156 611.378906 298.054688 C 611.007812 298.070312 610.59375 298.382812 610.632812 298.800781 " fill-opacity="1" fill-rule="nonzero"/><path fill="#001035" d="M 601.074219 283.878906 C 601.59375 284.628906 602.179688 285.324219 602.839844 285.949219 C 603.539062 286.609375 604.601562 285.550781 603.898438 284.890625 C 603.332031 284.351562 602.816406 283.765625 602.367188 283.125 C 602.136719 282.796875 601.710938 282.640625 601.34375 282.855469 C 601.015625 283.050781 600.84375 283.550781 601.074219 283.878906 " fill-opacity="1" fill-rule="nonzero"/><path fill="#001035" d="M 667.0625 332.878906 C 662.367188 332.878906 657.667969 332.878906 652.972656 332.878906 C 652.011719 332.878906 652.007812 334.378906 652.972656 334.378906 C 657.667969 334.378906 662.367188 334.378906 667.0625 334.378906 C 668.023438 334.378906 668.027344 332.878906 667.0625 332.878906 " fill-opacity="1" fill-rule="nonzero"/><path fill="#001035" d="M 662.988281 341.03125 C 659.59375 341.03125 656.199219 341.03125 652.800781 341.03125 C 651.839844 341.03125 651.835938 342.527344 652.800781 342.527344 C 656.199219 342.527344 659.59375 342.527344 662.988281 342.527344 C 663.949219 342.527344 663.949219 341.03125 662.988281 341.03125 " fill-opacity="1" fill-rule="nonzero"/><path fill="#001035" d="M 670.6875 142.757812 C 671.820312 142.113281 673.160156 141.996094 674.367188 142.527344 C 675.238281 142.910156 676 141.621094 675.121094 141.238281 C 673.410156 140.480469 671.566406 140.53125 669.933594 141.460938 C 669.097656 141.941406 669.851562 143.234375 670.6875 142.757812 " fill-opacity="1" fill-rule="nonzero"/><path fill="#001035" d="M 667.246094 142.488281 C 666.84375 144.210938 666.34375 145.90625 665.742188 147.578125 C 665.589844 148.003906 666 148.570312 666.464844 148.523438 C 667.136719 148.453125 667.808594 148.386719 668.480469 148.320312 C 669.425781 148.222656 669.4375 146.722656 668.480469 146.820312 C 667.808594 146.890625 667.136719 146.957031 666.464844 147.027344 C 666.703125 147.339844 666.945312 147.660156 667.183594 147.972656 C 667.785156 146.304688 668.285156 144.609375 668.691406 142.882812 C 668.910156 141.945312 667.46875 141.546875 667.246094 142.488281 " fill-opacity="1" fill-rule="nonzero"/><path fill="#001035" d="M 671.003906 150.707031 C 672.476562 150.9375 673.78125 149.941406 673.953125 148.457031 C 673.996094 148.054688 673.574219 147.710938 673.199219 147.710938 C 672.757812 147.710938 672.5 148.054688 672.453125 148.457031 C 672.402344 148.90625 671.84375 149.332031 671.398438 149.261719 C 671 149.199219 670.59375 149.363281 670.480469 149.785156 C 670.382812 150.136719 670.601562 150.640625 671.003906 150.707031 " fill-opacity="1" fill-rule="nonzero"/><path fill="#ffffff" d="M 652.492188 189.707031 C 652.492188 190.867188 651.550781 191.804688 650.394531 191.804688 C 649.234375 191.804688 648.296875 190.867188 648.296875 189.707031 C 648.296875 188.546875 649.234375 187.605469 650.394531 187.605469 C 651.550781 187.605469 652.492188 188.546875 652.492188 189.707031 " fill-opacity="1" fill-rule="nonzero"/><path fill="#ffffff" d="M 764.816406 255.957031 C 764.816406 257.117188 763.875 258.058594 762.71875 258.058594 C 761.558594 258.058594 760.621094 257.117188 760.621094 255.957031 C 760.621094 254.796875 761.558594 253.855469 762.71875 253.855469 C 763.875 253.855469 764.816406 254.796875 764.816406 255.957031 " fill-opacity="1" fill-rule="nonzero"/><path fill="#001035" d="M 585.222656 317.167969 C 588.070312 324.566406 591.523438 331.679688 595.597656 338.476562 C 596.089844 339.304688 597.382812 338.550781 596.886719 337.71875 C 592.882812 331.035156 589.464844 324.046875 586.667969 316.773438 C 586.320312 315.878906 584.878906 316.269531 585.222656 317.167969 " fill-opacity="1" fill-rule="nonzero"/><path fill="#001035" d="M 702.355469 167.484375 C 701.367188 170.539062 700.394531 173.597656 699.398438 176.644531 C 698.324219 179.90625 696.949219 182.824219 693.273438 183.578125 C 690.46875 184.160156 687.429688 183.738281 684.601562 183.59375 C 681.214844 183.417969 677.824219 183.238281 674.433594 183.0625 C 673.472656 183.011719 673.476562 184.511719 674.433594 184.558594 C 678.628906 184.777344 682.824219 185 687.023438 185.21875 C 689.8125 185.363281 692.820312 185.609375 695.457031 184.476562 C 697.804688 183.464844 699.171875 181.492188 700.09375 179.179688 C 701.550781 175.515625 702.585938 171.632812 703.796875 167.886719 C 704.09375 166.96875 702.648438 166.570312 702.355469 167.484375 " fill-opacity="1" fill-rule="nonzero"/><path fill="#001035" d="M 668.417969 274.441406 C 668.292969 274.441406 668.164062 274.441406 668.039062 274.441406 C 667.648438 274.441406 667.273438 274.785156 667.289062 275.1875 C 667.308594 275.59375 667.617188 275.9375 668.039062 275.9375 C 668.164062 275.9375 668.292969 275.9375 668.417969 275.9375 C 668.8125 275.9375 669.183594 275.589844 669.167969 275.1875 C 669.152344 274.785156 668.839844 274.441406 668.417969 274.441406 " fill-opacity="1" fill-rule="nonzero"/><path fill="#001035" d="M 674.074219 273.609375 C 669.183594 257.660156 664.140625 241.753906 658.953125 225.902344 C 658.652344 224.988281 657.210938 225.378906 657.511719 226.296875 C 662.703125 242.152344 667.742188 258.054688 672.628906 274.003906 C 672.910156 274.921875 674.355469 274.53125 674.074219 273.609375 " fill-opacity="1" fill-rule="nonzero"/><path fill="#001035" d="M 675.308594 201.296875 C 668.296875 201.855469 661.175781 204.6875 657.964844 211.382812 C 655.5625 216.394531 656.4375 221.703125 657.71875 226.867188 C 657.949219 227.800781 659.390625 227.410156 659.160156 226.472656 C 658.0625 222.054688 657.195312 217.597656 658.828125 213.171875 C 661.355469 206.296875 668.492188 203.335938 675.308594 202.792969 C 676.257812 202.71875 676.269531 201.21875 675.308594 201.296875 " fill-opacity="1" fill-rule="nonzero"/><path fill="#001035" d="M 684.59375 222.023438 C 685.949219 225.722656 687.296875 229.421875 688.652344 233.117188 C 688.980469 234.015625 690.425781 233.625 690.09375 232.714844 C 688.742188 229.019531 687.390625 225.324219 686.035156 221.628906 C 685.710938 220.730469 684.261719 221.117188 684.59375 222.023438 " fill-opacity="1" fill-rule="nonzero"/><g clip-path="url(#86ff9e16d5)"><path fill="#001035" d="M 505.710938 376.3125 C 556.867188 376.3125 608.023438 376.3125 659.179688 376.3125 C 710.167969 376.3125 761.160156 376.3125 812.148438 376.3125 C 840.878906 376.3125 869.617188 376.3125 898.347656 376.3125 C 900.59375 376.3125 900.597656 372.820312 898.347656 372.820312 C 847.195312 372.820312 796.039062 372.820312 744.882812 372.820312 C 693.890625 372.820312 642.902344 372.820312 591.914062 372.820312 C 563.179688 372.820312 534.445312 372.820312 505.710938 372.820312 C 503.46875 372.820312 503.460938 376.3125 505.710938 376.3125 " fill-opacity="1" fill-rule="nonzero"/></g><g mask="url(#90688e3fbd)"><g transform="matrix(1, 0, 0, 1, 0, 151)"><g clip-path="url(#a3f3cdb421)"><g clip-path="url(#3cc059c7e4)"><path fill="#da4120" d="M 141.371094 254.6875 C 150.957031 267.316406 130.847656 286.34375 139.140625 310.90625 C 143.472656 323.742188 153.214844 331.140625 157.644531 334.511719 C 189.316406 358.5625 241.484375 341.972656 269.328125 327.546875 C 273.578125 325.3125 277.699219 322.871094 281.699219 320.214844 C 285.699219 317.558594 289.550781 314.703125 293.257812 311.652344 C 296.960938 308.601562 300.5 305.371094 303.875 301.957031 C 307.25 298.542969 310.441406 294.964844 313.449219 291.222656 C 316.457031 287.484375 319.265625 283.597656 321.875 279.566406 C 324.480469 275.539062 326.878906 271.386719 329.0625 267.113281 C 331.246094 262.835938 333.203125 258.460938 334.9375 253.984375 C 336.671875 249.507812 338.171875 244.957031 339.441406 240.328125 C 344.359375 221.929688 344.46875 199.820312 330.738281 186.617188 C 319.257812 175.570312 301.902344 174.226562 286.820312 169.097656 C 271.738281 163.972656 256.289062 149.671875 261.273438 134.539062 C 262.863281 129.691406 266.351562 125.730469 269.84375 122 C 291.824219 98.519531 318.738281 75.761719 324.0625 44.023438 C 325.441406 35.820312 325.152344 26.996094 321.332031 19.589844 C 313.507812 4.449219 293.710938 -0.191406 276.773438 1.628906 C 225.195312 7.171875 188.109375 53.640625 139.9375 72.890625 C 130.457031 76.679688 118.261719 78.859375 111.167969 71.527344 C 106.933594 67.148438 105.859375 60.5625 102.144531 55.726562 C 95.921875 47.523438 84.101562 46.410156 73.890625 47.441406 C 55.578125 49.304688 37.4375 56.234375 24.109375 68.9375 C 10.78125 81.640625 2.851562 100.460938 5.328125 118.703125 C 6.148438 124.761719 8.078125 130.699219 8.050781 136.8125 C 8.003906 147.40625 2.214844 156.96875 -2.488281 166.464844 C -12.507812 186.707031 -20.054688 220.734375 -6.914062 242.195312 C 6.59375 264.257812 41.300781 273.828125 65.453125 266.464844 C 81.222656 261.648438 85.242188 251.832031 105.457031 248.683594 C 112.714844 247.558594 133.507812 244.320312 141.371094 254.6875 Z M 141.371094 254.6875 " fill-opacity="1" fill-rule="nonzero"/></g></g></g></g></svg>