<svg xmlns="http://www.w3.org/2000/svg" xmlns:xlink="http://www.w3.org/1999/xlink" width="576" zoomAndPan="magnify" viewBox="0 0 432 449.999984" height="600" preserveAspectRatio="xMidYMid meet" version="1.0"><defs><clipPath id="9c3655882e"><path d="M 87.105469 382 L 100 382 L 100 391 L 87.105469 391 Z M 87.105469 382 " clip-rule="nonzero"/></clipPath><clipPath id="71081ab60c"><path d="M 101.234375 409.027344 L 197.648438 409.027344 L 197.648438 449.949219 L 101.234375 449.949219 Z M 101.234375 409.027344 " clip-rule="nonzero"/></clipPath><clipPath id="8fa1811eb1"><path d="M 320 328 L 345.105469 328 L 345.105469 358 L 320 358 Z M 320 328 " clip-rule="nonzero"/></clipPath></defs><rect x="-43.2" width="518.4" fill="#ffffff" y="-44.999998" height="539.99998" fill-opacity="1"/><rect x="-43.2" width="518.4" fill="#f9f9f9" y="-44.999998" height="539.99998" fill-opacity="1"/><path fill="#000d39" d="M 253.042969 372.765625 L 230.476562 372.765625 L 231.585938 382.40625 L 237.253906 382.40625 L 237.253906 378.128906 L 240.835938 382.40625 L 260.578125 382.40625 C 259.535156 375.578125 254.847656 373.371094 253.042969 372.765625 " fill-opacity="1" fill-rule="nonzero"/><path fill="#efefef" d="M 252.328125 372.5625 L 240.835938 317.058594 L 211.855469 317.058594 L 197.390625 382.40625 L 219.699219 380.839844 L 226.085938 334.601562 L 230.476562 372.765625 L 253.042969 372.765625 C 252.597656 372.613281 252.328125 372.5625 252.328125 372.5625 " fill-opacity="1" fill-rule="nonzero"/><path fill="#ff494b" d="M 224.65625 289.859375 L 214.714844 289.859375 C 208.492188 289.859375 202.910156 293.683594 200.664062 299.476562 L 196.359375 310.59375 C 193.828125 317.121094 198.648438 324.152344 205.660156 324.152344 L 221.808594 323.523438 L 225.683594 317.554688 L 240.835938 317.058594 L 242.460938 307.601562 C 242.460938 307.601562 268.234375 302.296875 261.695312 276.246094 L 243.851562 276.246094 C 243.851562 276.246094 250.890625 289.859375 224.65625 289.859375 " fill-opacity="1" fill-rule="nonzero"/><path fill="#ffc086" d="M 245.960938 276.75 C 244.300781 276.746094 242.644531 276.742188 240.988281 276.738281 C 240.59375 276.738281 240.164062 276.714844 239.871094 276.304688 C 239.289062 275.492188 239.679688 273.953125 240.203125 273.050781 C 239.414062 272.898438 238.644531 272.523438 237.933594 271.957031 C 237.71875 271.785156 237.503906 271.582031 237.371094 271.261719 C 237.097656 270.589844 237.324219 269.640625 237.726562 269.164062 C 238.128906 268.6875 238.648438 268.5625 239.144531 268.464844 C 245.445312 267.183594 251.832031 267.039062 258.152344 268.035156 C 258.878906 268.148438 259.636719 268.296875 260.246094 268.945312 C 261.613281 270.40625 261.601562 273.519531 261.863281 276.113281 C 261.898438 276.453125 262.003906 276.882812 262.21875 276.871094 C 262.4375 276.855469 262.261719 276.144531 262.160156 276.449219 L 245.960938 276.75 " fill-opacity="1" fill-rule="nonzero"/><path fill="#000d39" d="M 225.828125 274.113281 C 224.289062 271.230469 220.359375 269.96875 217.457031 271.429688 C 216.304688 272.011719 215.296875 272.960938 214.027344 273.207031 C 211.671875 273.664062 209.476562 271.523438 207.078125 271.679688 C 204.695312 271.832031 202.734375 274.214844 200.363281 273.933594 C 198.453125 273.707031 196.929688 271.773438 195.011719 271.953125 C 193.355469 272.105469 192.265625 273.75 190.792969 274.535156 C 188.738281 275.628906 186.257812 274.933594 183.941406 274.828125 C 181.625 274.722656 178.738281 275.867188 178.675781 278.21875 C 178.625 280.351562 181.003906 281.703125 183.101562 281.871094 C 185.195312 282.035156 187.378906 281.539062 189.359375 282.234375 C 191.441406 282.96875 193.1875 284.964844 195.378906 284.742188 C 197.117188 284.5625 198.453125 283 200.171875 282.675781 C 202.761719 282.183594 205.230469 284.621094 207.824219 284.152344 C 209.367188 283.875 210.585938 282.613281 212.105469 282.222656 C 214.007812 281.726562 216.050781 282.664062 217.953125 282.183594 C 218.75 281.984375 219.46875 281.546875 220.234375 281.242188 C 221.804688 280.621094 223.570312 280.5625 225.050781 279.753906 C 226.535156 278.945312 227.582031 276.839844 226.5 275.539062 L 225.828125 274.113281 " fill-opacity="1" fill-rule="nonzero"/><path fill="#000d39" d="M 238.429688 333.015625 L 211.675781 333.015625 L 218.175781 297.832031 L 244.929688 297.832031 L 238.429688 333.015625 " fill-opacity="1" fill-rule="nonzero"/><path fill="#efefef" d="M 235.566406 328.039062 L 216.378906 328.039062 L 221.039062 302.804688 L 240.226562 302.804688 L 235.566406 328.039062 " fill-opacity="1" fill-rule="nonzero"/><path fill="#000d39" d="M 234.171875 304.121094 L 225.5625 304.121094 L 226.210938 298.765625 L 234.820312 298.765625 L 234.171875 304.121094 " fill-opacity="1" fill-rule="nonzero"/><path fill="#ff494b" d="M 205.660156 324.152344 L 221.808594 324.152344 L 221.808594 308.628906 L 203.890625 308.628906 L 205.660156 324.152344 " fill-opacity="1" fill-rule="nonzero"/><path fill="#ffc086" d="M 221.824219 308.578125 C 223.863281 308.550781 225.898438 308.523438 227.933594 308.496094 C 228.992188 308.476562 230.296875 308.617188 230.691406 309.582031 C 230.980469 310.28125 230.574219 311.109375 229.960938 311.5625 C 229.34375 312.015625 228.566406 312.179688 227.8125 312.335938 C 229.78125 312.050781 231.988281 312.410156 233.976562 312.519531 C 235.082031 312.582031 235.800781 313.855469 235.496094 314.800781 C 235.253906 315.546875 234.296875 315.75 233.503906 315.835938 C 232.242188 315.960938 230.976562 316.09375 229.710938 316.222656 C 230.769531 316.046875 231.855469 316.015625 232.925781 316.128906 C 233.613281 316.203125 234.84375 315.9375 235.359375 316.390625 C 235.875 316.84375 236.503906 318.261719 235.304688 318.855469 C 234.792969 319.109375 234.15625 319.171875 233.582031 319.222656 C 232.332031 319.339844 231.082031 319.453125 229.832031 319.566406 C 231.398438 319.441406 233.695312 319.480469 235.136719 320.085938 C 235.953125 320.429688 236.140625 321.402344 235.839844 322.21875 C 235.636719 322.769531 234.992188 323.011719 234.414062 323.140625 C 230.636719 324.003906 221.808594 324.152344 221.808594 324.152344 L 221.824219 308.578125 " fill-opacity="1" fill-rule="nonzero"/><path fill="#000d39" d="M 319.128906 343.855469 L 279.570312 343.664062 L 261.855469 372.019531 L 308.886719 372.019531 L 319.128906 343.855469 " fill-opacity="1" fill-rule="nonzero"/><path fill="#79339c" d="M 279.570312 343.664062 L 285.503906 334.601562 L 285.5 334.601562 C 278.859375 334.601562 273.472656 329.21875 273.472656 322.582031 L 273.472656 313.613281 L 289.589844 313.613281 C 289.589844 313.613281 288.925781 319.976562 292.875 318.5 C 296.167969 317.265625 294.03125 310.242188 310.800781 310.242188 L 320.59375 310.242188 C 329.390625 310.242188 335.328125 319.226562 331.867188 327.308594 L 325.175781 342.945312 C 323.503906 346.851562 319.65625 349.386719 315.40625 349.386719 L 299.332031 349.386719 L 299.332031 343.664062 L 279.570312 343.664062 " fill-opacity="1" fill-rule="nonzero"/><path fill="#006b85" d="M 261.855469 372.019531 L 252.730469 386.617188 L 303.578125 386.617188 L 308.886719 372.019531 L 261.855469 372.019531 " fill-opacity="1" fill-rule="nonzero"/><path fill="#ffc086" d="M 292.855469 334.121094 C 291.289062 334.179688 289.582031 334.339844 288.457031 335.570312 C 287.242188 336.902344 287.09375 339.046875 287.03125 340.988281 C 286.96875 343.035156 287 345.097656 287.164062 347.144531 C 287.261719 348.324219 287.230469 349.984375 287.765625 351.050781 C 288.289062 352.097656 290.179688 352.402344 290.804688 351.09375 C 291.082031 350.515625 291.464844 349.671875 291.429688 349.007812 C 291.289062 350.453125 291.992188 352.164062 293.261719 352.132812 C 294.527344 352.101562 295.46875 350.476562 295.234375 349.039062 C 295.257812 350.953125 296.316406 352.554688 297.921875 352.082031 C 298.238281 351.988281 298.550781 351.820312 298.753906 351.527344 C 299.035156 351.125 299.34375 350.566406 299.355469 350.042969 C 299.484375 344.976562 299.386719 334.132812 299.488281 334.066406 L 292.855469 334.121094 " fill-opacity="1" fill-rule="nonzero"/><path fill="#000d39" d="M 252.808594 425.71875 C 252.890625 429.894531 255.960938 432.964844 259.71875 434.359375 C 261.34375 434.960938 263.386719 435.507812 264.996094 434.550781 C 265.988281 433.960938 266.902344 432.597656 266.292969 431.441406 C 265.644531 430.207031 263.890625 430.414062 262.875 431.035156 C 261.414062 431.933594 260.933594 433.652344 260.777344 435.257812 C 260.375 439.304688 261.546875 443.804688 265.378906 445.808594 C 265.792969 446.027344 266.164062 445.394531 265.746094 445.179688 C 263.386719 443.941406 262.066406 441.65625 261.617188 439.082031 C 261.378906 437.6875 261.363281 436.183594 261.574219 434.785156 C 261.714844 433.859375 261.953125 432.917969 262.609375 432.199219 C 262.820312 432.023438 263.03125 431.84375 263.246094 431.664062 C 264.167969 431 264.984375 431.304688 265.703125 432.574219 C 265.535156 434.492188 262.644531 434.40625 261.425781 434.128906 C 260.121094 433.828125 258.816406 433.273438 257.683594 432.5625 C 255.261719 431.046875 253.597656 428.621094 253.539062 425.71875 C 253.53125 425.246094 252.796875 425.246094 252.808594 425.71875 " fill-opacity="1" fill-rule="nonzero"/><path fill="#000d39" d="M 175.152344 300.167969 C 175.308594 298.101562 177.113281 293.601562 179.886719 295.234375 C 180.550781 295.628906 181.328125 296.457031 181.21875 297.285156 C 181.144531 297.847656 180.683594 298.453125 180.042969 298.308594 C 178.398438 297.9375 179.46875 294.46875 179.925781 293.558594 C 180.78125 291.859375 182.261719 290.621094 184.070312 290.050781 C 184.515625 289.910156 184.324219 289.203125 183.875 289.347656 C 180.960938 290.261719 178.738281 292.867188 178.507812 295.957031 C 178.402344 297.398438 179.246094 300.152344 181.183594 298.730469 C 182.980469 297.410156 181.351562 295.003906 179.792969 294.355469 C 176.585938 293.019531 174.601562 297.765625 174.421875 300.167969 C 174.386719 300.636719 175.117188 300.632812 175.152344 300.167969 " fill-opacity="1" fill-rule="nonzero"/><path fill="#00a142" d="M 328.769531 302.992188 C 331.199219 301.828125 334.257812 299.300781 334.566406 296.398438 C 334.75 294.699219 333.082031 293.273438 331.53125 294.382812 C 329.566406 295.785156 331.414062 298.199219 332.820312 299.140625 C 335.082031 300.65625 338.128906 301.371094 340.425781 299.59375 C 340.917969 299.210938 340.226562 298.527344 339.734375 298.90625 C 338.242188 300.0625 336.308594 299.765625 334.695312 299.054688 C 333.730469 298.632812 329.992188 296.0625 332.289062 295.078125 C 333.1875 294.695312 333.570312 295.484375 333.539062 296.234375 C 333.507812 297.191406 332.910156 298.09375 332.355469 298.855469 C 331.300781 300.300781 329.882812 301.382812 328.277344 302.152344 C 327.710938 302.425781 328.207031 303.261719 328.769531 302.992188 " fill-opacity="1" fill-rule="nonzero"/><path fill="#00a142" d="M 263.246094 347.148438 C 261.0625 346.054688 259.851562 343.332031 260.496094 340.980469 C 260.664062 340.359375 261.277344 339.65625 261.820312 339.996094 C 262.03125 340.128906 262.132812 340.378906 262.214844 340.617188 C 262.941406 342.707031 263.246094 344.945312 263.109375 347.15625 L 263.246094 347.148438 " fill-opacity="1" fill-rule="nonzero"/><path fill="#00a142" d="M 338.648438 385.433594 C 339.230469 383.179688 341.03125 381.273438 343.25 380.566406 C 343.621094 380.445312 344.070312 380.375 344.359375 380.636719 C 344.84375 381.074219 344.367188 381.863281 343.878906 382.300781 C 342.40625 383.625 340.753906 384.746094 338.980469 385.625 L 338.648438 385.433594 " fill-opacity="1" fill-rule="nonzero"/><g clip-path="url(#9c3655882e)"><path fill="#000d39" d="M 87.769531 389.992188 C 90.210938 389.371094 92.480469 387.339844 92.816406 384.734375 C 92.96875 383.546875 92.039062 382.136719 90.703125 382.828125 C 88.964844 383.722656 90.765625 385.878906 91.640625 386.621094 C 93.785156 388.453125 96.75 388.96875 99.410156 388.113281 C 99.855469 387.96875 99.664062 387.261719 99.214844 387.40625 C 97.671875 387.902344 96.085938 387.9375 94.539062 387.425781 C 93.335938 387.03125 90.847656 385.746094 90.746094 384.246094 C 90.707031 383.664062 91.195312 383.148438 91.769531 383.527344 C 92.507812 384.007812 91.960938 385.289062 91.699219 385.878906 C 90.929688 387.625 89.410156 388.820312 87.574219 389.289062 C 87.117188 389.40625 87.3125 390.109375 87.769531 389.992188 " fill-opacity="1" fill-rule="nonzero"/></g><path fill="#00a142" d="M 104.195312 314.53125 C 102.78125 314.359375 101.367188 314.191406 99.957031 314.023438 C 99.179688 313.929688 98.378906 313.828125 97.699219 313.441406 C 97.019531 313.054688 96.480469 312.304688 96.589844 311.53125 C 97.257812 310.878906 98.367188 311.207031 99.214844 311.597656 C 100.78125 312.316406 102.308594 313.125 103.785156 314.015625 L 104.195312 314.53125 " fill-opacity="1" fill-rule="nonzero"/><path fill="#fdae72" d="M 256.871094 356.417969 C 253.71875 353.496094 250.300781 352.070312 246.492188 351.65625 C 249.460938 356.894531 251.59375 362.703125 254.351562 368.078125 C 259.152344 364.265625 261.003906 360.242188 256.871094 356.417969 " fill-opacity="1" fill-rule="nonzero"/><path fill="#fdae72" d="M 323.792969 351.398438 C 320.6875 348.964844 317.125 348.617188 313.398438 349.574219 C 313.796875 350.386719 314.175781 351.191406 314.617188 351.929688 C 315.917969 353.878906 317.542969 354.851562 318.84375 356.796875 C 321.265625 360.347656 323.367188 363.976562 325.625 367.449219 C 328.535156 361.285156 328.976562 355.460938 323.792969 351.398438 " fill-opacity="1" fill-rule="nonzero"/><path fill="#fdae72" d="M 314.617188 351.929688 C 314.175781 351.191406 313.796875 350.386719 313.398438 349.574219 C 301.535156 352.636719 288.03125 369.015625 282.503906 373.949219 C 275.242188 380.4375 265.332031 379.679688 265.332031 379.679688 C 264.476562 379.597656 263.621094 379.527344 262.773438 379.46875 C 263.046875 379.707031 263.324219 379.9375 263.609375 380.167969 C 263.324219 379.9375 263.046875 379.707031 262.773438 379.46875 C 245.019531 378.1875 228.800781 381.21875 219.277344 383.621094 C 214.046875 385.253906 210.460938 386.203125 210.460938 386.203125 C 210.460938 386.203125 213.738281 385.015625 219.277344 383.621094 C 229.5625 380.40625 246.207031 374.550781 254.351562 368.078125 C 251.59375 362.703125 249.460938 356.894531 246.492188 351.65625 C 232.566406 350.15625 213.433594 362.289062 182.78125 364.886719 C 143.75 368.195312 130.285156 394.125 130.285156 394.125 L 105.347656 448.257812 L 186.808594 448.535156 C 186.808594 448.535156 188.011719 445.84375 194.394531 435.445312 C 200.777344 425.046875 234.710938 421.738281 259.621094 418.558594 C 284.535156 415.371094 298.636719 402.207031 307.191406 391.886719 C 312.226562 385.808594 321.457031 376.277344 325.625 367.449219 C 323.367188 363.976562 321.265625 360.347656 318.84375 356.796875 C 317.542969 354.851562 315.917969 353.878906 314.617188 351.929688 " fill-opacity="1" fill-rule="nonzero"/><g clip-path="url(#71081ab60c)"><path fill="#000d39" d="M 101.566406 449.949219 L 197.421875 449.949219 L 197.421875 447.820312 C 170.09375 437.347656 144.722656 423.210938 119.320312 409.390625 L 101.566406 449.949219 " fill-opacity="1" fill-rule="nonzero"/></g><path fill="#efefef" d="M 123.5 399.847656 L 119.320312 409.390625 C 144.722656 423.210938 170.09375 437.347656 197.421875 447.820312 L 200.023438 439.792969 C 184.042969 434.972656 123.5 399.847656 123.5 399.847656 " fill-opacity="1" fill-rule="nonzero"/><path fill="#efefef" d="M 130.683594 424.882812 C 130.683594 427.199219 128.800781 429.082031 126.480469 429.082031 C 124.15625 429.082031 122.273438 427.199219 122.273438 424.882812 C 122.273438 422.5625 124.15625 420.683594 126.480469 420.683594 C 128.800781 420.683594 130.683594 422.5625 130.683594 424.882812 " fill-opacity="1" fill-rule="nonzero"/><path fill="#efefef" d="M 123.976562 439.378906 C 123.976562 441.699219 122.09375 443.578125 119.773438 443.578125 C 117.449219 443.578125 115.570312 441.699219 115.570312 439.378906 C 115.570312 437.058594 117.449219 435.179688 119.773438 435.179688 C 122.09375 435.179688 123.976562 437.058594 123.976562 439.378906 " fill-opacity="1" fill-rule="nonzero"/><path fill="#00a142" d="M 117.796875 411.546875 C 114.039062 412.164062 110.136719 411.890625 106.503906 410.761719 C 105.226562 410.363281 103.707031 409.265625 104.25 408.042969 C 104.546875 407.382812 105.347656 407.109375 106.070312 407.050781 C 107.996094 406.886719 109.851562 407.714844 111.609375 408.523438 C 113.886719 409.570312 116.164062 410.617188 118.445312 411.667969 C 116.769531 409.621094 115.636719 407.140625 115.199219 404.535156 C 115.023438 403.488281 114.972656 402.347656 115.503906 401.429688 C 116.035156 400.511719 117.34375 399.984375 118.210938 400.59375 C 118.957031 404.164062 119.082031 407.867188 118.574219 411.480469 L 117.796875 411.546875 " fill-opacity="1" fill-rule="nonzero"/><g clip-path="url(#8fa1811eb1)"><path fill="#00a142" d="M 320.695312 349.511719 C 322.785156 342.875 326.585938 336.785156 331.632812 331.992188 C 333.28125 330.429688 335.261719 328.925781 337.535156 328.945312 C 337.851562 328.949219 338.1875 328.992188 338.421875 329.203125 C 338.742188 329.492188 338.757812 329.984375 338.710938 330.410156 C 338.492188 332.429688 337.457031 334.261719 336.367188 335.96875 C 333.378906 340.640625 329.773438 344.914062 325.667969 348.644531 C 330.855469 345.6875 336.761719 344.007812 342.730469 343.785156 C 343.742188 343.746094 345.109375 344.074219 345.105469 345.085938 C 345.105469 345.601562 344.707031 346.019531 344.320312 346.359375 C 339.707031 350.425781 333.265625 351.527344 327.1875 352.46875 C 332.007812 351.925781 337.109375 351.429688 341.511719 353.460938 C 342.460938 353.902344 343.488281 354.707031 343.332031 355.738281 C 343.140625 356.960938 341.550781 357.285156 340.3125 357.300781 C 336.277344 357.347656 332.234375 357.1875 328.214844 356.824219 L 320.695312 349.511719 " fill-opacity="1" fill-rule="nonzero"/></g><path fill="#00a142" d="M 273.046875 324.53125 C 268.890625 326.15625 264.222656 325.082031 259.898438 323.988281 C 259.136719 323.796875 258.269531 323.53125 258.035156 322.71875 C 257.835938 322.050781 258.191406 321.359375 258.773438 320.980469 C 259.679688 320.386719 260.78125 320.527344 261.800781 320.726562 C 264.28125 321.207031 266.710938 321.96875 269.027344 322.992188 C 266.929688 322.679688 265.238281 321.011719 264.332031 319.101562 C 263.792969 317.96875 263.484375 316.753906 263.277344 315.515625 C 263.023438 313.972656 264.761719 312.851562 266.007812 313.792969 C 266.933594 314.488281 267.738281 315.492188 268.375 316.457031 C 270.171875 319.167969 271.742188 322.03125 273.058594 325.007812 L 273.046875 324.53125 " fill-opacity="1" fill-rule="nonzero"/><path fill="#00a142" d="M 118.265625 362.667969 C 116.453125 366.726562 112.410156 369.28125 108.597656 371.582031 C 107.921875 371.988281 107.128906 372.414062 106.402344 372.023438 C 105.800781 371.699219 105.574219 370.972656 105.71875 370.296875 C 105.949219 369.25 106.828125 368.570312 107.683594 367.984375 C 109.777344 366.566406 112.019531 365.375 114.363281 364.449219 C 112.664062 365.710938 110.3125 365.753906 108.351562 365.074219 C 107.191406 364.671875 106.132812 364.050781 105.128906 363.339844 C 103.882812 362.457031 104.335938 360.457031 105.867188 360.226562 C 107.007812 360.054688 108.265625 360.175781 109.382812 360.390625 C 112.53125 360.992188 115.617188 361.863281 118.605469 362.988281 L 118.265625 362.667969 " fill-opacity="1" fill-rule="nonzero"/><path fill="#00a142" d="M 300.292969 398.804688 C 301.777344 400.523438 303.285156 402.222656 304.816406 403.90625 C 306.523438 405.792969 308.714844 407.820312 311.226562 407.40625 C 311.433594 406.308594 310.539062 405.332031 309.6875 404.605469 C 307.113281 402.417969 304.207031 400.625 301.097656 399.304688 C 305.816406 400.046875 311.0625 400.671875 315.007812 397.980469 C 315.253906 397.8125 315.511719 397.601562 315.5625 397.308594 C 315.621094 396.941406 315.332031 396.609375 315.039062 396.382812 C 313.753906 395.382812 312.039062 395.140625 310.410156 395.101562 C 306.675781 395.019531 302.925781 395.855469 299.582031 397.515625 C 300.214844 398.628906 300.96875 399.675781 301.820312 400.628906 L 300.292969 398.804688 " fill-opacity="1" fill-rule="nonzero"/><path fill="#000d39" d="M 124.636719 392.707031 L 124.660156 392.816406 C 118.042969 394.15625 117.617188 399.816406 117.617188 399.816406 L 147.910156 399.816406 L 146.308594 392.707031 L 124.636719 392.707031 " fill-opacity="1" fill-rule="nonzero"/><path fill="#006b85" d="M 141.605469 371.84375 C 141.019531 369.238281 142.714844 366.667969 145.34375 366.1875 L 152.464844 364.882812 C 156.035156 364.226562 158.625 361.117188 158.625 357.496094 C 158.625 353.351562 155.257812 349.988281 151.109375 349.988281 L 131.253906 349.988281 C 122.894531 349.988281 116.695312 357.742188 118.542969 365.890625 L 124.636719 392.707031 L 146.308594 392.707031 L 141.605469 371.84375 " fill-opacity="1" fill-rule="nonzero"/><path fill="#000d39" d="M 141.148438 397.542969 L 141.175781 397.683594 C 134.035156 399.40625 133.578125 406.691406 133.578125 406.691406 L 158.625 406.691406 L 160.757812 402.976562 L 161.699219 406.691406 L 166.253906 406.691406 L 164.527344 397.542969 L 141.148438 397.542969 " fill-opacity="1" fill-rule="nonzero"/><path fill="#006b85" d="M 164.527344 397.542969 L 157.53125 374.648438 C 156.691406 371.898438 158.539062 369.054688 161.402344 368.707031 L 176.515625 367.050781 C 180.359375 366.347656 183.15625 362.992188 183.15625 359.085938 C 183.15625 354.613281 179.523438 350.988281 175.046875 350.988281 L 148.289062 351.460938 C 139.269531 351.460938 132.582031 359.824219 134.578125 368.609375 L 141.148438 397.542969 L 164.527344 397.542969 " fill-opacity="1" fill-rule="nonzero"/><path fill="#ffc086" d="M 131.144531 307.789062 L 130.96875 307.433594 C 130.796875 306.820312 130.605469 306.21875 130.398438 305.617188 C 130.359375 305.480469 130.339844 305.402344 130.339844 305.402344 C 130.335938 305.40625 130.328125 305.40625 130.324219 305.410156 C 129.867188 304.109375 129.332031 302.832031 128.714844 301.601562 C 128.230469 300.636719 127.605469 299.609375 126.582031 299.292969 C 125.558594 298.972656 124.203125 299.914062 124.554688 300.9375 C 124.554688 300.9375 123.347656 296.199219 121.691406 294.285156 C 121.425781 293.976562 120.589844 293.574219 120.1875 293.550781 C 119.703125 293.515625 119.285156 293.941406 119.152344 294.410156 C 119.019531 294.882812 119.105469 295.382812 119.207031 295.863281 C 119.53125 297.421875 120.410156 299.898438 120.980469 301.382812 C 120.347656 300.769531 118.851562 299.898438 118.140625 300.417969 C 117.433594 300.9375 117.058594 302.1875 117.433594 302.988281 C 116.585938 302.167969 115.71875 301.511719 114.640625 301.988281 C 113.320312 302.570312 113.304688 303.933594 113.703125 305.335938 C 114.144531 306.894531 114.585938 308.449219 115.027344 310.003906 C 115.078125 310.175781 115.128906 310.351562 115.179688 310.523438 C 115.140625 310.539062 115.097656 310.550781 115.054688 310.566406 C 115.515625 311.5625 115.917969 312.582031 116.292969 313.613281 C 121.210938 311.851562 126.335938 310.355469 131.324219 308.5625 C 131.300781 308.300781 131.242188 308.042969 131.144531 307.789062 " fill-opacity="1" fill-rule="nonzero"/><path fill="#ffb500" d="M 188.140625 335.242188 L 185.664062 323.792969 C 184.121094 316.652344 178.085938 311.613281 171.164062 311.6875 L 155.148438 311.902344 C 152.1875 311.933594 148.773438 312.1875 146.160156 314.371094 C 145.046875 314.96875 143.925781 316.238281 142.902344 317.324219 C 141.753906 318.546875 139.949219 318.929688 138.417969 318.226562 C 136.976562 317.566406 135.714844 316.265625 134.582031 315.070312 C 133.242188 313.660156 132.097656 310.898438 131.335938 308.683594 C 131.335938 308.644531 131.328125 308.601562 131.324219 308.5625 C 126.335938 310.355469 121.210938 311.851562 116.292969 313.613281 C 117.25 316.21875 118.03125 318.894531 119.097656 321.460938 C 120.582031 325.039062 122.757812 328.527344 126.117188 330.464844 C 129.117188 332.191406 132.667969 332.480469 136.167969 332.429688 L 134.5 351.632812 L 175.789062 351.632812 C 183.925781 351.632812 189.953125 343.636719 188.140625 335.242188 " fill-opacity="1" fill-rule="nonzero"/><path fill="#ffc086" d="M 168.089844 351.796875 C 167.257812 349.238281 166.152344 346.765625 164.804688 344.433594 C 163.269531 341.777344 161.1875 339.152344 158.230469 338.335938 C 156.03125 337.726562 153.636719 338.234375 151.605469 339.273438 C 149.574219 340.3125 147.839844 341.84375 146.164062 343.386719 C 145.3125 344.171875 144.425781 345.03125 144.382812 346.273438 C 144.363281 346.847656 144.613281 347.421875 145.09375 347.738281 C 145.910156 348.273438 146.785156 347.820312 147.53125 347.386719 C 149.484375 346.253906 151.4375 345.121094 153.394531 343.988281 C 151.019531 345.21875 148.777344 346.699219 146.71875 348.402344 C 146.480469 348.601562 146.214844 348.871094 146.292969 349.171875 C 146.351562 349.402344 146.585938 349.542969 146.789062 349.644531 C 147.941406 350.226562 149.28125 350.316406 150.503906 349.917969 C 153 349.101562 155.347656 347.847656 157.417969 346.242188 C 155.765625 347.351562 154.175781 348.550781 152.65625 349.839844 C 152 350.394531 152.304688 351.476562 153.15625 351.59375 C 154.710938 351.804688 156.398438 351.488281 157.996094 351.3125 C 161.492188 350.9375 165.019531 351.339844 168.511719 351.738281 L 168.089844 351.796875 " fill-opacity="1" fill-rule="nonzero"/><path fill="#000d39" d="M 150.300781 349.082031 L 140.207031 327.800781 L 101.617188 327.800781 L 113.132812 352.078125 L 113.203125 352.078125 L 113.203125 352.132812 L 165.539062 352.132812 L 165.539062 349.082031 L 150.300781 349.082031 " fill-opacity="1" fill-rule="nonzero"/><path fill="#00a142" d="M 178.476562 366.613281 C 177.453125 362.628906 177.113281 358.46875 177.46875 354.371094 C 177.742188 351.230469 178.421875 348.136719 179.207031 345.078125 C 179.738281 343.027344 180.34375 340.929688 181.65625 339.265625 C 182.214844 338.5625 182.925781 337.953125 183.71875 337.527344 C 185.371094 336.628906 187.390625 337.777344 187.453125 339.660156 C 187.597656 344.0625 186.652344 348.488281 185.144531 352.644531 C 183.332031 357.644531 180.726562 362.3125 178.128906 366.957031 C 182.023438 359.984375 187.574219 353.945312 194.191406 349.46875 C 195.375 348.671875 196.6875 347.890625 198.152344 348.15625 C 199.011719 348.308594 199.761719 348.886719 199.972656 349.734375 C 200.230469 350.78125 199.523438 351.589844 198.847656 352.285156 C 194.734375 356.550781 190.195312 360.414062 185.332031 363.796875 C 188.238281 362.253906 191.378906 361.15625 194.613281 360.554688 C 195.296875 360.425781 196.113281 360.359375 196.550781 360.953125 C 196.90625 361.441406 196.789062 362.109375 196.390625 362.566406 C 195.777344 363.265625 194.832031 363.386719 193.949219 363.488281 C 188.636719 364.109375 183.367188 365.050781 178.167969 366.304688 C 177.949219 366.359375 177.664062 366.382812 177.554688 366.1875 C 177.449219 365.988281 177.910156 365.84375 177.847656 366.058594 L 178.476562 366.613281 " fill-opacity="1" fill-rule="nonzero"/><path fill="#000d39" d="M 155.386719 300.59375 C 154.140625 300.257812 152.628906 299.585938 152.683594 298.347656 C 152.71875 297.421875 153.695312 296.710938 153.71875 295.785156 C 153.738281 294.804688 152.738281 294.136719 151.90625 293.566406 C 151.078125 292.992188 150.234375 292.015625 150.691406 291.136719 C 151.097656 290.355469 152.335938 290.179688 152.632812 289.355469 C 152.863281 288.710938 152.390625 288.03125 152.402344 287.347656 C 152.414062 286.476562 153.371094 285.730469 154.265625 285.90625 C 155.296875 286.105469 156.261719 287.257812 157.152344 286.726562 C 157.574219 286.46875 157.699219 285.933594 158.019531 285.566406 C 158.394531 285.132812 159.074219 284.96875 159.621094 285.171875 C 160.167969 285.375 160.550781 285.933594 160.523438 286.496094 C 160.5 287.050781 160.21875 287.792969 160.746094 288.023438 C 160.90625 288.097656 161.09375 288.078125 161.269531 288.054688 C 161.933594 287.980469 162.613281 287.90625 163.257812 288.074219 C 163.902344 288.238281 164.511719 288.699219 164.628906 289.328125 C 164.855469 290.507812 163.363281 291.707031 163.96875 292.753906 C 164.464844 293.605469 166.058594 293.636719 166.207031 294.601562 C 166.363281 295.609375 164.707031 296.078125 164.550781 297.085938 C 164.445312 297.765625 165.089844 298.402344 164.984375 299.089844 C 164.871094 299.792969 164.039062 300.160156 163.300781 300.261719 C 162.5625 300.363281 161.753906 300.351562 161.164062 300.789062 C 160.53125 301.257812 160.367188 302.097656 159.929688 302.738281 C 159.492188 303.382812 158.363281 303.753906 157.964844 303.085938 C 157.730469 302.695312 157.929688 302.183594 157.785156 301.75 C 157.496094 300.882812 156.214844 300.917969 155.292969 301.128906 L 155.386719 300.59375 " fill-opacity="1" fill-rule="nonzero"/><path fill="#000d39" d="M 313.421875 298.175781 C 315.054688 294.546875 317.105469 291.105469 319.511719 287.9375 C 320.753906 286.308594 322.128906 284.71875 323.910156 283.707031 C 324.875 283.160156 325.984375 282.792969 327.085938 282.910156 C 328.1875 283.027344 329.273438 283.707031 329.648438 284.75 C 329.992188 285.683594 329.71875 286.757812 329.171875 287.585938 C 328.621094 288.421875 327.824219 289.050781 327.027344 289.652344 C 322.570312 293.007812 317.671875 295.777344 312.496094 297.859375 L 313.421875 298.175781 " fill-opacity="1" fill-rule="nonzero"/><path fill="#000d39" d="M 314.992188 296.6875 C 316.675781 299.121094 315.820312 302.628906 313.078125 304.519531 C 310.335938 306.410156 306.75 305.96875 305.066406 303.53125 C 303.382812 301.097656 304.238281 297.585938 306.980469 295.699219 C 309.722656 293.804688 313.308594 294.246094 314.992188 296.6875 " fill-opacity="1" fill-rule="nonzero"/><path fill="#ffc086" d="M 168.039062 313.011719 L 162.558594 302.363281 C 162.710938 302.40625 162.867188 302.441406 163.035156 302.441406 C 163.976562 302.441406 164.734375 301.679688 164.734375 300.742188 C 164.734375 299.804688 163.976562 299.046875 163.035156 299.046875 C 162.292969 299.046875 161.667969 299.523438 161.4375 300.1875 L 160.148438 297.679688 C 159.746094 296.902344 158.84375 296.519531 158.007812 296.789062 C 155.695312 297.519531 151.558594 299.734375 151.785156 306.160156 C 151.808594 306.769531 152.382812 307.214844 152.976562 307.074219 L 156.015625 306.351562 L 156.980469 316.101562 C 157.117188 317.472656 158.09375 318.625 159.433594 318.957031 C 161.9375 319.582031 165.914062 319.820312 168.019531 316.050781 C 168.542969 315.113281 168.53125 313.96875 168.039062 313.011719 " fill-opacity="1" fill-rule="nonzero"/><path fill="#ffc086" d="M 319.027344 309.390625 L 310.949219 300.542969 C 311.105469 300.546875 311.265625 300.535156 311.429688 300.492188 C 312.332031 300.246094 312.867188 299.316406 312.621094 298.410156 C 312.378906 297.507812 311.445312 296.972656 310.539062 297.21875 C 309.824219 297.410156 309.347656 298.035156 309.296875 298.734375 L 307.398438 296.652344 C 306.804688 296.003906 305.832031 295.875 305.097656 296.347656 C 303.058594 297.660156 299.640625 300.878906 301.542969 307.015625 C 301.722656 307.605469 302.394531 307.882812 302.933594 307.589844 L 305.675781 306.101562 L 309.15625 315.261719 C 309.644531 316.550781 310.890625 317.40625 312.269531 317.378906 C 314.851562 317.324219 318.75 316.519531 319.800781 312.328125 C 320.0625 311.285156 319.75 310.1875 319.027344 309.390625 " fill-opacity="1" fill-rule="nonzero"/><path fill="#ffc086" d="M 218.226562 288.996094 L 222.597656 277.84375 C 222.449219 277.90625 222.292969 277.953125 222.128906 277.96875 C 221.195312 278.0625 220.363281 277.386719 220.265625 276.453125 C 220.171875 275.523438 220.851562 274.6875 221.78125 274.59375 C 222.523438 274.515625 223.191406 274.929688 223.488281 275.566406 L 224.515625 272.945312 C 224.835938 272.128906 225.695312 271.65625 226.554688 271.835938 C 228.929688 272.332031 233.273438 274.109375 233.699219 280.523438 C 233.738281 281.136719 233.214844 281.636719 232.605469 281.554688 L 229.507812 281.148438 L 229.542969 290.945312 C 229.550781 292.324219 228.695312 293.566406 227.394531 294.035156 C 224.96875 294.910156 221.039062 295.554688 218.554688 292.019531 C 217.941406 291.136719 217.835938 289.996094 218.226562 288.996094 " fill-opacity="1" fill-rule="nonzero"/><path fill="#efefef" d="M 293.8125 310.511719 C 291.742188 310.511719 290.0625 308.835938 290.0625 306.765625 L 290.0625 301.28125 L 297.558594 301.28125 L 297.558594 306.765625 C 297.558594 308.835938 295.882812 310.511719 293.8125 310.511719 " fill-opacity="1" fill-rule="nonzero"/><path fill="#000d39" d="M 293.257812 297.921875 C 292.433594 297.015625 291.882812 295.917969 291.90625 294.664062 C 291.917969 293.929688 292.390625 293.183594 292.351562 292.464844 C 292.277344 291.226562 290.652344 290.445312 290.128906 289.433594 C 289.226562 287.675781 291.3125 287.261719 291.894531 285.960938 C 292.21875 285.234375 292.300781 283.796875 292.984375 283.320312 C 294.242188 282.441406 295.011719 284.507812 294.875 285.414062 C 294.769531 286.09375 294.445312 286.746094 294.175781 287.367188 C 293.84375 288.132812 293.371094 288.96875 293.359375 289.824219 C 293.351562 290.257812 293.457031 290.601562 293.660156 290.984375 C 294.261719 292.121094 294.71875 292.808594 293.964844 294.082031 C 293.148438 295.453125 292.730469 296.457031 292.839844 298.09375 C 292.859375 298.402344 293.347656 298.40625 293.328125 298.09375 C 293.21875 296.488281 293.753906 295.449219 294.515625 294.128906 C 294.847656 293.546875 295.121094 292.90625 294.949219 292.226562 C 294.65625 291.082031 293.605469 290.523438 293.972656 289.167969 C 294.1875 288.371094 294.609375 287.640625 294.914062 286.878906 C 295.335938 285.832031 295.726562 284.574219 295.011719 283.558594 C 294.542969 282.898438 293.617188 282.3125 292.84375 282.796875 C 292.054688 283.292969 291.871094 284.617188 291.582031 285.410156 C 291.089844 286.742188 289.328125 286.835938 289.347656 288.453125 C 289.355469 289.074219 289.648438 289.617188 290 290.105469 C 290.320312 290.546875 290.75 290.890625 291.089844 291.3125 C 291.898438 292.320312 291.761719 292.6875 291.539062 293.675781 C 291.15625 295.390625 291.757812 296.996094 292.910156 298.265625 C 293.121094 298.496094 293.464844 298.152344 293.257812 297.921875 " fill-opacity="1" fill-rule="nonzero"/><path fill="#ffc086" d="M 273.246094 313.847656 C 273.164062 310.894531 273.195312 307.9375 273.355469 304.988281 C 273.382812 304.441406 273.421875 303.308594 273.664062 302.804688 C 274.398438 301.304688 276.585938 301.164062 278.457031 300.996094 C 281.816406 300.691406 285.199219 300.851562 288.578125 300.902344 C 289.390625 300.914062 290.222656 300.9375 290.964844 301.222656 C 291.707031 301.507812 292.34375 302.109375 292.355469 302.8125 C 292.378906 304.082031 290.613281 304.707031 289.179688 304.984375 C 288.304688 305.15625 287.425781 305.328125 286.550781 305.5 C 288.398438 305.28125 290.417969 305.097656 292.003906 305.9375 C 292.710938 306.316406 293.320312 307.015625 293.089844 307.707031 C 292.851562 308.414062 291.902344 308.707031 291.078125 308.898438 C 290 309.144531 288.925781 309.394531 287.851562 309.644531 C 289.753906 309.53125 291.277344 309.21875 292.574219 310.429688 C 292.796875 310.636719 292.984375 310.878906 293.042969 311.152344 C 293.128906 311.546875 292.9375 311.949219 292.648438 312.265625 C 291.652344 313.355469 290.472656 313.730469 288.867188 313.726562 C 283.679688 313.71875 278.492188 313.707031 273.304688 313.695312 L 273.246094 313.847656 " fill-opacity="1" fill-rule="nonzero"/><path fill="#efefef" d="M 125.726562 339.046875 C 125.726562 339.984375 124.964844 340.746094 124.027344 340.746094 C 123.085938 340.746094 122.324219 339.984375 122.324219 339.046875 C 122.324219 338.109375 123.085938 337.347656 124.027344 337.347656 C 124.964844 337.347656 125.726562 338.109375 125.726562 339.046875 " fill-opacity="1" fill-rule="nonzero"/><path fill="#000d39" d="M 223.839844 361.65625 C 224.945312 364.199219 226.117188 366.710938 227.355469 369.191406 C 227.566406 369.609375 228.199219 369.242188 227.988281 368.824219 C 226.75 366.339844 225.578125 363.832031 224.472656 361.289062 C 224.285156 360.855469 223.65625 361.230469 223.839844 361.65625 " fill-opacity="1" fill-rule="nonzero"/><path fill="#000d39" d="M 227.609375 359.953125 C 229.265625 362.824219 230.925781 365.699219 232.585938 368.570312 C 232.820312 368.976562 233.449219 368.609375 233.214844 368.203125 C 231.558594 365.328125 229.898438 362.457031 228.242188 359.582031 C 228.007812 359.175781 227.375 359.542969 227.609375 359.953125 " fill-opacity="1" fill-rule="nonzero"/><path fill="#000d39" d="M 284.53125 395.515625 C 286.761719 399.046875 289.164062 402.457031 291.722656 405.757812 C 292.011719 406.132812 292.523438 405.609375 292.242188 405.242188 C 289.71875 401.992188 287.359375 398.621094 285.160156 395.144531 C 284.910156 394.75 284.277344 395.117188 284.53125 395.515625 " fill-opacity="1" fill-rule="nonzero"/><path fill="#000d39" d="M 289.425781 392.699219 C 291.609375 395.925781 293.792969 399.148438 295.976562 402.371094 C 296.238281 402.757812 296.871094 402.394531 296.609375 402.003906 C 294.425781 398.78125 292.242188 395.554688 290.058594 392.332031 C 289.796875 391.945312 289.160156 392.3125 289.425781 392.699219 " fill-opacity="1" fill-rule="nonzero"/><path fill="#000d39" d="M 313.433594 349.878906 C 317.195312 356.277344 321.292969 362.460938 325.453125 368.605469 C 325.714844 368.992188 326.347656 368.628906 326.082031 368.238281 C 321.921875 362.09375 317.828125 355.90625 314.066406 349.507812 C 313.828125 349.105469 313.195312 349.472656 313.433594 349.878906 " fill-opacity="1" fill-rule="nonzero"/><path fill="#000d39" d="M 245.886719 352.644531 C 248.578125 357.765625 251.273438 362.882812 253.96875 368.003906 C 254.1875 368.421875 254.816406 368.050781 254.597656 367.636719 C 251.90625 362.515625 249.210938 357.394531 246.515625 352.277344 C 246.296875 351.859375 245.667969 352.226562 245.886719 352.644531 " fill-opacity="1" fill-rule="nonzero"/><path fill="#000d39" d="M 224.953125 380.730469 C 217.203125 381.648438 209.726562 383.886719 202.753906 387.382812 C 202.191406 387.664062 202.6875 388.503906 203.246094 388.222656 C 210.054688 384.808594 217.382812 382.601562 224.953125 381.703125 C 225.566406 381.628906 225.574219 380.65625 224.953125 380.730469 " fill-opacity="1" fill-rule="nonzero"/><path fill="#000d39" d="M 299.667969 334.410156 C 302.78125 334.804688 306.421875 335.171875 309.210938 333.394531 C 312.226562 331.46875 313.207031 327.105469 314.472656 323.996094 C 314.652344 323.5625 313.945312 323.375 313.769531 323.804688 C 312.527344 326.855469 311.570312 331.296875 308.460938 332.992188 C 305.820312 334.421875 302.523438 334.042969 299.667969 333.679688 C 299.203125 333.617188 299.207031 334.351562 299.667969 334.410156 " fill-opacity="1" fill-rule="nonzero"/><path fill="#000d39" d="M 285.050781 334.789062 C 287.882812 329.53125 290.523438 324.078125 294.128906 319.296875 C 294.410156 318.921875 293.777344 318.554688 293.496094 318.929688 C 289.890625 323.710938 287.25 329.164062 284.417969 334.417969 C 284.191406 334.832031 284.824219 335.203125 285.050781 334.789062 " fill-opacity="1" fill-rule="nonzero"/><path fill="#000d39" d="M 159.246094 339.046875 C 161.878906 338.988281 164.511719 338.914062 167.140625 338.777344 C 168.554688 338.703125 170 338.554688 170.664062 337.121094 C 171.332031 335.679688 170.828125 333.933594 170.449219 332.488281 C 169.773438 329.925781 169.078125 327.367188 168.394531 324.804688 C 168.273438 324.351562 167.566406 324.546875 167.6875 325 C 168.160156 326.773438 168.636719 328.546875 169.109375 330.320312 C 169.542969 331.9375 170.246094 333.691406 170.242188 335.386719 C 170.242188 336.898438 169.511719 337.683594 167.996094 338 C 167.132812 338.175781 166.125 338.09375 165.246094 338.132812 C 163.246094 338.210938 161.246094 338.273438 159.246094 338.316406 C 158.777344 338.328125 158.777344 339.058594 159.246094 339.046875 " fill-opacity="1" fill-rule="nonzero"/><path fill="#000d39" d="M 147.390625 341.519531 C 146.921875 335.554688 146.449219 329.589844 145.980469 323.625 C 145.941406 323.160156 145.210938 323.15625 145.25 323.625 C 145.71875 329.589844 146.191406 335.554688 146.660156 341.519531 C 146.699219 341.984375 147.429688 341.988281 147.390625 341.519531 " fill-opacity="1" fill-rule="nonzero"/><path fill="#000d39" d="M 148.109375 346.371094 C 150.460938 345.054688 152.890625 343.90625 155.402344 342.917969 C 155.832031 342.75 155.644531 342.042969 155.207031 342.214844 C 152.636719 343.222656 150.148438 344.394531 147.738281 345.742188 C 147.328125 345.96875 147.695312 346.601562 148.109375 346.371094 " fill-opacity="1" fill-rule="nonzero"/><path fill="#000d39" d="M 116.539062 303.042969 C 117.113281 304.457031 117.703125 305.867188 118.265625 307.285156 C 118.53125 307.964844 118.90625 308.734375 118.910156 309.476562 C 118.917969 311.816406 116.269531 311.261719 115.898438 309.433594 C 115.804688 308.976562 115.101562 309.167969 115.195312 309.628906 C 115.402344 310.65625 116.023438 311.519531 117.074219 311.808594 C 117.8125 312.011719 119.046875 311.871094 119.496094 311.148438 C 120 310.332031 119.589844 308.832031 119.320312 307.996094 C 118.75 306.25 117.9375 304.550781 117.242188 302.851562 C 117.066406 302.417969 116.363281 302.609375 116.539062 303.042969 " fill-opacity="1" fill-rule="nonzero"/><path fill="#000d39" d="M 120.421875 302.007812 C 120.894531 303.425781 121.363281 304.839844 121.835938 306.257812 C 122.007812 306.773438 122.488281 307.605469 122.449219 308.140625 C 122.273438 310.589844 120.234375 309.167969 119.367188 308.511719 C 118.992188 308.226562 118.628906 308.859375 119 309.140625 C 120.078125 309.957031 122.363281 311.066406 123.128906 309.179688 C 123.492188 308.273438 122.914062 307.183594 122.636719 306.34375 C 122.132812 304.835938 121.628906 303.324219 121.125 301.8125 C 120.976562 301.371094 120.273438 301.5625 120.421875 302.007812 " fill-opacity="1" fill-rule="nonzero"/><path fill="#000d39" d="M 124.335938 300.328125 C 123.09375 301.488281 121.261719 303.859375 121.769531 305.722656 C 122.265625 307.546875 124.6875 306.714844 125.617188 305.828125 C 125.445312 305.652344 125.273438 305.480469 125.101562 305.308594 C 124.375 306.066406 123.773438 306.886719 123.351562 307.855469 C 123.148438 308.324219 122.988281 308.808594 122.875 309.308594 C 122.800781 309.644531 122.800781 310.808594 122.59375 310.988281 C 122.765625 310.988281 122.9375 310.988281 123.109375 310.988281 C 123.128906 311.046875 123.152344 311.105469 123.167969 311.164062 C 123.019531 311.25 122.871094 311.332031 122.71875 311.417969 C 122.738281 311.425781 122.761719 311.433594 122.78125 311.4375 C 123.230469 311.589844 123.421875 310.882812 122.976562 310.734375 C 122.957031 310.726562 122.933594 310.722656 122.914062 310.714844 C 122.71875 310.648438 122.523438 310.789062 122.464844 310.96875 C 122.453125 311.007812 122.441406 311.042969 122.425781 311.082031 C 122.390625 311.199219 122.429688 311.351562 122.523438 311.4375 C 122.546875 311.460938 122.570312 311.480469 122.59375 311.503906 C 122.742188 311.648438 122.957031 311.636719 123.109375 311.503906 C 123.617188 311.066406 123.449219 310.074219 123.578125 309.503906 C 123.894531 308.085938 124.617188 306.867188 125.617188 305.828125 C 125.945312 305.484375 125.441406 304.984375 125.101562 305.308594 C 124.3125 306.066406 122.429688 306.414062 122.578125 304.523438 C 122.613281 304.082031 122.976562 303.359375 123.140625 303.039062 C 123.570312 302.199219 124.164062 301.484375 124.855469 300.847656 C 125.199219 300.523438 124.679688 300.007812 124.335938 300.328125 " fill-opacity="1" fill-rule="nonzero"/><path fill="#000d39" d="M 124.878906 305.71875 C 124.382812 304.722656 123.96875 303.699219 123.625 302.640625 C 123.484375 302.195312 122.777344 302.386719 122.921875 302.835938 C 123.28125 303.953125 123.722656 305.035156 124.25 306.085938 C 124.457031 306.507812 125.089844 306.136719 124.878906 305.71875 " fill-opacity="1" fill-rule="nonzero"/><path fill="#000d39" d="M 116.007812 309.738281 C 116.925781 309.347656 117.847656 308.953125 118.769531 308.5625 C 119.515625 308.246094 121.425781 307.105469 122.210938 307.359375 C 122.660156 307.507812 122.851562 306.800781 122.40625 306.65625 C 121.519531 306.367188 120.574219 307.007812 119.78125 307.34375 C 118.398438 307.933594 117.019531 308.519531 115.636719 309.109375 C 115.207031 309.289062 115.578125 309.921875 116.007812 309.738281 " fill-opacity="1" fill-rule="nonzero"/><path fill="#000d39" d="M 119.722656 296.160156 C 120.589844 295.886719 121.457031 295.609375 122.324219 295.332031 C 122.769531 295.191406 122.578125 294.488281 122.128906 294.628906 C 121.261719 294.90625 120.394531 295.179688 119.527344 295.457031 C 119.082031 295.597656 119.273438 296.304688 119.722656 296.160156 " fill-opacity="1" fill-rule="nonzero"/><path fill="#000d39" d="M 150.878906 350.550781 C 153.125 349.234375 155.492188 348.25 158.011719 347.582031 C 158.464844 347.460938 158.273438 346.757812 157.816406 346.878906 C 155.238281 347.558594 152.808594 348.570312 150.507812 349.917969 C 150.105469 350.15625 150.46875 350.785156 150.878906 350.550781 " fill-opacity="1" fill-rule="nonzero"/><path fill="#000d39" d="M 155.726562 300.15625 C 156.53125 299.90625 157.347656 300.320312 157.667969 301.082031 C 157.851562 301.515625 158.484375 301.140625 158.300781 300.714844 C 157.855469 299.660156 156.621094 299.117188 155.535156 299.449219 C 155.085938 299.585938 155.277344 300.292969 155.726562 300.15625 " fill-opacity="1" fill-rule="nonzero"/><path fill="#000d39" d="M 153.109375 300.277344 C 152.390625 300.703125 151.742188 301.230469 151.175781 301.851562 C 151.015625 302.027344 151.039062 302.296875 151.25 302.425781 C 151.648438 302.664062 152.074219 302.828125 152.535156 302.90625 C 152.996094 302.988281 153.191406 302.28125 152.726562 302.203125 C 152.328125 302.132812 151.96875 302.003906 151.617188 301.792969 C 151.644531 301.984375 151.667969 302.175781 151.691406 302.367188 C 152.21875 301.789062 152.8125 301.304688 153.480469 300.90625 C 153.882812 300.667969 153.519531 300.035156 153.109375 300.277344 " fill-opacity="1" fill-rule="nonzero"/><path fill="#000d39" d="M 153.789062 305.191406 C 154.355469 305.617188 155.191406 305.277344 155.410156 304.644531 C 155.566406 304.199219 154.859375 304.007812 154.707031 304.449219 C 154.625 304.679688 154.320312 304.683594 154.15625 304.5625 C 154 304.441406 153.746094 304.535156 153.65625 304.691406 C 153.546875 304.878906 153.628906 305.070312 153.789062 305.191406 " fill-opacity="1" fill-rule="nonzero"/><path fill="#000d39" d="M 162.484375 301.648438 C 162.828125 301.269531 163.167969 300.894531 163.507812 300.515625 C 163.820312 300.167969 163.308594 299.648438 162.992188 299.996094 C 162.648438 300.378906 162.308594 300.757812 161.96875 301.132812 C 161.65625 301.480469 162.171875 302 162.484375 301.648438 " fill-opacity="1" fill-rule="nonzero"/><path fill="#000d39" d="M 140.835938 397.613281 C 138.40625 388.160156 136.304688 378.628906 134.558594 369.023438 C 134.140625 366.726562 133.453125 364.257812 133.660156 361.90625 C 133.859375 359.613281 135.089844 357.527344 136.753906 355.976562 C 140.164062 352.792969 145.003906 352.171875 149.476562 352.226562 C 149.945312 352.234375 149.945312 351.503906 149.476562 351.496094 C 145.121094 351.445312 140.480469 352.019531 136.964844 354.828125 C 133.773438 357.382812 132.507812 360.921875 133.101562 364.925781 C 134.75 375.984375 137.351562 386.988281 140.128906 397.808594 C 140.246094 398.261719 140.953125 398.070312 140.835938 397.613281 " fill-opacity="1" fill-rule="nonzero"/><path fill="#000d39" d="M 227.453125 275.980469 C 227.691406 275.285156 228.46875 274.910156 229.167969 275.113281 C 229.621094 275.246094 229.816406 274.542969 229.363281 274.410156 C 228.269531 274.089844 227.113281 274.71875 226.746094 275.785156 C 226.59375 276.234375 227.300781 276.425781 227.453125 275.980469 " fill-opacity="1" fill-rule="nonzero"/><path fill="#000d39" d="M 221.21875 276.390625 C 221.738281 276.507812 222.203125 276.707031 222.640625 277.007812 C 223.03125 277.269531 223.398438 276.636719 223.007812 276.375 C 222.523438 276.046875 221.984375 275.816406 221.414062 275.6875 C 220.953125 275.585938 220.757812 276.292969 221.21875 276.390625 " fill-opacity="1" fill-rule="nonzero"/><path fill="#000d39" d="M 231.253906 275.367188 C 231.992188 275.746094 232.699219 276.175781 233.382812 276.648438 C 233.339844 276.484375 233.296875 276.316406 233.253906 276.152344 C 233.066406 276.515625 232.800781 276.761719 232.425781 276.921875 C 231.992188 277.105469 232.363281 277.734375 232.792969 277.550781 C 233.273438 277.347656 233.648438 276.984375 233.882812 276.519531 C 233.976562 276.332031 233.921875 276.140625 233.753906 276.019531 C 233.070312 275.542969 232.359375 275.117188 231.621094 274.738281 C 231.203125 274.523438 230.832031 275.152344 231.253906 275.367188 " fill-opacity="1" fill-rule="nonzero"/><path fill="#000d39" d="M 229.117188 279.390625 C 229.457031 280.039062 230.351562 280.273438 230.957031 279.859375 C 231.34375 279.597656 230.980469 278.964844 230.589844 279.230469 C 230.300781 279.429688 229.914062 279.339844 229.75 279.023438 C 229.53125 278.609375 228.902344 278.976562 229.117188 279.390625 " fill-opacity="1" fill-rule="nonzero"/><path fill="#000d39" d="M 233.257812 315.46875 C 231.433594 315.46875 229.605469 315.46875 227.78125 315.46875 C 227.3125 315.46875 227.3125 316.199219 227.78125 316.199219 C 229.605469 316.199219 231.433594 316.199219 233.257812 316.199219 C 233.726562 316.199219 233.726562 315.46875 233.257812 315.46875 " fill-opacity="1" fill-rule="nonzero"/><path fill="#000d39" d="M 233.425781 319.113281 C 231.597656 319.113281 229.773438 319.113281 227.949219 319.113281 C 227.476562 319.113281 227.476562 319.84375 227.949219 319.84375 C 229.773438 319.84375 231.597656 319.84375 233.425781 319.84375 C 233.894531 319.84375 233.894531 319.113281 233.425781 319.113281 " fill-opacity="1" fill-rule="nonzero"/><path fill="#000d39" d="M 233.722656 312.683594 C 233.722656 316.21875 233.722656 319.753906 233.722656 323.292969 C 233.722656 323.761719 234.453125 323.761719 234.453125 323.292969 C 234.453125 319.753906 234.453125 316.21875 234.453125 312.683594 C 234.453125 312.214844 233.722656 312.210938 233.722656 312.683594 " fill-opacity="1" fill-rule="nonzero"/><path fill="#000d39" d="M 228.910156 309.039062 C 228.910156 309.867188 228.910156 310.695312 228.910156 311.523438 C 228.910156 311.992188 229.640625 311.996094 229.640625 311.523438 C 229.640625 310.695312 229.640625 309.867188 229.640625 309.039062 C 229.640625 308.570312 228.910156 308.566406 228.910156 309.039062 " fill-opacity="1" fill-rule="nonzero"/><path fill="#000d39" d="M 238.367188 325.589844 C 238.367188 328.089844 240.917969 328.960938 242.964844 329.332031 C 243.425781 329.414062 243.621094 328.710938 243.160156 328.625 C 241.46875 328.320312 239.097656 327.722656 239.097656 325.589844 C 239.097656 325.121094 238.367188 325.121094 238.367188 325.589844 " fill-opacity="1" fill-rule="nonzero"/><path fill="#000d39" d="M 209.203125 308.40625 C 212.738281 308.40625 216.28125 308.40625 219.820312 308.40625 C 220.289062 308.40625 220.289062 307.679688 219.820312 307.679688 C 216.28125 307.679688 212.738281 307.679688 209.203125 307.679688 C 208.730469 307.679688 208.730469 308.40625 209.203125 308.40625 " fill-opacity="1" fill-rule="nonzero"/><path fill="#000d39" d="M 243.261719 268.03125 C 241.644531 268.644531 239.957031 270.761719 241.867188 272.15625 C 242.890625 272.902344 244.53125 273.125 245.742188 273.363281 C 247.574219 273.71875 249.429688 273.835938 251.296875 273.773438 C 251.175781 273.648438 251.050781 273.53125 250.933594 273.40625 C 250.953125 275.246094 252.328125 276.628906 254.167969 276.667969 C 254.636719 276.675781 254.636719 275.945312 254.167969 275.9375 C 252.746094 275.90625 251.679688 274.816406 251.664062 273.40625 C 251.660156 273.214844 251.496094 273.035156 251.296875 273.042969 C 249.492188 273.105469 247.710938 273.003906 245.933594 272.65625 C 245.183594 272.511719 244.269531 272.390625 243.570312 272.066406 C 242.542969 271.886719 242.007812 271.136719 241.96875 269.816406 C 242.34375 269.277344 242.839844 268.914062 243.457031 268.738281 C 243.894531 268.570312 243.703125 267.867188 243.261719 268.03125 " fill-opacity="1" fill-rule="nonzero"/><path fill="#000d39" d="M 239.429688 272.242188 C 239.429688 270.972656 239.429688 269.703125 239.429688 268.433594 C 239.429688 267.960938 238.699219 267.960938 238.699219 268.433594 C 238.699219 269.703125 238.699219 270.972656 238.699219 272.242188 C 238.699219 272.714844 239.429688 272.714844 239.429688 272.242188 " fill-opacity="1" fill-rule="nonzero"/><path fill="#000d39" d="M 244.269531 272.238281 C 244.105469 270.917969 244.039062 269.597656 244.074219 268.265625 C 244.085938 267.796875 243.355469 267.796875 243.34375 268.265625 C 243.308594 269.597656 243.375 270.917969 243.539062 272.238281 C 243.597656 272.699219 244.328125 272.707031 244.269531 272.238281 " fill-opacity="1" fill-rule="nonzero"/><path fill="#000d39" d="M 240.066406 273.660156 C 241.773438 273.441406 243.484375 273.285156 245.207031 273.199219 C 245.675781 273.175781 245.675781 272.445312 245.207031 272.46875 C 243.484375 272.554688 241.773438 272.710938 240.066406 272.929688 C 239.605469 272.988281 239.601562 273.71875 240.066406 273.660156 " fill-opacity="1" fill-rule="nonzero"/><path fill="#000d39" d="M 280.871094 305.589844 C 283.914062 305.589844 286.953125 305.589844 289.996094 305.589844 C 290.464844 305.589844 290.464844 304.859375 289.996094 304.859375 C 286.953125 304.859375 283.914062 304.859375 280.871094 304.859375 C 280.402344 304.859375 280.402344 305.589844 280.871094 305.589844 " fill-opacity="1" fill-rule="nonzero"/><path fill="#000d39" d="M 280.871094 310.328125 C 283.914062 310.328125 286.953125 310.328125 289.996094 310.328125 C 290.464844 310.328125 290.464844 309.597656 289.996094 309.597656 C 286.953125 309.597656 283.914062 309.597656 280.871094 309.597656 C 280.402344 309.597656 280.402344 310.328125 280.871094 310.328125 " fill-opacity="1" fill-rule="nonzero"/><path fill="#000d39" d="M 290.128906 301.25 C 290.128906 305.445312 290.128906 309.644531 290.128906 313.84375 C 290.128906 314.316406 290.859375 314.316406 290.859375 313.84375 C 290.859375 309.644531 290.859375 305.445312 290.859375 301.25 C 290.859375 300.777344 290.128906 300.777344 290.128906 301.25 " fill-opacity="1" fill-rule="nonzero"/><path fill="#000d39" d="M 304.578125 299.628906 C 305.339844 299.234375 306.328125 299.421875 306.859375 300.109375 C 307.144531 300.476562 307.777344 300.113281 307.492188 299.742188 C 306.707031 298.726562 305.355469 298.398438 304.207031 299 C 303.789062 299.214844 304.160156 299.847656 304.578125 299.628906 " fill-opacity="1" fill-rule="nonzero"/><path fill="#000d39" d="M 301.726562 300.097656 C 301.097656 300.613281 300.472656 301.128906 299.84375 301.644531 C 299.699219 301.765625 299.703125 302.046875 299.84375 302.164062 C 300.195312 302.457031 300.582031 302.613281 301.042969 302.625 C 301.511719 302.632812 301.511719 301.902344 301.042969 301.894531 C 300.785156 301.886719 300.558594 301.8125 300.359375 301.644531 C 300.359375 301.816406 300.359375 301.988281 300.359375 302.164062 C 300.988281 301.644531 301.617188 301.128906 302.246094 300.613281 C 302.609375 300.316406 302.085938 299.800781 301.726562 300.097656 " fill-opacity="1" fill-rule="nonzero"/><path fill="#000d39" d="M 304.195312 305.128906 C 305.054688 305.09375 305.757812 304.574219 306.089844 303.785156 C 306.269531 303.351562 305.5625 303.164062 305.382812 303.59375 C 305.1875 304.0625 304.699219 304.378906 304.195312 304.398438 C 303.726562 304.417969 303.722656 305.148438 304.195312 305.128906 " fill-opacity="1" fill-rule="nonzero"/><path fill="#000d39" d="M 310.714844 299.480469 C 310.949219 299.214844 311.179688 298.945312 311.410156 298.679688 C 311.539062 298.53125 311.558594 298.3125 311.410156 298.164062 C 311.28125 298.03125 311.023438 298.011719 310.894531 298.164062 C 310.660156 298.429688 310.429688 298.699219 310.199219 298.964844 C 310.070312 299.113281 310.050781 299.335938 310.199219 299.480469 C 310.332031 299.613281 310.585938 299.632812 310.714844 299.480469 " fill-opacity="1" fill-rule="nonzero"/><path fill="#000d39" d="M 291.855469 351.136719 C 291.855469 348.316406 291.855469 345.5 291.855469 342.683594 C 291.855469 342.214844 291.125 342.210938 291.125 342.683594 C 291.125 345.5 291.125 348.316406 291.125 351.136719 C 291.125 351.605469 291.855469 351.605469 291.855469 351.136719 " fill-opacity="1" fill-rule="nonzero"/><path fill="#000d39" d="M 295.667969 351.46875 C 295.667969 348.484375 295.667969 345.5 295.667969 342.515625 C 295.667969 342.046875 294.941406 342.046875 294.941406 342.515625 C 294.941406 345.5 294.941406 348.484375 294.941406 351.46875 C 294.941406 351.9375 295.667969 351.9375 295.667969 351.46875 " fill-opacity="1" fill-rule="nonzero"/><path fill="#000d39" d="M 287.175781 350.503906 C 291.269531 350.503906 295.359375 350.503906 299.453125 350.503906 C 299.921875 350.503906 299.921875 349.777344 299.453125 349.777344 C 295.359375 349.777344 291.269531 349.777344 287.175781 349.777344 C 286.703125 349.777344 286.703125 350.503906 287.175781 350.503906 " fill-opacity="1" fill-rule="nonzero"/></svg>